<svg width="12" height="12" viewBox="0 0 12 12" fill="none" xmlns="http://www.w3.org/2000/svg">
<path fill-rule="evenodd" clip-rule="evenodd" d="M8.8 2.4C9.28 2.4 9.6 2 9.6 1.6V0.8C9.6 0.32 9.28 0 8.8 0C8.32 0 8 0.32 8 0.8V1.6C8 2 8.32 2.4 8.8 2.4ZM11.2 0.800011H10.4V1.60001C10.4 2.48001 9.68 3.20001 8.8 3.20001C7.92 3.20001 7.2 2.48001 7.2 1.60001V0.800011H4.8V1.60001C4.8 2.48001 4.08 3.20001 3.2 3.20001C2.32 3.20001 1.6 2.48001 1.6 1.60001V0.800011H0.8C0.32 0.800011 0 1.20001 0 1.60001V11.2C0 11.68 0.32 12 0.8 12H11.2C11.68 12 12 11.68 12 11.2V1.60001C12 1.12001 11.6 0.800011 11.2 0.800011ZM4.00007 10.4H1.60007V8H4.00007V10.4ZM4.00007 7.20005H1.60007V4.80005H4.00007V7.20005ZM7.20009 10.4H4.80009V8H7.20009V10.4ZM7.20009 7.20005H4.80009V4.80005H7.20009V7.20005ZM10.4 10.4H8V8H10.4V10.4ZM10.4 7.20005H8V4.80005H10.4V7.20005ZM3.20005 2.4C3.68005 2.4 4.00005 2 4.00005 1.6V0.8C4.00005 0.32 3.68005 0 3.20005 0C2.72005 0 2.40005 0.32 2.40005 0.8V1.6C2.40005 2 2.72005 2.4 3.20005 2.4Z" fill="#C2C2C2"/>
</svg>
