<svg width="33" height="33" viewBox="0 0 33 33" fill="none" xmlns="http://www.w3.org/2000/svg">
<circle opacity="0.1" cx="16.3452" cy="16.3452" r="16.3452" fill="#F95843"/>
<path d="M12.6488 24H19.3583C20.3289 24 20.8957 23.4779 20.9383 22.5051L21.3846 12.1699H22.3623C22.7237 12.1699 23 11.8838 23 11.5262C23 11.1685 22.7166 10.8967 22.3623 10.8967H19.2874V9.82387C19.2874 8.67948 18.5577 8 17.3391 8H14.6468C13.4281 8 12.6984 8.67948 12.6984 9.82387V10.8967H9.63765C9.2834 10.8967 9 11.1757 9 11.5262C9 11.8909 9.2834 12.1699 9.63765 12.1699H10.6225L11.0759 22.5051C11.1113 23.4779 11.6781 24 12.6488 24ZM14.1721 9.88824C14.1721 9.56638 14.3917 9.35896 14.746 9.35896H17.247C17.6012 9.35896 17.8209 9.56638 17.8209 9.88824V10.8967H14.1721V9.88824ZM13.7257 21.8042C13.4423 21.8042 13.2439 21.6182 13.2368 21.3321L13.0243 13.7363C13.0172 13.4502 13.2156 13.257 13.5132 13.257C13.7966 13.257 13.9949 13.443 14.002 13.7291L14.2146 21.325C14.2287 21.6111 14.0304 21.8042 13.7257 21.8042ZM16 21.8042C15.7024 21.8042 15.504 21.6182 15.504 21.3321V13.7291C15.504 13.4502 15.7024 13.257 16 13.257C16.2976 13.257 16.503 13.4502 16.503 13.7291V21.3321C16.503 21.6182 16.2976 21.8042 16 21.8042ZM18.2743 21.8114C17.9696 21.8114 17.7713 21.6111 17.7854 21.3321L17.998 13.7291C18.0051 13.443 18.2034 13.257 18.4868 13.257C18.7844 13.257 18.9828 13.4502 18.9757 13.7363L18.7632 21.3321C18.7561 21.6182 18.5577 21.8114 18.2743 21.8114Z" fill="#F95843"/>
</svg>
