<svg width="32" height="32" viewBox="0 0 32 32" fill="none" xmlns="http://www.w3.org/2000/svg">
<rect width="32" height="32" rx="16" fill="#1055EB" fill-opacity="0.1"/>
<path d="M16.0005 21.1465C21.089 21.1465 24.5232 17.0343 24.5232 15.7598C24.5232 14.4916 21.0828 10.3794 16.0005 10.3794C10.9871 10.3794 7.47778 14.4916 7.47778 15.7598C7.47778 17.0343 10.9809 21.1465 16.0005 21.1465ZM16.0068 19.1877C14.0954 19.1877 12.5726 17.6244 12.5663 15.7661C12.5601 13.845 14.0954 12.3382 16.0068 12.3382C17.9056 12.3382 19.4409 13.8512 19.4409 15.7661C19.4409 17.6244 17.9056 19.1877 16.0068 19.1877ZM16.0068 17.0405C16.7086 17.0405 17.2914 16.463 17.2914 15.7661C17.2914 15.0629 16.7086 14.479 16.0068 14.479C15.2923 14.479 14.7158 15.0629 14.7158 15.7661C14.7158 16.463 15.2923 17.0405 16.0068 17.0405Z" fill="#385DDF"/>
</svg>
