<svg width="30" height="30" viewBox="0 0 30 30" fill="none" xmlns="http://www.w3.org/2000/svg">
<rect width="30" height="30" rx="8" fill="#1055EB"/>
<path fill-rule="evenodd" clip-rule="evenodd" d="M12.7715 6H17.1537L17.4478 8.70562C18.1063 8.95477 18.7157 9.3015 19.258 9.72786L21.8089 8.56468L24 12.3068L21.7485 13.9268C21.8053 14.2763 21.8347 14.6347 21.8347 15C21.8347 15.3652 21.8053 15.7236 21.7486 16.073L24.0003 17.6932L21.8092 21.4354L19.258 20.2721C18.7158 20.6984 18.1063 21.0452 17.4478 21.2943L17.1537 24H12.7715L12.5215 21.2826C11.8488 21.0244 11.2277 20.6641 10.678 20.2211L8.19109 21.3068L6 17.5647L8.24099 16.0069C8.19108 15.6784 8.16522 15.3422 8.16522 15C8.16522 14.6577 8.19109 14.3215 8.241 13.993L6.0003 12.4354L8.1914 8.69319L10.678 9.77878C11.2278 9.33578 11.8488 8.97552 12.5215 8.7173L12.7715 6ZM17.4432 12.8062C16.888 12.1426 15.2951 11.0901 13.365 12.189C12.8973 12.4412 11.9155 13.2859 11.7297 14.6476L12.4868 14.1997L13.1026 15.1652L11.5344 16.1228C11.2839 16.2758 10.9619 16.2515 10.7379 16.0629L9.31714 14.8666L10.0338 14.0106L10.5487 14.4087C10.6833 13.6191 11.3381 11.8566 12.8805 11.124C14.8085 10.2082 16.6962 10.4472 18.3012 12.0199L17.4432 12.8062ZM12.5192 17.0739C13.0613 17.7479 14.6333 18.8305 16.5845 17.7686C17.0571 17.5254 18.0553 16.6995 18.2677 15.3416L17.502 15.7751L16.9052 14.798L18.4919 13.8704C18.7453 13.7223 19.0668 13.7526 19.2871 13.9455L20.6841 15.1687L19.9508 16.0109L19.4438 15.603C19.2938 16.3899 18.6046 18.1396 17.0481 18.8427C15.1024 19.7215 13.2198 19.4467 11.6459 17.8437L12.5192 17.0739Z" fill="white"/>
</svg>
