<svg width="52" height="52" viewBox="0 0 52 52" fill="none" xmlns="http://www.w3.org/2000/svg">
<g opacity="0.4">
<rect x="0.5" y="0.5" width="51" height="51" rx="7.5" fill="white"/>
<path fill-rule="evenodd" clip-rule="evenodd" d="M31.5695 17.9492H17.9564C16.6971 17.9492 15.9838 19.3872 16.7494 20.3838L22.4916 27.7934V33.0941L26.1665 31.5032C26.7201 31.2624 27.0351 30.7171 27.0351 30.1159V27.7934C27.0351 27.7934 28.7849 25.5356 29.9062 24.089C31.0274 22.6423 32.7773 20.3845 32.7773 20.3845C33.5421 19.3872 32.8288 17.9492 31.5695 17.9492Z" fill="white" stroke="#5C5D5F" stroke-width="1.6" stroke-linecap="round" stroke-linejoin="round"/>
<path fill-rule="evenodd" clip-rule="evenodd" d="M30.5846 35.8411C27.0409 35.8411 24.168 32.9682 24.168 29.4245C24.168 25.8807 27.0409 23.0078 30.5846 23.0078C34.1284 23.0078 37.0013 25.8807 37.0013 29.4245C37.0013 32.9682 34.1284 35.8411 30.5846 35.8411Z" fill="#D85564"/>
<path fill-rule="evenodd" clip-rule="evenodd" d="M33.1255 26.8842C33.4061 27.1647 33.4061 27.6196 33.1256 27.9002L29.0624 31.9641C28.7818 32.2447 28.327 32.2447 28.0464 31.9642C27.7658 31.6837 27.7658 31.2288 28.0463 30.9482L32.1095 26.8843C32.39 26.6037 32.8449 26.6037 33.1255 26.8842Z" fill="white"/>
<path fill-rule="evenodd" clip-rule="evenodd" d="M28.0464 26.8842C28.327 26.6037 28.7818 26.6037 29.0624 26.8843L33.1256 30.9482C33.4061 31.2288 33.4061 31.6837 33.1255 31.9642C32.8449 32.2447 32.39 32.2447 32.1095 31.9641L28.0463 27.9002C27.7658 27.6196 27.7658 27.1647 28.0464 26.8842Z" fill="white"/>
<rect x="0.5" y="0.5" width="51" height="51" rx="7.5" stroke="#01B58A"/>
</g>
</svg>
