<svg width="153" height="18" viewBox="0 0 153 18" fill="none" xmlns="http://www.w3.org/2000/svg">
<path fill-rule="evenodd" clip-rule="evenodd" d="M9.49086 8.29C9.31086 8.11 9.06086 8 8.78086 8C8.50086 8 8.25086 8.11 8.07086 8.29L5.07086 11.29C4.89086 11.47 4.78086 11.72 4.78086 12C4.78086 12.55 5.23086 13 5.78086 13C6.06086 13 6.31086 12.89 6.49086 12.71L7.78086 11.41V16C7.78086 16.55 8.23086 17 8.78086 17C9.33086 17 9.78086 16.55 9.78086 16V11.41L11.0709 12.7C11.2509 12.89 11.5009 13 11.7809 13C12.3309 13 12.7809 12.55 12.7809 12C12.7809 11.72 12.6709 11.47 12.4909 11.29L9.49086 8.29ZM12.7808 5C12.7508 5 12.7108 5 12.6808 5.01C12.2208 2.72 10.2008 1 7.78076 1C5.02076 1 2.78076 3.24 2.78076 6C2.78076 6.11 2.79076 6.22 2.80076 6.33C1.61076 6.89 0.780762 8.1 0.780762 9.5C0.780762 10.93 1.64076 12.16 2.87076 12.7C2.82076 12.47 2.78076 12.24 2.78076 12C2.78076 11.17 3.12076 10.42 3.66076 9.88L6.66076 6.88C7.20076 6.34 7.95076 6 8.78076 6C9.61076 6 10.3608 6.34 10.9008 6.88L13.9008 9.88C14.4408 10.42 14.7808 11.17 14.7808 12C14.7808 12.16 14.7608 12.32 14.7308 12.47C15.9508 11.78 16.7808 10.5 16.7808 9C16.7808 6.79 14.9908 5 12.7808 5Z" fill="black"/>
<path d="M27.7608 14V3.92H31.7228C32.3621 3.92 32.8988 4.05067 33.3328 4.312C33.7668 4.57333 34.0934 4.91167 34.3128 5.327C34.5321 5.73767 34.6418 6.17167 34.6418 6.629C34.6418 7.18433 34.5041 7.66033 34.2288 8.057C33.9581 8.45367 33.5918 8.72433 33.1298 8.869L33.1158 8.526C33.7598 8.68467 34.2544 8.995 34.5998 9.457C34.9451 9.91433 35.1178 10.4487 35.1178 11.06C35.1178 11.6527 34.9988 12.1683 34.7608 12.607C34.5274 13.0457 34.1844 13.3887 33.7318 13.636C33.2838 13.8787 32.7401 14 32.1008 14H27.7608ZM29.2448 12.607H31.8768C32.2081 12.607 32.5044 12.544 32.7658 12.418C33.0318 12.292 33.2394 12.1123 33.3888 11.879C33.5428 11.641 33.6198 11.3587 33.6198 11.032C33.6198 10.7287 33.5521 10.4557 33.4168 10.213C33.2861 9.96567 33.0948 9.772 32.8428 9.632C32.5954 9.48733 32.3038 9.415 31.9678 9.415H29.2448V12.607ZM29.2448 8.036H31.7018C31.9724 8.036 32.2151 7.98233 32.4298 7.875C32.6491 7.763 32.8218 7.60433 32.9478 7.399C33.0784 7.189 33.1438 6.937 33.1438 6.643C33.1438 6.251 33.0131 5.929 32.7518 5.677C32.4904 5.425 32.1404 5.299 31.7018 5.299H29.2448V8.036ZM39.3598 14.203C38.8371 14.203 38.3984 14.119 38.0438 13.951C37.6891 13.783 37.3998 13.5637 37.1758 13.293C36.9564 13.0177 36.7884 12.719 36.6718 12.397C36.5551 12.075 36.4758 11.76 36.4338 11.452C36.3918 11.144 36.3708 10.8733 36.3708 10.64V6.44H37.8548V10.157C37.8548 10.451 37.8781 10.7543 37.9248 11.067C37.9761 11.375 38.0694 11.662 38.2048 11.928C38.3448 12.194 38.5384 12.4087 38.7858 12.572C39.0378 12.7353 39.3644 12.817 39.7658 12.817C40.0271 12.817 40.2744 12.775 40.5078 12.691C40.7411 12.6023 40.9441 12.4623 41.1168 12.271C41.2941 12.0797 41.4318 11.8277 41.5298 11.515C41.6324 11.2023 41.6838 10.822 41.6838 10.374L42.5938 10.717C42.5938 11.403 42.4654 12.0097 42.2088 12.537C41.9521 13.0597 41.5834 13.468 41.1028 13.762C40.6221 14.056 40.0411 14.203 39.3598 14.203ZM41.8588 14V11.816H41.6838V6.44H43.1608V14H41.8588ZM45.264 14V3.71H46.727V14H45.264ZM48.8221 14L48.8291 3.92H50.3131V10.08L53.2811 6.44H55.1431L52.0071 10.22L55.4651 14H53.4771L50.3131 10.36V14H48.8221ZM62.9917 14.21C62.203 14.21 61.5053 14.049 60.8987 13.727C60.2967 13.4003 59.8253 12.9453 59.4847 12.362C59.144 11.774 58.9737 11.0833 58.9737 10.29V3.927L60.4577 3.92V10.213C60.4577 10.6423 60.53 11.0203 60.6747 11.347C60.8193 11.6737 61.013 11.9467 61.2557 12.166C61.4983 12.3853 61.769 12.551 62.0677 12.663C62.371 12.775 62.679 12.831 62.9917 12.831C63.309 12.831 63.617 12.775 63.9157 12.663C64.219 12.5463 64.492 12.3783 64.7347 12.159C64.9773 11.9397 65.1687 11.6667 65.3087 11.34C65.4533 11.0133 65.5257 10.6377 65.5257 10.213V3.92H67.0097V10.29C67.0097 11.0787 66.8393 11.767 66.4987 12.355C66.158 12.943 65.6843 13.4003 65.0777 13.727C64.4757 14.049 63.7803 14.21 62.9917 14.21ZM72.5168 14.21C71.7935 14.21 71.1868 14.035 70.6968 13.685C70.2068 13.3303 69.8358 12.852 69.5838 12.25C69.3318 11.648 69.2058 10.969 69.2058 10.213C69.2058 9.457 69.3295 8.778 69.5768 8.176C69.8288 7.574 70.1975 7.10033 70.6828 6.755C71.1728 6.405 71.7748 6.23 72.4888 6.23C73.1981 6.23 73.8095 6.405 74.3228 6.755C74.8408 7.10033 75.2398 7.574 75.5198 8.176C75.7998 8.77333 75.9398 9.45233 75.9398 10.213C75.9398 10.969 75.7998 11.6503 75.5198 12.257C75.2445 12.859 74.8501 13.335 74.3368 13.685C73.8281 14.035 73.2215 14.21 72.5168 14.21ZM68.9608 17.36V6.44H70.2628V11.879H70.4308V17.36H68.9608ZM72.3138 12.887C72.7805 12.887 73.1655 12.768 73.4688 12.53C73.7768 12.292 74.0055 11.9723 74.1548 11.571C74.3088 11.165 74.3858 10.7123 74.3858 10.213C74.3858 9.71833 74.3088 9.27033 74.1548 8.869C74.0055 8.46767 73.7745 8.148 73.4618 7.91C73.1491 7.672 72.7501 7.553 72.2648 7.553C71.8075 7.553 71.4295 7.665 71.1308 7.889C70.8368 8.113 70.6175 8.42567 70.4728 8.827C70.3328 9.22833 70.2628 9.69033 70.2628 10.213C70.2628 10.7357 70.3328 11.1977 70.4728 11.599C70.6128 12.0003 70.8345 12.3153 71.1378 12.544C71.4411 12.7727 71.8331 12.887 72.3138 12.887ZM77.6254 14V3.71H79.0884V14H77.6254ZM84.4734 14.21C83.7174 14.21 83.0618 14.0397 82.5064 13.699C81.9511 13.3583 81.5218 12.8893 81.2184 12.292C80.9198 11.69 80.7704 10.997 80.7704 10.213C80.7704 9.42433 80.9244 8.73133 81.2324 8.134C81.5404 7.532 81.9721 7.06533 82.5274 6.734C83.0828 6.398 83.7314 6.23 84.4734 6.23C85.2294 6.23 85.8851 6.40033 86.4404 6.741C86.9958 7.08167 87.4251 7.55067 87.7284 8.148C88.0318 8.74533 88.1834 9.43367 88.1834 10.213C88.1834 11.0017 88.0294 11.697 87.7214 12.299C87.4181 12.8963 86.9888 13.3653 86.4334 13.706C85.8781 14.042 85.2248 14.21 84.4734 14.21ZM84.4734 12.831C85.1968 12.831 85.7358 12.5883 86.0904 12.103C86.4498 11.613 86.6294 10.983 86.6294 10.213C86.6294 9.42433 86.4474 8.79433 86.0834 8.323C85.7241 7.847 85.1874 7.609 84.4734 7.609C83.9834 7.609 83.5798 7.721 83.2624 7.945C82.9451 8.16433 82.7094 8.47 82.5554 8.862C82.4014 9.24933 82.3244 9.69967 82.3244 10.213C82.3244 11.0063 82.5064 11.641 82.8704 12.117C83.2344 12.593 83.7688 12.831 84.4734 12.831ZM91.8567 14.21C91.2967 14.21 90.8277 14.1073 90.4497 13.902C90.0717 13.692 89.7847 13.4167 89.5887 13.076C89.3974 12.7307 89.3017 12.3527 89.3017 11.942C89.3017 11.5593 89.3694 11.2233 89.5047 10.934C89.64 10.6447 89.8407 10.3997 90.1067 10.199C90.3727 9.99367 90.6994 9.828 91.0867 9.702C91.4227 9.604 91.803 9.51767 92.2277 9.443C92.6524 9.36833 93.098 9.29833 93.5647 9.233C94.036 9.16767 94.5027 9.10233 94.9647 9.037L94.4327 9.331C94.442 8.73833 94.316 8.29967 94.0547 8.015C93.798 7.72567 93.3547 7.581 92.7247 7.581C92.328 7.581 91.964 7.67433 91.6327 7.861C91.3014 8.043 91.0704 8.34633 90.9397 8.771L89.5747 8.351C89.7614 7.70233 90.116 7.18667 90.6387 6.804C91.166 6.42133 91.866 6.23 92.7387 6.23C93.4154 6.23 94.0034 6.34667 94.5027 6.58C95.0067 6.80867 95.3754 7.17267 95.6087 7.672C95.73 7.91933 95.8047 8.18067 95.8327 8.456C95.8607 8.73133 95.8747 9.02767 95.8747 9.345V14H94.5797V12.271L94.8317 12.495C94.519 13.0737 94.12 13.5053 93.6347 13.79C93.154 14.07 92.5614 14.21 91.8567 14.21ZM92.1157 13.013C92.531 13.013 92.888 12.9407 93.1867 12.796C93.4854 12.6467 93.7257 12.4577 93.9077 12.229C94.0897 12.0003 94.2087 11.7623 94.2647 11.515C94.344 11.291 94.3884 11.039 94.3977 10.759C94.4117 10.479 94.4187 10.255 94.4187 10.087L94.8947 10.262C94.4327 10.332 94.0127 10.395 93.6347 10.451C93.2567 10.507 92.9137 10.563 92.6057 10.619C92.3024 10.6703 92.0317 10.7333 91.7937 10.808C91.593 10.878 91.4134 10.962 91.2547 11.06C91.1007 11.158 90.977 11.277 90.8837 11.417C90.795 11.557 90.7507 11.7273 90.7507 11.928C90.7507 12.124 90.7997 12.306 90.8977 12.474C90.9957 12.6373 91.145 12.768 91.3457 12.866C91.5464 12.964 91.803 13.013 92.1157 13.013ZM100.695 14.21C99.9907 14.21 99.3817 14.035 98.8684 13.685C98.3597 13.335 97.9654 12.859 97.6854 12.257C97.4101 11.6503 97.2724 10.969 97.2724 10.213C97.2724 9.45233 97.4124 8.77333 97.6924 8.176C97.9724 7.574 98.3691 7.10033 98.8824 6.755C99.4004 6.405 100.014 6.23 100.723 6.23C101.437 6.23 102.037 6.405 102.522 6.755C103.012 7.10033 103.381 7.574 103.628 8.176C103.88 8.778 104.006 9.457 104.006 10.213C104.006 10.969 103.88 11.648 103.628 12.25C103.376 12.852 103.005 13.3303 102.515 13.685C102.025 14.035 101.419 14.21 100.695 14.21ZM100.898 12.887C101.379 12.887 101.771 12.7727 102.074 12.544C102.378 12.3153 102.599 12.0003 102.739 11.599C102.879 11.1977 102.949 10.7357 102.949 10.213C102.949 9.69033 102.877 9.22833 102.732 8.827C102.592 8.42567 102.373 8.113 102.074 7.889C101.78 7.665 101.405 7.553 100.947 7.553C100.462 7.553 100.063 7.672 99.7504 7.91C99.4377 8.148 99.2044 8.46767 99.0504 8.869C98.9011 9.27033 98.8264 9.71833 98.8264 10.213C98.8264 10.7123 98.9011 11.165 99.0504 11.571C99.2044 11.9723 99.4331 12.292 99.7364 12.53C100.044 12.768 100.432 12.887 100.898 12.887ZM102.949 14V8.561H102.781V3.92H104.251V14H102.949ZM109.013 14V3.92H110.336L113.99 11.501L117.623 3.92H118.96V13.993H117.574V7.098L114.319 14H113.654L110.392 7.098V14H109.013ZM123.056 14.21C122.496 14.21 122.027 14.1073 121.649 13.902C121.271 13.692 120.984 13.4167 120.788 13.076C120.597 12.7307 120.501 12.3527 120.501 11.942C120.501 11.5593 120.569 11.2233 120.704 10.934C120.839 10.6447 121.04 10.3997 121.306 10.199C121.572 9.99367 121.899 9.828 122.286 9.702C122.622 9.604 123.002 9.51767 123.427 9.443C123.852 9.36833 124.297 9.29833 124.764 9.233C125.235 9.16767 125.702 9.10233 126.164 9.037L125.632 9.331C125.641 8.73833 125.515 8.29967 125.254 8.015C124.997 7.72567 124.554 7.581 123.924 7.581C123.527 7.581 123.163 7.67433 122.832 7.861C122.501 8.043 122.27 8.34633 122.139 8.771L120.774 8.351C120.961 7.70233 121.315 7.18667 121.838 6.804C122.365 6.42133 123.065 6.23 123.938 6.23C124.615 6.23 125.203 6.34667 125.702 6.58C126.206 6.80867 126.575 7.17267 126.808 7.672C126.929 7.91933 127.004 8.18067 127.032 8.456C127.06 8.73133 127.074 9.02767 127.074 9.345V14H125.779V12.271L126.031 12.495C125.718 13.0737 125.319 13.5053 124.834 13.79C124.353 14.07 123.761 14.21 123.056 14.21ZM123.315 13.013C123.73 13.013 124.087 12.9407 124.386 12.796C124.685 12.6467 124.925 12.4577 125.107 12.229C125.289 12.0003 125.408 11.7623 125.464 11.515C125.543 11.291 125.588 11.039 125.597 10.759C125.611 10.479 125.618 10.255 125.618 10.087L126.094 10.262C125.632 10.332 125.212 10.395 124.834 10.451C124.456 10.507 124.113 10.563 123.805 10.619C123.502 10.6703 123.231 10.7333 122.993 10.808C122.792 10.878 122.613 10.962 122.454 11.06C122.3 11.158 122.176 11.277 122.083 11.417C121.994 11.557 121.95 11.7273 121.95 11.928C121.95 12.124 121.999 12.306 122.097 12.474C122.195 12.6373 122.344 12.768 122.545 12.866C122.746 12.964 123.002 13.013 123.315 13.013ZM128.892 14V6.44H130.194V8.274L130.012 8.036C130.105 7.79333 130.226 7.57167 130.376 7.371C130.525 7.16567 130.698 6.99767 130.894 6.867C131.085 6.727 131.297 6.61967 131.531 6.545C131.769 6.46567 132.011 6.419 132.259 6.405C132.506 6.38633 132.744 6.398 132.973 6.44V7.812C132.725 7.74667 132.45 7.728 132.147 7.756C131.848 7.784 131.573 7.87967 131.321 8.043C131.083 8.197 130.894 8.38367 130.754 8.603C130.618 8.82233 130.52 9.06733 130.46 9.338C130.399 9.604 130.369 9.88633 130.369 10.185V14H128.892ZM134.299 14L134.306 3.92H135.79V10.08L138.758 6.44H140.62L137.484 10.22L140.942 14H138.954L135.79 10.36V14H134.299ZM144.402 14.203C143.482 14.203 142.733 14 142.155 13.594C141.576 13.188 141.221 12.6163 141.091 11.879L142.589 11.648C142.682 12.04 142.897 12.3503 143.233 12.579C143.573 12.803 143.996 12.915 144.5 12.915C144.957 12.915 145.314 12.8217 145.571 12.635C145.832 12.4483 145.963 12.1917 145.963 11.865C145.963 11.6737 145.916 11.5197 145.823 11.403C145.734 11.2817 145.545 11.1673 145.256 11.06C144.966 10.9527 144.525 10.8197 143.933 10.661C143.284 10.493 142.768 10.3133 142.386 10.122C142.008 9.926 141.737 9.69967 141.574 9.443C141.415 9.18167 141.336 8.86667 141.336 8.498C141.336 8.04067 141.457 7.64167 141.7 7.301C141.942 6.96033 142.283 6.69667 142.722 6.51C143.165 6.32333 143.683 6.23 144.276 6.23C144.854 6.23 145.37 6.321 145.823 6.503C146.275 6.685 146.642 6.944 146.922 7.28C147.202 7.61133 147.37 8.001 147.426 8.449L145.928 8.722C145.876 8.358 145.706 8.071 145.417 7.861C145.127 7.651 144.752 7.53667 144.29 7.518C143.846 7.49933 143.487 7.574 143.212 7.742C142.936 7.90533 142.799 8.13167 142.799 8.421C142.799 8.589 142.85 8.73133 142.953 8.848C143.06 8.96467 143.265 9.07667 143.569 9.184C143.872 9.29133 144.32 9.41967 144.913 9.569C145.547 9.73233 146.051 9.91433 146.425 10.115C146.798 10.311 147.064 10.5467 147.223 10.822C147.386 11.0927 147.468 11.4217 147.468 11.809C147.468 12.5557 147.195 13.1413 146.649 13.566C146.107 13.9907 145.358 14.203 144.402 14.203Z" fill="black"/>
</svg>
