<svg width="20" height="20" viewBox="0 0 20 20" fill="none" xmlns="http://www.w3.org/2000/svg">
<g id="Text-field-icon/calender">
<path id="icon" fill-rule="evenodd" clip-rule="evenodd" d="M12.8888 6.00016C13.4554 6.00016 13.8332 5.55572 13.8332 5.11127V4.22238C13.8332 3.68905 13.4554 3.3335 12.8888 3.3335C12.3221 3.3335 11.9443 3.68905 11.9443 4.22238V5.11127C11.9443 5.55572 12.3221 6.00016 12.8888 6.00016ZM15.7222 4.22239H14.7778V5.11127C14.7778 6.08905 13.9278 6.88905 12.8889 6.88905C11.85 6.88905 11 6.08905 11 5.11127V4.22239H8.16667V5.11127C8.16667 6.08905 7.31667 6.88905 6.27778 6.88905C5.23889 6.88905 4.38889 6.08905 4.38889 5.11127V4.22239H3.44444C2.87778 4.22239 2.5 4.66683 2.5 5.11127V15.7779C2.5 16.3113 2.87778 16.6668 3.44444 16.6668H15.7222C16.2889 16.6668 16.6667 16.3113 16.6667 15.7779V5.11127C16.6667 4.57794 16.1944 4.22239 15.7222 4.22239ZM7.22222 14.8891H4.38889V12.2224H7.22222V14.8891ZM7.22222 11.3335H4.38889V8.66685H7.22222V11.3335ZM11 14.8891H8.16666V12.2224H11V14.8891ZM11 11.3335H8.16666V8.66685H11V11.3335ZM14.7777 14.8891H11.9443V12.2224H14.7777V14.8891ZM14.7777 11.3335H11.9443V8.66685H14.7777V11.3335ZM6.27776 6.00016C6.84443 6.00016 7.22221 5.55572 7.22221 5.11127V4.22238C7.22221 3.68905 6.84443 3.3335 6.27776 3.3335C5.7111 3.3335 5.33332 3.68905 5.33332 4.22238V5.11127C5.33332 5.55572 5.7111 6.00016 6.27776 6.00016Z" fill="#9A9A9A" fill-opacity="0.5"/>
</g>
</svg>
