<svg width="165" height="102" viewBox="0 0 165 102" fill="none" xmlns="http://www.w3.org/2000/svg">
<path opacity="0.8" fill-rule="evenodd" clip-rule="evenodd" d="M33.1271 19.4221C34.8237 14.0859 36.4026 10.7635 37.8612 9.45365C41.9005 5.82829 47.4854 7.80136 48.6728 8.08395C52.8439 9.0794 51.4876 2.5288 55.0663 1.19729C57.4513 0.310041 59.4127 1.3946 60.9519 4.45095C62.3146 1.59954 64.3912 0.293492 67.1817 0.526443C71.3682 0.87905 72.8332 14.9464 78.5857 11.8672C84.3395 8.78662 91.3933 8.08268 94.4065 12.6602C95.0577 13.6506 95.3072 12.1141 99.7368 6.86829C104.166 1.62118 108.583 -0.690499 117.644 2.36458C121.764 3.7521 125.152 7.51367 127.812 13.648C127.812 22.4034 134.287 27.5868 147.232 29.1946C166.654 31.6068 151.579 52.3801 127.812 58.4636C104.045 64.5483 49.3253 67.8325 19.6311 52.4603C-0.164964 42.2143 4.33368 31.2008 33.1258 19.4221H33.1271Z" fill="url(#paint0_linear_25753_9001)"/>
<path d="M81.8239 96.7902C101.601 96.7902 117.633 93.0983 117.633 88.544C117.633 83.9898 101.601 80.2979 81.8239 80.2979C62.0473 80.2979 46.0151 83.9898 46.0151 88.544C46.0151 93.0983 62.0473 96.7902 81.8239 96.7902Z" fill="url(#paint1_linear_25753_9001)"/>
<path opacity="0.675" fill-rule="evenodd" clip-rule="evenodd" d="M142.279 98.8325C115.355 105.551 23.454 97.8663 13.6724 94.3568C8.91145 92.6472 4.62008 89.433 0.799551 84.7129C0.371948 84.1851 0.103174 83.5477 0.0242848 82.8744C-0.0546041 82.2011 0.059613 81.5193 0.353737 80.9078C0.647862 80.2963 1.10989 79.7801 1.68643 79.4189C2.26297 79.0576 2.93048 78.866 3.61185 78.8662H164.204C167.537 87.6979 160.229 94.3529 142.279 98.8325Z" fill="url(#paint2_linear_25753_9001)"/>
<path d="M109.302 66.4481L97.0565 52.2012C96.7669 51.8613 96.407 51.5875 96.0013 51.3986C95.5957 51.2097 95.1539 51.11 94.7061 51.1064H68.3744C67.4711 51.1064 66.6125 51.5189 66.024 52.2012L53.7781 66.4481V74.2691H109.302V66.4481Z" fill="url(#paint3_linear_25753_9001)"/>
<path d="M105.833 74.5563L95.1145 62.1476C94.8554 61.8546 94.5359 61.6205 94.1779 61.4613C93.8198 61.3021 93.4314 61.2214 93.0392 61.2247H70.0418C69.2524 61.2247 68.4808 61.5506 67.9665 62.1476L57.2483 74.5563V81.3717H105.833V74.5563Z" fill="url(#paint4_linear_25753_9001)"/>
<path d="M109.303 83.2337C109.303 84.3196 108.811 85.2959 108.036 85.9502L107.879 86.0775C107.264 86.5411 106.513 86.7915 105.742 86.7904H57.3404C56.9028 86.7904 56.4844 86.7114 56.098 86.5663L55.9061 86.4899C55.2729 86.2097 54.735 85.7528 54.3573 85.1747C53.9797 84.5966 53.7786 83.9219 53.7783 83.2325V66.5352H67.25C68.738 66.5352 69.9369 67.7534 69.9369 69.2313V69.2504C69.9369 70.7295 71.1498 71.9223 72.6378 71.9223H90.4431C91.1583 71.9216 91.8442 71.639 92.3504 71.1363C92.8566 70.6336 93.142 69.9518 93.1441 69.2402C93.1441 67.7559 94.3442 66.5352 95.831 66.5352H109.304L109.303 83.2337Z" fill="url(#paint5_linear_25753_9001)"/>
<defs>
<linearGradient id="paint0_linear_25753_9001" x1="85.3181" y1="47.5356" x2="85.3181" y2="-10.6173" gradientUnits="userSpaceOnUse">
<stop stop-color="#DEDEDE" stop-opacity="0"/>
<stop offset="1" stop-color="#A9A9A9" stop-opacity="0.3"/>
</linearGradient>
<linearGradient id="paint1_linear_25753_9001" x1="78.0927" y1="96.7902" x2="78.0927" y2="80.2979" gradientUnits="userSpaceOnUse">
<stop stop-color="white" stop-opacity="0"/>
<stop offset="1" stop-color="#96A1C5" stop-opacity="0.373"/>
</linearGradient>
<linearGradient id="paint2_linear_25753_9001" x1="82.4937" y1="101.497" x2="82.4937" y2="74.4136" gradientUnits="userSpaceOnUse">
<stop stop-color="white" stop-opacity="0"/>
<stop offset="1" stop-color="#919191" stop-opacity="0.15"/>
</linearGradient>
<linearGradient id="paint3_linear_25753_9001" x1="81.5402" y1="51.1064" x2="81.5402" y2="61.518" gradientUnits="userSpaceOnUse">
<stop stop-color="#5389F5"/>
<stop offset="1" stop-color="#416FDC"/>
</linearGradient>
<linearGradient id="paint4_linear_25753_9001" x1="88.0241" y1="81.3717" x2="88.0241" y2="60.1536" gradientUnits="userSpaceOnUse">
<stop stop-color="#DCE9FF"/>
<stop offset="1" stop-color="#B6CFFF"/>
</linearGradient>
<linearGradient id="paint5_linear_25753_9001" x1="81.5411" y1="66.5352" x2="81.5411" y2="86.7904" gradientUnits="userSpaceOnUse">
<stop stop-color="#7CA5F7"/>
<stop offset="1" stop-color="#C4D6FC"/>
</linearGradient>
</defs>
</svg>
