<svg width="53" height="52" viewBox="0 0 53 52" fill="none" xmlns="http://www.w3.org/2000/svg">
<path fill-rule="evenodd" clip-rule="evenodd" d="M19.5274 9.4356C26.2533 6.64962 33.9952 8.18958 39.143 13.3374C46.1722 20.3667 46.1722 31.7632 39.143 38.7925C33.9952 43.9403 26.2533 45.4803 19.5274 42.6943C12.8014 39.9083 8.41602 33.3451 8.41602 26.0649C8.41602 18.7848 12.8014 12.2216 19.5274 9.4356ZM25.1394 32.6081L35.0538 21.0415C35.4026 20.6346 35.5078 20.0725 35.3299 19.567C35.1519 19.0615 34.7177 18.6894 34.191 18.5907C33.6642 18.4921 33.1249 18.682 32.7761 19.0889L24.6912 28.5214L19.8156 24.8653C19.3871 24.5421 18.8186 24.4726 18.3248 24.6829C17.831 24.8932 17.4873 25.3514 17.4234 25.8843C17.3596 26.4172 17.5853 26.9435 18.0154 27.2646L25.1394 32.6081Z" fill="#01B58A"/>
</svg>
