<svg width="12" height="8" viewBox="0 0 12 8" fill="none" xmlns="http://www.w3.org/2000/svg">
<path d="M5.5685 7.20801C5.78823 7.20173 5.98912 7.12012 6.15234 6.94434L10.9236 2.06013C11.0617 1.92201 11.137 1.74623 11.137 1.53906C11.137 1.12472 10.8105 0.791992 10.3962 0.791992C10.1953 0.791992 10.0007 0.873605 9.85631 1.018L5.57478 5.41881L1.28069 1.018C1.1363 0.879883 0.947963 0.791992 0.740793 0.791992C0.326451 0.791992 0 1.12472 0 1.53906C0 1.74623 0.0753348 1.92201 0.213449 2.06013L4.99093 6.94434C5.16044 7.12012 5.34877 7.20801 5.5685 7.20801Z" fill="#1B1C1E"/>
</svg>
