<svg width="7" height="14" viewBox="0 0 7 14" fill="none" xmlns="http://www.w3.org/2000/svg">
<path d="M0.017334 6.75614C0.0261321 6.48955 0.140505 6.26105 0.378049 6.05539L5.22282 0.258973C5.42517 0.0914022 5.66272 0 5.95305 0C6.54251 0 7 0.396076 7 0.906405C7 1.15014 6.88563 1.37865 6.68328 1.55384L2.52474 6.75614L6.68328 11.9585C6.88563 12.1336 7 12.3545 7 12.6059C7 13.1162 6.54251 13.5123 5.95305 13.5123C5.67152 13.5123 5.42517 13.4209 5.22282 13.2533L0.378049 7.44928C0.131707 7.25124 0.017334 7.02273 0.017334 6.75614Z" fill="#1B1C1E"/>
</svg>
