<svg width="47" height="52" viewBox="0 0 47 52" fill="none" xmlns="http://www.w3.org/2000/svg">
<rect x="0.666626" width="46" height="52" rx="8" fill="#F4F6F9"/>
<path fill-rule="evenodd" clip-rule="evenodd" d="M28.0505 19H16.9126C15.8823 19 15.2986 20.1766 15.925 20.9919L20.6232 27.0543V31.3913L23.6299 30.0896C24.0828 29.8926 24.3406 29.4465 24.3406 28.9546V27.0543C24.3406 27.0543 25.7723 25.2071 26.6896 24.0234C27.607 22.8398 29.0387 20.9925 29.0387 20.9925C29.6645 20.1766 29.0809 19 28.0505 19Z" fill="white" stroke="#5C5D5F" stroke-width="1.6" stroke-linecap="round" stroke-linejoin="round"/>
<path fill-rule="evenodd" clip-rule="evenodd" d="M27.2448 33.6396C24.3453 33.6396 21.9948 31.2891 21.9948 28.3896C21.9948 25.4902 24.3453 23.1396 27.2448 23.1396C30.1442 23.1396 32.4948 25.4902 32.4948 28.3896C32.4948 31.2891 30.1442 33.6396 27.2448 33.6396Z" fill="#D85564"/>
<path fill-rule="evenodd" clip-rule="evenodd" d="M29.3223 26.3118C29.5518 26.5413 29.5518 26.9134 29.3223 27.143L25.9979 30.468C25.7684 30.6976 25.3962 30.6976 25.1666 30.4681C24.9371 30.2386 24.937 29.8664 25.1666 29.6369L28.491 26.3118C28.7205 26.0823 29.0927 26.0822 29.3223 26.3118Z" fill="white"/>
<path fill-rule="evenodd" clip-rule="evenodd" d="M25.1665 26.3118C25.396 26.0822 25.7682 26.0823 25.9977 26.3118L29.3221 29.6369C29.5517 29.8664 29.5516 30.2386 29.3221 30.4681C29.0925 30.6976 28.7204 30.6976 28.4908 30.468L25.1664 27.143C24.9369 26.9134 24.9369 26.5413 25.1665 26.3118Z" fill="white"/>
</svg>
