<svg width="12" height="13" viewBox="0 0 12 13" fill="none" xmlns="http://www.w3.org/2000/svg">
<path fill-rule="evenodd" clip-rule="evenodd" d="M10.4741 1.356C9.79331 0.819624 8.93401 0.499696 8 0.5H1C0.734783 0.5 0.48043 0.605357 0.292893 0.792894C0.105357 0.98043 0 1.23478 0 1.5V11.5C0 11.7652 0.105357 12.0196 0.292893 12.2071C0.48043 12.3946 0.734783 12.5 1 12.5H11C11.2652 12.5 11.5196 12.3946 11.7071 12.2071C11.8946 12.0196 12 11.7652 12 11.5V5.16667L12.0002 4.5C12.0004 3.71754 11.7759 2.98753 11.3876 2.37099L7.20918 8.22084C7.10275 8.36984 6.93971 8.46851 6.75834 8.49368C6.57696 8.51885 6.39322 8.46831 6.25023 8.35392L2.91689 5.68726C2.62939 5.45725 2.58277 5.03772 2.81278 4.75022C3.04278 4.46271 3.46231 4.41609 3.74982 4.6461L6.53341 6.87297L10.4741 1.356Z" fill="#01B58A"/>
</svg>
