<svg width="12" height="13" viewBox="0 0 12 13" fill="none" xmlns="http://www.w3.org/2000/svg">
<path d="M3.47593 12.6476H8.52933C9.26039 12.6476 9.68729 12.258 9.71931 11.5323L10.0555 3.82146H10.7919C11.064 3.82146 11.2721 3.60801 11.2721 3.3412C11.2721 3.07439 11.0587 2.87162 10.7919 2.87162H8.47597V2.07118C8.47597 1.21739 7.92634 0.710449 7.00851 0.710449H4.98075C4.06292 0.710449 3.51329 1.21739 3.51329 2.07118V2.87162H1.20804C0.941232 2.87162 0.727783 3.07973 0.727783 3.3412C0.727783 3.61335 0.941232 3.82146 1.20804 3.82146H1.94978L2.29129 11.5323C2.31798 12.258 2.74487 12.6476 3.47593 12.6476ZM4.62322 2.11921C4.62322 1.87908 4.78864 1.72433 5.05545 1.72433H6.93914C7.20595 1.72433 7.37137 1.87908 7.37137 2.11921V2.87162H4.62322V2.11921ZM4.28704 11.0093C4.07359 11.0093 3.92418 10.8706 3.91884 10.6572L3.75875 4.9901C3.75342 4.77665 3.90283 4.63257 4.12695 4.63257C4.3404 4.63257 4.48982 4.77131 4.49515 4.98476L4.65524 10.6518C4.66591 10.8653 4.5165 11.0093 4.28704 11.0093ZM5.99996 11.0093C5.77584 11.0093 5.62643 10.8706 5.62643 10.6572V4.98476C5.62643 4.77665 5.77584 4.63257 5.99996 4.63257C6.22409 4.63257 6.37884 4.77665 6.37884 4.98476V10.6572C6.37884 10.8706 6.22409 11.0093 5.99996 11.0093ZM7.71289 11.0147C7.48343 11.0147 7.33402 10.8653 7.34469 10.6572L7.50478 4.98476C7.51011 4.77131 7.65953 4.63257 7.87298 4.63257C8.0971 4.63257 8.24651 4.77665 8.24118 4.9901L8.08109 10.6572C8.07575 10.8706 7.92634 11.0147 7.71289 11.0147Z" fill="#F95843"/>
</svg>
