<svg width="20" height="20" viewBox="0 0 20 20" fill="none" xmlns="http://www.w3.org/2000/svg">
<circle opacity="0.1" cx="9.70495" cy="10.2049" r="9.70495" fill="#F95843"/>
<path d="M7.51022 14.75H11.494C12.0703 14.75 12.4069 14.44 12.4321 13.8624L12.6971 7.72586H13.2776C13.4922 7.72586 13.6563 7.55599 13.6563 7.34365C13.6563 7.13131 13.488 6.96994 13.2776 6.96994H11.4519V6.33292C11.4519 5.65344 11.0186 5.25 10.2951 5.25H8.69651C7.97296 5.25 7.53966 5.65344 7.53966 6.33292V6.96994H5.72236C5.51202 6.96994 5.34375 7.13556 5.34375 7.34365C5.34375 7.56024 5.51202 7.72586 5.72236 7.72586H6.30709L6.57632 13.8624C6.59736 14.44 6.93389 14.75 7.51022 14.75ZM8.41466 6.37114C8.41466 6.18004 8.54507 6.05688 8.75541 6.05688H10.2404C10.4507 6.05688 10.5811 6.18004 10.5811 6.37114V6.96994H8.41466V6.37114ZM8.14964 13.4462C7.98137 13.4462 7.86358 13.3358 7.85938 13.166L7.73317 8.6559C7.72897 8.48603 7.84675 8.37137 8.02344 8.37137C8.19171 8.37137 8.3095 8.48178 8.3137 8.65165L8.4399 13.1617C8.44832 13.3316 8.33053 13.4462 8.14964 13.4462ZM9.5 13.4462C9.32332 13.4462 9.20553 13.3358 9.20553 13.166V8.65165C9.20553 8.48603 9.32332 8.37137 9.5 8.37137C9.67668 8.37137 9.79868 8.48603 9.79868 8.65165V13.166C9.79868 13.3358 9.67668 13.4462 9.5 13.4462ZM10.8504 13.4505C10.6695 13.4505 10.5517 13.3316 10.5601 13.166L10.6863 8.65165C10.6905 8.48178 10.8083 8.37137 10.9766 8.37137C11.1532 8.37137 11.271 8.48603 11.2668 8.6559L11.1406 13.166C11.1364 13.3358 11.0186 13.4505 10.8504 13.4505Z" fill="#F95843"/>
</svg>
