<svg width="52" height="52" viewBox="0 0 52 52" fill="none" xmlns="http://www.w3.org/2000/svg">
<circle opacity="0.1" cx="26" cy="26" r="26" fill="#F95843"/>
<path fill-rule="evenodd" clip-rule="evenodd" d="M26 14C19.3726 14 14 19.3726 14 26C14 32.6274 19.3726 38 26 38C32.6274 38 38 32.6274 38 26C37.9997 19.3727 32.6273 14.0003 26 14ZM24.8231 17.9995C24.8231 17.7344 24.9284 17.4802 25.1158 17.2927C25.3033 17.1053 25.5575 17 25.8226 17H25.8236C26.0887 17 26.343 17.1053 26.5304 17.2927C26.7178 17.4802 26.8231 17.7344 26.8231 17.9995V25.0005C26.8231 25.2656 26.7178 25.5198 26.5304 25.7073C26.3429 25.8947 26.0887 26 25.8236 26H25.8226C25.5575 26 25.3033 25.8947 25.1158 25.7073C24.9284 25.5198 24.8231 25.2656 24.8231 25.0005V17.9995ZM24.5 31.5001C24.5 32.3285 25.1716 33.0001 26 33.0001C26.8284 32.9999 27.4999 32.3284 27.5 31.5001C27.5 30.6716 26.8284 30.0001 26 30.0001C25.1716 30.0001 24.5 30.6716 24.5 31.5001Z" fill="#F95843"/>
</svg>
