<svg width="119" height="111" viewBox="0 0 119 111" fill="none" xmlns="http://www.w3.org/2000/svg">
<rect x="49.1509" y="89" width="20" height="13" fill="white"/>
<rect x="29.1509" y="103" width="61" height="6" fill="white"/>
<path d="M0.150879 4.22147C0.150879 1.89002 2.0409 0 4.37236 0H114.627C116.959 0 118.849 1.89002 118.849 4.22148V84.6778C118.849 87.0093 116.959 88.8993 114.627 88.8993H4.37235C2.0409 88.8993 0.150879 87.0093 0.150879 84.6778V4.22147Z" fill="#01B58A"/>
<path fill-rule="evenodd" clip-rule="evenodd" d="M114.627 2.48322H4.37236C3.41234 2.48322 2.6341 3.26146 2.6341 4.22147V84.6779C2.6341 85.6379 3.41234 86.4161 4.37235 86.4161H114.627C115.587 86.4161 116.366 85.6379 116.366 84.6779V4.22148C116.366 3.26146 115.587 2.48322 114.627 2.48322ZM4.37236 0C2.0409 0 0.150879 1.89002 0.150879 4.22147V84.6779C0.150879 87.0093 2.0409 88.8993 4.37235 88.8993H114.627C116.959 88.8993 118.849 87.0093 118.849 84.6779V4.22148C118.849 1.89002 116.959 0 114.627 0H4.37236Z" fill="black"/>
<path d="M0.150879 4.22148C0.150879 1.89002 2.0409 0 4.37236 0H114.627C116.959 0 118.849 1.89002 118.849 4.22148V71.7651H0.150879V4.22148Z" fill="white"/>
<path fill-rule="evenodd" clip-rule="evenodd" d="M114.627 2.48322H4.37236C3.41234 2.48322 2.6341 3.26146 2.6341 4.22148V69.2819H116.366V4.22148C116.366 3.26146 115.587 2.48322 114.627 2.48322ZM4.37236 0C2.0409 0 0.150879 1.89002 0.150879 4.22148V71.7651H118.849V4.22148C118.849 1.89002 116.959 0 114.627 0H4.37236Z" fill="black"/>
<path d="M8.59375 8.93955C8.59375 8.52811 8.92728 8.19458 9.33872 8.19458H109.661C110.072 8.19458 110.406 8.52811 110.406 8.93955V71.0201C110.406 71.4315 110.072 71.765 109.661 71.765H9.33872C8.92728 71.765 8.59375 71.4315 8.59375 71.0201V8.93955Z" fill="white"/>
<path fill-rule="evenodd" clip-rule="evenodd" d="M11.077 10.6778V69.2818H107.923V10.6778H11.077ZM9.33872 8.19458C8.92728 8.19458 8.59375 8.52811 8.59375 8.93955V71.0201C8.59375 71.4315 8.92728 71.765 9.33872 71.765H109.661C110.072 71.765 110.406 71.4315 110.406 71.0201V8.93955C110.406 8.52811 110.072 8.19458 109.661 8.19458H9.33872Z" fill="black"/>
<path d="M29.9012 39.058C29.5226 38.8802 29.52 38.3426 29.8968 38.161L59.4143 23.9401C59.5472 23.8761 59.7016 23.8744 59.8359 23.9356L91.0263 38.1565C91.4158 38.3341 91.4131 38.8884 91.0219 39.0623L59.8314 52.9247C59.6997 52.9833 59.549 52.9817 59.4186 52.9204L29.9012 39.058Z" fill="white"/>
<path fill-rule="evenodd" clip-rule="evenodd" d="M29.9012 39.058C29.5226 38.8802 29.52 38.3426 29.8968 38.161L59.4143 23.9401C59.5472 23.8761 59.7016 23.8744 59.8359 23.9356L91.0263 38.1565C91.4158 38.3341 91.4131 38.8884 91.0219 39.0623L59.8314 52.9247C59.6997 52.9833 59.549 52.9817 59.4186 52.9204L29.9012 39.058ZM34.7369 38.5856L59.6525 50.2868L85.9809 38.5853L59.6531 26.5814L34.7369 38.5856Z" fill="black"/>
<path d="M36.7783 40.9391C36.7783 40.5774 37.1527 40.337 37.4817 40.4875L59.9548 50.7735C60.1315 50.8544 60.2448 51.0308 60.2448 51.2251V62.278C60.2448 62.6453 59.8597 62.8855 59.5298 62.724L37.0566 51.7246C36.8863 51.6413 36.7783 51.4682 36.7783 51.2786V40.9391Z" fill="white"/>
<path fill-rule="evenodd" clip-rule="evenodd" d="M36.7783 51.2786C36.7783 51.4682 36.8863 51.6413 37.0566 51.7246L59.5298 62.724C59.8597 62.8855 60.2448 62.6453 60.2448 62.278V51.2251C60.2448 51.0308 60.1315 50.8543 59.9548 50.7735L37.4817 40.4875C37.1527 40.337 36.7783 40.5774 36.7783 40.9391V51.2786ZM39.2615 44.0331V50.0391L57.7615 59.0939V52.5006L39.2615 44.0331Z" fill="black"/>
<path d="M82.5938 40.7609C82.5938 40.3973 82.2159 40.157 81.8866 40.3111L59.5376 50.7723C59.363 50.8541 59.2515 51.0294 59.2515 51.2221V62.2705C59.2515 62.6396 59.64 62.8798 59.9702 62.7147L82.3192 51.5402C82.4875 51.456 82.5938 51.2841 82.5938 51.096V40.7609Z" fill="white"/>
<path fill-rule="evenodd" clip-rule="evenodd" d="M82.5938 51.096C82.5938 51.2841 82.4875 51.456 82.3192 51.5402L59.9702 62.7147C59.64 62.8798 59.2515 62.6396 59.2515 62.2705V51.2221C59.2515 51.0294 59.363 50.8541 59.5376 50.7723L81.8866 40.3111C82.2159 40.157 82.5938 40.3973 82.5938 40.7609V51.096ZM80.1105 43.8842V49.8682L61.7347 59.0561V52.4857L80.1105 43.8842Z" fill="black"/>
<path fill-rule="evenodd" clip-rule="evenodd" d="M90.0439 37.9934C90.7296 37.9934 91.2855 38.5493 91.2855 39.235V55.376C91.2855 56.0617 90.7296 56.6176 90.0439 56.6176C89.3581 56.6176 88.8022 56.0617 88.8022 55.376V39.235C88.8022 38.5493 89.3581 37.9934 90.0439 37.9934Z" fill="black"/>
<path fill-rule="evenodd" clip-rule="evenodd" d="M90.6345 54.8152C91.2185 55.1746 91.4006 55.9394 91.0412 56.5234L88.3695 60.8649C88.0101 61.4489 87.2454 61.631 86.6614 61.2716C86.0774 60.9122 85.8953 60.1474 86.2547 59.5634L88.9264 55.2219C89.2858 54.6379 90.0505 54.4558 90.6345 54.8152Z" fill="black"/>
<path fill-rule="evenodd" clip-rule="evenodd" d="M89.364 54.8334C89.938 54.4582 90.7074 54.6192 91.0827 55.1931L93.9452 59.5711C94.3205 60.1451 94.1594 60.9145 93.5855 61.2898C93.0116 61.6651 92.2421 61.504 91.8669 60.9301L89.0043 56.5521C88.6291 55.9782 88.7901 55.2087 89.364 54.8334Z" fill="black"/>
<path fill-rule="evenodd" clip-rule="evenodd" d="M31.9359 101.564H87.0634C89.6692 101.564 91.7815 103.676 91.7815 106.282C91.7815 108.888 89.6692 111 87.0634 111H31.9359C29.3302 111 27.2178 108.888 27.2178 106.282C27.2178 103.676 29.3301 101.564 31.9359 101.564ZM31.9359 104.047C30.7016 104.047 29.701 105.048 29.701 106.282C29.701 107.516 30.7016 108.517 31.9359 108.517H87.0634C88.2977 108.517 89.2983 107.516 89.2983 106.282C89.2983 105.048 88.2977 104.047 87.0634 104.047H31.9359Z" fill="black"/>
<path fill-rule="evenodd" clip-rule="evenodd" d="M48.5737 86.416H70.4261V104.047H48.5737V86.416ZM51.057 88.8992V101.564H67.9429V88.8992H51.057Z" fill="black"/>
<path fill-rule="evenodd" clip-rule="evenodd" d="M50.0635 78.2216C50.0635 77.5359 50.6194 76.98 51.3051 76.98H67.446C68.1317 76.98 68.6876 77.5359 68.6876 78.2216C68.6876 78.9073 68.1317 79.4632 67.446 79.4632H51.3051C50.6194 79.4632 50.0635 78.9073 50.0635 78.2216Z" fill="black"/>
</svg>
