<svg width="18" height="17" viewBox="0 0 18 17" fill="none" xmlns="http://www.w3.org/2000/svg">
<path fill-rule="evenodd" clip-rule="evenodd" d="M13.5558 1.41504H2.41784C1.3875 1.41504 0.803872 2.59159 1.43025 3.40694L6.12841 9.46939V13.8063L9.13516 12.5046C9.58807 12.3076 9.84581 11.8615 9.84581 11.3696V9.46939C9.84581 9.46939 11.2775 7.62212 12.1949 6.43847C13.1123 5.25483 14.544 3.40756 14.544 3.40756C15.1697 2.59159 14.5861 1.41504 13.5558 1.41504Z" fill="white" stroke="#5C5D5F" stroke-width="1.6" stroke-linecap="round" stroke-linejoin="round"/>
<path fill-rule="evenodd" clip-rule="evenodd" d="M12.75 16.0547C9.85057 16.0547 7.5 13.7041 7.5 10.8047C7.5 7.90526 9.85057 5.55469 12.75 5.55469C15.6494 5.55469 18 7.90526 18 10.8047C18 13.7041 15.6494 16.0547 12.75 16.0547Z" fill="#D85564"/>
<path fill-rule="evenodd" clip-rule="evenodd" d="M14.8278 8.72681C15.0574 8.95633 15.0574 9.32848 14.8279 9.55804L11.5034 12.8831C11.2739 13.1126 10.9018 13.1127 10.6722 12.8832C10.4426 12.6536 10.4426 12.2815 10.6721 12.0519L13.9966 8.72688C14.2261 8.49732 14.5982 8.49729 14.8278 8.72681Z" fill="white"/>
<path fill-rule="evenodd" clip-rule="evenodd" d="M10.6722 8.72681C10.9018 8.49729 11.2739 8.49732 11.5034 8.72688L14.8279 12.0519C15.0574 12.2815 15.0574 12.6536 14.8278 12.8832C14.5982 13.1127 14.2261 13.1126 13.9966 12.8831L10.6721 9.55804C10.4426 9.32848 10.4426 8.95633 10.6722 8.72681Z" fill="white"/>
</svg>
