<svg width="17" height="16" viewBox="0 0 17 16" fill="none" xmlns="http://www.w3.org/2000/svg">
<g clip-path="url(#clip0_19672_11122)">
<path fill-rule="evenodd" clip-rule="evenodd" d="M4.00158 1.57198C4.19684 1.37672 4.51342 1.37672 4.70868 1.57198L7.89066 4.75396C8.08592 4.94923 8.08592 5.26581 7.89066 5.46107C7.6954 5.65633 7.37882 5.65633 7.18356 5.46107L4.85513 3.13264L4.85513 14.0745C4.85513 14.3506 4.63127 14.5745 4.35513 14.5745C4.07899 14.5745 3.85513 14.3506 3.85513 14.0745L3.85513 3.13264L1.5267 5.46107C1.33144 5.65633 1.01486 5.65633 0.819595 5.46107C0.624332 5.26581 0.624332 4.94923 0.819595 4.75396L4.00158 1.57198Z" fill="#6E55D5"/>
<path fill-rule="evenodd" clip-rule="evenodd" d="M14.8907 11.246L11.7087 14.428C11.5134 14.6233 11.1968 14.6233 11.0016 14.428L7.81959 11.246C7.62433 11.0508 7.62433 10.7342 7.81959 10.5389C8.01486 10.3437 8.33144 10.3437 8.5267 10.5389L10.8551 12.8674L10.8551 1.92554C10.8551 1.64939 11.079 1.42554 11.3551 1.42554C11.6313 1.42554 11.8551 1.64939 11.8551 1.92554L11.8551 12.8674L14.1836 10.5389C14.3788 10.3437 14.6954 10.3437 14.8907 10.5389C15.0859 10.7342 15.0859 11.0508 14.8907 11.246Z" fill="#6E55D5"/>
</g>
<defs>
<clipPath id="clip0_19672_11122">
<rect width="16" height="16" fill="white" transform="translate(0.25)"/>
</clipPath>
</defs>
</svg>
