<svg width="17" height="16" viewBox="0 0 17 16" fill="none" xmlns="http://www.w3.org/2000/svg">
<g clip-path="url(#clip0_24624_27154)">
<path fill-rule="evenodd" clip-rule="evenodd" d="M4.25255 1.57198C4.44781 1.37672 4.7644 1.37672 4.95966 1.57198L8.14164 4.75396C8.3369 4.94923 8.3369 5.26581 8.14164 5.46107C7.94638 5.65633 7.62979 5.65633 7.43453 5.46107L5.10611 3.13264L5.1061 14.0745C5.1061 14.3506 4.88225 14.5745 4.6061 14.5745C4.32996 14.5745 4.1061 14.3506 4.1061 14.0745L4.10611 3.13264L1.77768 5.46107C1.58242 5.65633 1.26583 5.65633 1.07057 5.46107C0.875309 5.26581 0.875309 4.94923 1.07057 4.75396L4.25255 1.57198Z" fill="#6E55D5"/>
<path fill-rule="evenodd" clip-rule="evenodd" d="M15.1416 11.246L11.9597 14.428C11.7644 14.6233 11.4478 14.6233 11.2526 14.428L8.07057 11.246C7.87531 11.0508 7.87531 10.7342 8.07057 10.5389C8.26583 10.3437 8.58242 10.3437 8.77768 10.5389L11.1061 12.8674L11.1061 1.92554C11.1061 1.64939 11.33 1.42554 11.6061 1.42554C11.8822 1.42554 12.1061 1.64939 12.1061 1.92554L12.1061 12.8674L14.4345 10.5389C14.6298 10.3437 14.9464 10.3437 15.1416 10.5389C15.3369 10.7342 15.3369 11.0508 15.1416 11.246Z" fill="#6E55D5"/>
</g>
<defs>
<clipPath id="clip0_24624_27154">
<rect width="16" height="16" fill="white" transform="translate(0.5)"/>
</clipPath>
</defs>
</svg>
