<svg width="22" height="23" viewBox="0 0 22 23" fill="none" xmlns="http://www.w3.org/2000/svg">
<path d="M11 22.5C4.9247 22.5 0 17.5753 0 11.5C0 5.4247 4.9247 0.5 11 0.5C17.0753 0.5 22 5.4247 22 11.5C22 17.5753 17.0753 22.5 11 22.5ZM11 20.3C13.3339 20.3 15.5722 19.3729 17.2225 17.7225C18.8729 16.0722 19.8 13.8339 19.8 11.5C19.8 9.16609 18.8729 6.92778 17.2225 5.27746C15.5722 3.62714 13.3339 2.7 11 2.7C8.66609 2.7 6.42778 3.62714 4.77746 5.27746C3.12714 6.92778 2.2 9.16609 2.2 11.5C2.2 13.8339 3.12714 16.0722 4.77746 17.7225C6.42778 19.3729 8.66609 20.3 11 20.3ZM9.9 6H12.1V8.2H9.9V6ZM9.9 10.4H12.1V17H9.9V10.4Z" fill="#F6BC0C"/>
</svg>
