<svg width="30" height="30" viewBox="0 0 30 30" fill="none" xmlns="http://www.w3.org/2000/svg">
<rect width="30" height="30" rx="8" fill="#D85564"/>
<path d="M7.17822 6.46982C7.17822 5.86732 7.66716 5.37891 8.27029 5.37891H20.3857C20.9888 5.37891 21.4777 5.86732 21.4777 6.46982V22.7847C21.4777 23.3872 20.9888 23.8756 20.3857 23.8756H8.27029C7.66716 23.8756 7.17822 23.3872 7.17822 22.7847V6.46982Z" fill="white"/>
<path fill-rule="evenodd" clip-rule="evenodd" d="M8.27031 4.76562H20.3857C21.3281 4.76562 22.092 5.52878 22.092 6.47017V22.7851C22.092 23.7265 21.3281 24.4896 20.3857 24.4896H8.27031C7.32792 24.4896 6.56396 23.7265 6.56396 22.7851V6.47017C6.56396 5.52878 7.32792 4.76562 8.27031 4.76562ZM8.27031 5.37926C7.66718 5.37926 7.17825 5.86768 7.17825 6.47017V22.7851C7.17825 23.3876 7.66718 23.876 8.27031 23.876H20.3857C20.9888 23.876 21.4778 23.3876 21.4778 22.7851V6.47017C21.4778 5.86768 20.9888 5.37926 20.3857 5.37926H8.27031Z" fill="#1B1C1E"/>
<path fill-rule="evenodd" clip-rule="evenodd" d="M8.8667 10.7376C8.8667 10.3798 9.157 10.0898 9.51511 10.0898H11.0824C11.4405 10.0898 11.7308 10.3798 11.7308 10.7376V12.3032C11.7308 12.661 11.4405 12.9509 11.0824 12.9509H9.51511C9.157 12.9509 8.8667 12.661 8.8667 12.3032V10.7376ZM9.51511 10.7035C9.49626 10.7035 9.48098 10.7187 9.48098 10.7376V12.3032C9.48098 12.3221 9.49626 12.3373 9.51511 12.3373H11.0824C11.1013 12.3373 11.1165 12.3221 11.1165 12.3032V10.7376C11.1165 10.7187 11.1013 10.7035 11.0824 10.7035H9.51511Z" fill="#1B1C1E"/>
<path fill-rule="evenodd" clip-rule="evenodd" d="M12.7817 10.3508C12.7817 10.1813 12.9193 10.0439 13.0889 10.0439H16.5031C16.6728 10.0439 16.8103 10.1813 16.8103 10.3508C16.8103 10.5202 16.6728 10.6576 16.5031 10.6576H13.0889C12.9193 10.6576 12.7817 10.5202 12.7817 10.3508Z" fill="#1B1C1E"/>
<path fill-rule="evenodd" clip-rule="evenodd" d="M8.72607 17.3674C8.72607 17.1979 8.86359 17.0605 9.03322 17.0605H12.4475C12.6171 17.0605 12.7546 17.1979 12.7546 17.3674C12.7546 17.5368 12.6171 17.6742 12.4475 17.6742H9.03322C8.86359 17.6742 8.72607 17.5368 8.72607 17.3674Z" fill="#1B1C1E"/>
<path fill-rule="evenodd" clip-rule="evenodd" d="M12.7817 12.6974C12.7817 12.528 12.9193 12.3906 13.0889 12.3906H15.8898C16.0594 12.3906 16.1969 12.528 16.1969 12.6974C16.1969 12.8669 16.0594 13.0043 15.8898 13.0043H13.0889C12.9193 13.0043 12.7817 12.8669 12.7817 12.6974Z" fill="#1B1C1E"/>
<path fill-rule="evenodd" clip-rule="evenodd" d="M8.72607 19.7238C8.72607 19.5544 8.86359 19.417 9.03322 19.417H11.8341C12.0037 19.417 12.1412 19.5544 12.1412 19.7238C12.1412 19.8933 12.0037 20.0306 11.8341 20.0306H9.03322C8.86359 20.0306 8.72607 19.8933 8.72607 19.7238Z" fill="#1B1C1E"/>
<path fill-rule="evenodd" clip-rule="evenodd" d="M8.72607 15.0646C8.72607 14.8952 8.86359 14.7578 9.03322 14.7578H15.3957C15.5653 14.7578 15.7028 14.8952 15.7028 15.0646C15.7028 15.2341 15.5653 15.3714 15.3957 15.3714H9.03322C8.86359 15.3714 8.72607 15.2341 8.72607 15.0646Z" fill="#1B1C1E"/>
<path fill-rule="evenodd" clip-rule="evenodd" d="M8.72607 22.0617C8.72607 21.8922 8.86359 21.7549 9.03322 21.7549H13.5309C13.7005 21.7549 13.8381 21.8922 13.8381 22.0617C13.8381 22.2312 13.7005 22.3685 13.5309 22.3685H9.03322C8.86359 22.3685 8.72607 22.2312 8.72607 22.0617Z" fill="#1B1C1E"/>
<path d="M17.1986 13.3442V19.4356L17.1977 19.4347L15.8337 18.0721C15.654 17.8926 14.8356 17.3277 14.1836 17.979C13.6619 18.5001 13.9041 19.2951 14.0904 19.6274C14.7691 20.5314 16.4245 22.6371 17.6169 23.8282C18.8092 25.0193 20.3263 25.0798 20.9074 25.0089C23.1713 24.4781 24.5573 23.0012 24.6527 20.1517C24.6527 19.2861 24.6082 17.5222 24.5844 17.4034C24.5535 17.2485 24.395 16.3889 23.6447 16.3889C23.0444 16.3889 22.7781 17.0198 22.72 17.3353L22.72 17.3168C22.7201 16.7114 22.7201 15.9683 22.1685 15.7247C22.0693 15.6809 21.9554 15.6545 21.8257 15.6545C21.2557 15.6545 20.9768 16.1744 20.9086 16.4343C20.9086 15.9314 20.9075 15.3638 20.5247 15.0372C20.3916 14.9236 20.2227 14.8444 20.0143 14.8444C19.4625 14.8444 19.1675 15.3996 19.089 15.6772V13.1628C19.089 12.3482 18.9743 11.2762 18.1589 11.2628C17.2831 11.2485 17.1986 12.4693 17.1986 13.3442Z" fill="white"/>
<path fill-rule="evenodd" clip-rule="evenodd" d="M17.6432 12.0627C17.5282 12.4259 17.5057 12.9073 17.5057 13.3444V19.4358C17.5057 19.5609 17.4297 19.6735 17.3135 19.7203C17.1979 19.7669 17.0657 19.7391 16.9787 19.6501L15.6165 18.2892C15.5578 18.2306 15.3541 18.0766 15.1066 18.0106C14.8772 17.9495 14.6315 17.9656 14.4007 18.1962C14.2199 18.3768 14.163 18.6091 14.178 18.8555C14.1928 19.097 14.2765 19.3252 14.3492 19.4609C15.035 20.3731 16.6658 22.4444 17.834 23.6114C18.9251 24.7013 20.3158 24.7674 20.8539 24.7064C21.9293 24.4515 22.7692 23.9794 23.3545 23.257C23.9425 22.5311 24.2987 21.5212 24.3455 20.1467C24.3454 19.7175 24.3344 19.066 24.3204 18.5053C24.3134 18.224 24.3056 17.9669 24.2982 17.7731C24.2944 17.6761 24.2908 17.5962 24.2875 17.5377C24.2855 17.5021 24.2838 17.4806 24.283 17.4696C24.2822 17.4592 24.2821 17.4581 24.2831 17.463L24.2823 17.459C24.266 17.3772 24.2255 17.1747 24.1192 16.9932C24.0162 16.8174 23.8749 16.6959 23.6446 16.6959C23.4685 16.6959 23.334 16.7834 23.2242 16.9287C23.1177 17.0698 23.0534 17.2442 23.0271 17.3657V18.0623H22.4129L22.4129 17.3169C22.4129 17.0058 22.4114 16.7063 22.3522 16.4557C22.2946 16.2118 22.1967 16.0728 22.0443 16.0055C21.984 15.9789 21.9124 15.9615 21.8257 15.9615C21.6452 15.9615 21.5103 16.0404 21.4051 16.1547C21.3075 16.2608 21.2452 16.3885 21.2157 16.4784V18.0093H20.6015V16.4345C20.6015 16.1772 20.6002 15.9401 20.5588 15.7288C20.5183 15.5224 20.4453 15.3731 20.3252 15.2707C20.2381 15.1964 20.1379 15.1514 20.0143 15.1514C19.8529 15.1514 19.7189 15.2297 19.6049 15.3593C19.501 15.4776 19.4309 15.621 19.3961 15.7237V18.0356H18.7818V13.1629C18.7818 12.7608 18.7522 12.3336 18.6399 12.0142C18.5846 11.8569 18.5162 11.7465 18.4404 11.6769C18.371 11.6132 18.2833 11.5719 18.1539 11.5698C18.0154 11.5675 17.9245 11.6108 17.8524 11.6801C17.772 11.7575 17.7 11.883 17.6432 12.0627ZM19.3961 14.7297V13.1629C19.3961 12.7504 19.3684 12.2344 19.2195 11.8108C19.1442 11.5966 19.031 11.3856 18.856 11.225C18.6746 11.0585 18.4422 10.9608 18.1639 10.9562C17.8645 10.9513 17.6164 11.0553 17.4263 11.2381C17.2446 11.413 17.1312 11.6447 17.0575 11.8777C16.9112 12.34 16.8914 12.9065 16.8914 13.3444V18.695L16.0508 17.8553C15.9298 17.7344 15.6345 17.5163 15.2649 17.4177C14.8772 17.3144 14.3876 17.3414 13.9663 17.7623C13.6255 18.1027 13.5427 18.5284 13.5649 18.8929C13.5868 19.252 13.7107 19.5783 13.8224 19.7775C13.829 19.7894 13.8365 19.8008 13.8446 19.8117C14.5241 20.7167 16.1907 22.8376 17.3997 24.0453C18.6822 25.3265 20.3083 25.3912 20.9446 25.3136C20.9557 25.3123 20.9667 25.3103 20.9775 25.3078C22.1581 25.031 23.1374 24.5003 23.832 23.643C24.526 22.7863 24.9104 21.6345 24.9596 20.1621C24.9597 20.1614 24.9597 20.1608 24.9597 20.1601C24.9598 20.1573 24.9598 20.1546 24.9598 20.1519C24.9598 19.7153 24.9486 19.0551 24.9345 18.49C24.9274 18.2073 24.9196 17.9471 24.912 17.7496C24.9082 17.6511 24.9044 17.5669 24.9008 17.5028C24.8979 17.4511 24.8938 17.3846 24.8856 17.3435C24.885 17.3405 24.8843 17.3372 24.8836 17.3335C24.8659 17.2436 24.809 16.9557 24.6494 16.6832C24.4778 16.3905 24.1647 16.0822 23.6446 16.0822C23.3588 16.0822 23.1299 16.1858 22.9535 16.3295C22.9524 16.3246 22.9512 16.3197 22.9501 16.3148C22.8698 15.9748 22.6919 15.6205 22.2926 15.4442C22.1546 15.3833 21.9984 15.3478 21.8257 15.3478C21.5522 15.3478 21.328 15.4371 21.1517 15.5631C21.0921 15.2931 20.9723 15.0158 20.7242 14.8041C20.5451 14.6512 20.3076 14.5377 20.0143 14.5377C19.7684 14.5377 19.5626 14.6168 19.3961 14.7297Z" fill="#1B1C1E"/>
<rect x="5.6958" y="5.31836" width="13.3307" height="2.62127" fill="white"/>
<path fill-rule="evenodd" clip-rule="evenodd" d="M5.69973 6.40796V7.43785C5.69973 7.62232 5.76974 7.7329 5.84981 7.80543C5.93012 7.87819 6.02712 7.91713 6.09029 7.93131L10.9808 7.93325C11.1504 7.93331 11.2878 8.07074 11.2878 8.24019C11.2877 8.40964 11.1501 8.54695 10.9805 8.54688L6.06151 8.54494C6.04533 8.54493 6.02918 8.54365 6.0132 8.5411C5.85132 8.51528 5.62667 8.43167 5.43716 8.25999C5.23846 8.08 5.08545 7.80823 5.08545 7.43785V6.39752C5.08545 6.39119 5.08564 6.38487 5.08604 6.37856C5.10368 6.09392 5.23084 5.69233 5.54814 5.35865C5.87395 5.016 6.37967 4.7666 7.10939 4.7666H20.4587C20.6284 4.7666 20.7659 4.90397 20.7659 5.07342C20.7659 5.24287 20.6284 5.38024 20.4587 5.38024C20.2103 5.38024 19.8726 5.4705 19.6037 5.66231C19.3438 5.84769 19.1627 6.11486 19.1627 6.48575V7.63993C19.1728 7.78292 19.1454 7.98667 19.0208 8.16601C18.8789 8.37031 18.6396 8.50124 18.3127 8.50124H14.5304C14.3608 8.50124 14.2233 8.36388 14.2233 8.19442C14.2233 8.02497 14.3608 7.88761 14.5304 7.88761H18.3127C18.392 7.88761 18.4385 7.87269 18.4642 7.85999C18.4892 7.84769 18.5047 7.83262 18.5161 7.81616C18.5437 7.77644 18.5532 7.71784 18.5497 7.68061C18.5489 7.67116 18.5484 7.66168 18.5484 7.65219V6.48575C18.5484 6.01833 18.7325 5.65071 18.9937 5.38024H7.10939C6.53132 5.38024 6.19231 5.5722 5.99352 5.78126C5.78991 5.99539 5.71167 6.25043 5.69973 6.40796Z" fill="#1B1C1E"/>
<ellipse cx="12.7274" cy="8.10152" rx="0.402725" ry="0.402299" fill="#1B1C1E"/>
</svg>
