<svg width="40" height="41" viewBox="0 0 40 41" fill="none" xmlns="http://www.w3.org/2000/svg">
<circle cx="20" cy="20.5" r="20" fill="#E6E8F0"/>
<path d="M27 20.4219C26.9902 20.774 26.863 21.0959 26.589 21.3574L18.9765 29.0019C18.7613 29.2232 18.4873 29.3439 18.1644 29.3439C17.5186 29.3439 17 28.8208 17 28.157C17 27.8351 17.1272 27.5233 17.3523 27.2919L24.2113 20.432L17.3523 13.5519C17.137 13.3206 17 13.0188 17 12.6869C17 12.023 17.5186 11.5 18.1644 11.5C18.4873 11.5 18.7613 11.6207 18.9765 11.842L26.589 19.4965C26.863 19.7681 27 20.0699 27 20.4219Z" fill="#1B1C1E"/>
</svg>
