<svg width="40" height="41" viewBox="0 0 40 41" fill="none" xmlns="http://www.w3.org/2000/svg">
  <circle cx="20" cy="20.5" r="20" fill="#E6E8F0"/>
  <path d="M13 20.4219C13.0098 20.774 13.137 21.0959 13.411 21.3574L20.0235 29.0019C20.2387 29.2232 20.5127 29.3439 20.8356 29.3439C21.4814 29.3439 22 28.8208 22 28.157C22 27.8351 21.8728 27.5233 21.6477 27.2919L14.7887 20.432L21.6477 13.5519C21.863 13.3206 22 13.0188 22 12.6869C22 12.023 21.4814 11.5 20.8356 11.5C20.5127 11.5 20.2387 11.6207 20.0235 11.842L13.411 19.4965C13.137 19.7681 13 20.0699 13 20.4219Z" fill="#1B1C1E"/>
</svg>