<svg width="111" height="95" viewBox="0 0 111 95" fill="none" xmlns="http://www.w3.org/2000/svg">
<path d="M8.96889 5.87492L13.8746 0.969238L102.03 89.1254L97.1248 94.0308L8.96889 5.87492ZM8.39437 38.13C2.90291 43.138 0 49.9757 0 57.9062C0 65.7109 3.11754 72.8391 8.77811 77.9794C14.2305 82.931 21.5843 85.6562 29.4844 85.6562H78.9401L23.9582 30.6743C17.8857 31.8428 12.4485 34.4314 8.39437 38.13ZM103.323 80.2861C108.346 76.2862 111 70.3481 111 63.1093C111 49.7004 100.498 42.4399 89.8081 40.8573C88.3946 31.9296 84.5941 24.294 78.7276 18.6443C72.4888 12.642 64.1573 9.30599 55.5 9.34367C48.8942 9.34367 42.7307 11.2125 37.4907 14.7636L103.141 80.4227C103.195 80.3772 103.265 80.3338 103.323 80.2861Z" fill="#1B1C1E"/>
</svg>
