<svg width="31" height="31" viewBox="0 0 31 31" fill="none" xmlns="http://www.w3.org/2000/svg">
<rect x="0.743164" y="0.99707" width="30" height="30" rx="8" fill="#1055EB"/>
<g clip-path="url(#clip0_10947_53819)">
<path d="M8.19758 9.24669L8.99309 8.45117L23.2886 22.7468L22.4931 23.5422L8.19758 9.24669ZM8.10441 14.4772C7.21391 15.2893 6.74316 16.3982 6.74316 17.6842C6.74316 18.9498 7.24871 20.1057 8.16664 20.9393C9.05082 21.7423 10.2433 22.1842 11.5244 22.1842H19.5443L10.6283 13.2682C9.64355 13.4577 8.76184 13.8775 8.10441 14.4772ZM23.4983 21.3134C24.3129 20.6647 24.7432 19.7018 24.7432 18.5279C24.7432 16.3535 23.0402 15.1761 21.3066 14.9195C21.0774 13.4718 20.4611 12.2336 19.5098 11.3174C18.4981 10.3441 17.147 9.80308 15.7432 9.80919C14.672 9.80919 13.6725 10.1122 12.8227 10.6881L23.4688 21.3355C23.4775 21.3281 23.4888 21.3211 23.4983 21.3134Z" fill="white"/>
</g>
<defs>
<clipPath id="clip0_10947_53819">
<rect width="18" height="18" fill="white" transform="translate(6.74316 6.99707)"/>
</clipPath>
</defs>
</svg>
