<svg width="31" height="31" viewBox="0 0 31 31" fill="none" xmlns="http://www.w3.org/2000/svg">
<rect x="0.743164" y="0.99707" width="30" height="30" rx="8" fill="#D85564"/>
<rect x="13.7383" y="21.2432" width="3.2014" height="2.08091" fill="white"/>
<rect x="10.5361" y="23.4844" width="9.76428" height="0.960421" fill="white"/>
<path d="M5.89453 7.6728C5.89453 7.29961 6.19707 6.99707 6.57026 6.99707H24.2188C24.592 6.99707 24.8945 7.29961 24.8945 7.6728V20.5515C24.8945 20.9247 24.592 21.2272 24.2188 21.2272H6.57026C6.19707 21.2272 5.89453 20.9247 5.89453 20.5515V7.6728Z" fill="#01B58A"/>
<path fill-rule="evenodd" clip-rule="evenodd" d="M24.2188 7.39456H6.57026C6.41659 7.39456 6.29202 7.51913 6.29202 7.6728V20.5515C6.29202 20.7051 6.41659 20.8297 6.57026 20.8297H24.2188C24.3725 20.8297 24.497 20.7051 24.497 20.5515V7.6728C24.497 7.51913 24.3725 7.39456 24.2188 7.39456ZM6.57026 6.99707C6.19707 6.99707 5.89453 7.29961 5.89453 7.6728V20.5515C5.89453 20.9247 6.19707 21.2272 6.57026 21.2272H24.2188C24.592 21.2272 24.8945 20.9247 24.8945 20.5515V7.6728C24.8945 7.29961 24.592 6.99707 24.2188 6.99707H6.57026Z" fill="#1B1C1E"/>
<path d="M5.89453 7.6728C5.89453 7.29961 6.19707 6.99707 6.57026 6.99707H24.2188C24.592 6.99707 24.8945 7.29961 24.8945 7.6728V18.4845H5.89453V7.6728Z" fill="white"/>
<path fill-rule="evenodd" clip-rule="evenodd" d="M24.2188 7.39456H6.57026C6.41659 7.39456 6.29202 7.51913 6.29202 7.6728V18.087H24.497V7.6728C24.497 7.51913 24.3725 7.39456 24.2188 7.39456ZM6.57026 6.99707C6.19707 6.99707 5.89453 7.29961 5.89453 7.6728V18.4845H24.8945V7.6728C24.8945 7.29961 24.592 6.99707 24.2188 6.99707H6.57026Z" fill="#1B1C1E"/>
<path d="M7.24609 8.42784C7.24609 8.36198 7.29948 8.30859 7.36534 8.30859H23.4239C23.4898 8.30859 23.5432 8.36198 23.5432 8.42784V18.3651C23.5432 18.4309 23.4898 18.4843 23.4239 18.4843H7.36534C7.29948 18.4843 7.24609 18.4309 7.24609 18.3651V8.42784Z" fill="white"/>
<path fill-rule="evenodd" clip-rule="evenodd" d="M7.64358 8.70608V18.0868H23.1457V8.70608H7.64358ZM7.36534 8.30859C7.29948 8.30859 7.24609 8.36198 7.24609 8.42784V18.3651C7.24609 18.4309 7.29948 18.4843 7.36534 18.4843H23.4239C23.4898 18.4843 23.5432 18.4309 23.5432 18.3651V8.42784C23.5432 8.36198 23.4898 8.30859 23.4239 8.30859H7.36534Z" fill="#1B1C1E"/>
<path d="M10.657 13.2491C10.5964 13.2206 10.596 13.1346 10.6563 13.1055L15.3812 10.8292C15.4025 10.8189 15.4272 10.8187 15.4487 10.8285L20.4413 13.1048C20.5037 13.1332 20.5032 13.2219 20.4406 13.2498L15.448 15.4687C15.4269 15.4781 15.4028 15.4779 15.3819 15.4681L10.657 13.2491Z" fill="white"/>
<path fill-rule="evenodd" clip-rule="evenodd" d="M10.657 13.2491C10.5964 13.2206 10.596 13.1346 10.6563 13.1055L15.3812 10.8292C15.4025 10.8189 15.4272 10.8187 15.4487 10.8285L20.4413 13.1048C20.5037 13.1332 20.5032 13.2219 20.4406 13.2498L15.448 15.4687C15.4269 15.4781 15.4028 15.4779 15.3819 15.4681L10.657 13.2491ZM11.4311 13.1735L15.4193 15.0465L19.6337 13.1734L15.4194 11.252L11.4311 13.1735Z" fill="#1B1C1E"/>
<path d="M11.7578 13.5503C11.7578 13.4924 11.8177 13.4539 11.8704 13.478L15.4677 15.1245C15.496 15.1374 15.5141 15.1657 15.5141 15.1968V16.966C15.5141 17.0248 15.4525 17.0633 15.3996 17.0374L11.8024 15.2767C11.7751 15.2634 11.7578 15.2357 11.7578 15.2053V13.5503Z" fill="white"/>
<path fill-rule="evenodd" clip-rule="evenodd" d="M11.7578 15.2053C11.7578 15.2357 11.7751 15.2634 11.8024 15.2767L15.3996 17.0374C15.4525 17.0633 15.5141 17.0248 15.5141 16.966V15.1968C15.5141 15.1657 15.496 15.1374 15.4677 15.1245L11.8704 13.478C11.8177 13.4539 11.7578 13.4924 11.7578 13.5503V15.2053ZM12.1553 14.0456V15.0069L15.1166 16.4563V15.4009L12.1553 14.0456Z" fill="#1B1C1E"/>
<path d="M19.0918 13.522C19.0918 13.4638 19.0313 13.4253 18.9786 13.45L15.4012 15.1245C15.3732 15.1376 15.3554 15.1657 15.3554 15.1965V16.965C15.3554 17.0241 15.4176 17.0625 15.4704 17.0361L19.0479 15.2474C19.0748 15.2339 19.0918 15.2064 19.0918 15.1763V13.522Z" fill="white"/>
<path fill-rule="evenodd" clip-rule="evenodd" d="M19.0918 15.1763C19.0918 15.2064 19.0748 15.2339 19.0479 15.2474L15.4704 17.0361C15.4176 17.0625 15.3554 17.0241 15.3554 16.965V15.1965C15.3554 15.1657 15.3732 15.1376 15.4012 15.1245L18.9786 13.45C19.0313 13.4253 19.0918 13.4638 19.0918 13.522V15.1763ZM18.6943 14.0219V14.9798L15.7529 16.4505V15.3988L18.6943 14.0219Z" fill="#1B1C1E"/>
<path fill-rule="evenodd" clip-rule="evenodd" d="M20.2847 13.0791C20.3944 13.0791 20.4834 13.1681 20.4834 13.2778V15.8615C20.4834 15.9713 20.3944 16.0603 20.2847 16.0603C20.1749 16.0603 20.0859 15.9713 20.0859 15.8615V13.2778C20.0859 13.1681 20.1749 13.0791 20.2847 13.0791Z" fill="#1B1C1E"/>
<path fill-rule="evenodd" clip-rule="evenodd" d="M20.379 15.7717C20.4725 15.8292 20.5017 15.9516 20.4441 16.0451L20.0165 16.7401C19.9589 16.8336 19.8365 16.8627 19.743 16.8052C19.6496 16.7476 19.6204 16.6252 19.6779 16.5317L20.1056 15.8368C20.1631 15.7433 20.2856 15.7142 20.379 15.7717Z" fill="#1B1C1E"/>
<path fill-rule="evenodd" clip-rule="evenodd" d="M20.1759 15.7746C20.2678 15.7145 20.391 15.7403 20.451 15.8322L20.9093 16.533C20.9693 16.6248 20.9435 16.748 20.8517 16.8081C20.7598 16.8682 20.6366 16.8424 20.5766 16.7505L20.1184 16.0497C20.0583 15.9578 20.0841 15.8347 20.1759 15.7746Z" fill="#1B1C1E"/>
<path fill-rule="evenodd" clip-rule="evenodd" d="M10.9828 23.2539H19.807C20.2241 23.2539 20.5623 23.592 20.5623 24.0091C20.5623 24.4262 20.2241 24.7644 19.807 24.7644H10.9828C10.5657 24.7644 10.2275 24.4262 10.2275 24.0091C10.2275 23.592 10.5657 23.2539 10.9828 23.2539ZM10.9828 23.6514C10.7852 23.6514 10.625 23.8116 10.625 24.0091C10.625 24.2067 10.7852 24.3669 10.9828 24.3669H19.807C20.0046 24.3669 20.1648 24.2067 20.1648 24.0091C20.1648 23.8116 20.0046 23.6514 19.807 23.6514H10.9828Z" fill="#1B1C1E"/>
<path fill-rule="evenodd" clip-rule="evenodd" d="M13.6455 20.8301H17.1434V23.6523H13.6455V20.8301ZM14.043 21.2276V23.2548H16.7459V21.2276H14.043Z" fill="#1B1C1E"/>
<path fill-rule="evenodd" clip-rule="evenodd" d="M13.8838 19.5181C13.8838 19.4083 13.9728 19.3193 14.0825 19.3193H16.6662C16.776 19.3193 16.865 19.4083 16.865 19.5181C16.865 19.6278 16.776 19.7168 16.6662 19.7168H14.0825C13.9728 19.7168 13.8838 19.6278 13.8838 19.5181Z" fill="#1B1C1E"/>
</svg>
