<svg width="26" height="26" viewBox="0 0 26 26" fill="none" xmlns="http://www.w3.org/2000/svg">
<rect width="26" height="26" fill="#E5E5E5"/>
<g clip-path="url(#clip0_851_64847)">
<rect width="1024" height="800" transform="translate(-783 -52)" fill="#F5F5F5"/>
<rect x="0.334961" y="0.942383" width="25.6572" height="25" rx="6" fill="white"/>
<rect x="0.334961" y="0.942383" width="25.6572" height="25" rx="5" fill="#DEDEDE"/>
<path d="M16.3908 9.54201C16.3908 11.1639 15.1992 12.4174 13.781 12.4174C12.3628 12.4174 11.1712 11.1639 11.1647 9.55493C11.1647 7.9783 12.3692 6.74414 13.781 6.74414C15.1863 6.74414 16.3908 7.95892 16.3908 9.54201Z" fill="#9A9A9A"/>
<path d="M11.0158 14.1685C11.7864 13.8002 12.7189 13.5611 13.7745 13.5611C17.1355 13.5611 19.2466 15.8485 19.2466 17.5091C19.2466 18.1036 18.8775 18.4267 17.8155 18.4267H12.4016C12.4923 18.1036 12.5376 17.7547 12.5376 17.4058C12.5376 16.1134 11.9418 14.9504 11.0158 14.1685Z" fill="#9A9A9A"/>
<path d="M11.618 17.4058C11.618 19.2279 10.0897 20.7399 8.27649 20.7399C6.45029 20.7399 4.94141 19.2344 4.94141 17.4058C4.94141 15.5836 6.45029 14.078 8.27649 14.078C10.1092 14.078 11.618 15.5836 11.618 17.4058Z" fill="#9A9A9A"/>
<path d="M7.56825 18.6969C7.65236 18.7921 7.78134 18.8312 7.88788 18.8312C8.02807 18.8312 8.15705 18.7753 8.22434 18.6801L9.95148 16.3022C10.0076 16.2238 10.0356 16.1399 10.0356 16.0672C10.0356 15.8434 9.85054 15.6699 9.63184 15.6699C9.49165 15.6699 9.36829 15.7371 9.28978 15.8434L7.86545 17.8185L7.11964 17.0072C7.05235 16.9288 6.95141 16.8785 6.81683 16.8785C6.60374 16.8785 6.41309 17.0352 6.41309 17.2813C6.41309 17.3765 6.45234 17.4884 6.51402 17.5499L7.56825 18.6969Z" fill="#DEDEDE"/>
</g>
<defs>
<clipPath id="clip0_851_64847">
<rect width="1024" height="800" fill="white" transform="translate(-783 -52)"/>
</clipPath>
</defs>
</svg>
