<svg width="79" height="78" viewBox="0 0 79 78" fill="none" xmlns="http://www.w3.org/2000/svg">
<rect x="7.11255" y="11.65" width="50.243" height="65.0999" rx="3.75" fill="white" stroke="black" stroke-width="2.5"/>
<path fill-rule="evenodd" clip-rule="evenodd" d="M35.5769 7.05715C35.5769 8.90336 34.0802 10.4 32.234 10.4C30.3878 10.4 28.8912 8.90336 28.8912 7.05715C28.8912 5.21094 30.3878 3.71429 32.234 3.71429C34.0802 3.71429 35.5769 5.21094 35.5769 7.05715ZM39.2073 5.96597C38.6828 2.58654 35.7605 0 32.234 0C28.7076 0 25.7853 2.58654 25.2607 5.96597C25.161 5.95067 25.0596 5.94286 24.9575 5.94286H21.234C20.1294 5.94286 19.234 6.83829 19.234 7.94286V12.8572C19.234 13.9617 20.1294 14.8572 21.234 14.8572H43.2341C44.3386 14.8572 45.2341 13.9617 45.2341 12.8572V7.94286C45.2341 6.83829 44.3386 5.94286 43.2341 5.94286H39.5105C39.4084 5.94286 39.3071 5.95067 39.2073 5.96597Z" fill="black"/>
<rect x="12.5482" y="44.5714" width="20.0572" height="20.0571" rx="3" fill="black"/>
<rect x="39.2911" y="24.5143" width="11.1429" height="1.48571" rx="0.742857" fill="black"/>
<rect x="37.0626" y="29.7144" width="16.3429" height="1.48571" rx="0.742857" fill="black"/>
<rect x="37.0626" y="34.1714" width="16.3429" height="1.48571" rx="0.742857" fill="black"/>
<rect x="39.2911" y="49.7715" width="11.8857" height="1.48571" rx="0.742857" fill="black"/>
<rect x="37.0626" y="54.2285" width="8.91429" height="1.48571" rx="0.742857" fill="black"/>
<rect x="37.0626" y="58.6858" width="8.91429" height="1.48571" rx="0.742857" fill="black"/>
<rect x="19.234" y="69.0858" width="23.0286" height="1.48571" rx="0.742857" fill="black"/>
<rect x="1.4054" y="54.2285" width="1.48572" height="14.1143" rx="0.742858" fill="black"/>
<rect x="1.4054" y="47.5428" width="1.48572" height="3.71429" rx="0.742858" fill="black"/>
<rect x="61.577" y="14.1143" width="1.48572" height="2.97143" rx="0.742858" fill="black"/>
<rect x="61.577" y="20.0571" width="1.48572" height="11.8857" rx="0.742858" fill="black"/>
<rect x="12.5483" y="20.0571" width="20.0572" height="20.0571" rx="3" fill="black"/>
<path fill-rule="evenodd" clip-rule="evenodd" d="M24.8763 32.2891C24.3405 32.6503 23.6949 32.8611 23.0001 32.8611C21.1438 32.8611 19.639 31.3563 19.639 29.5C19.639 27.6437 21.1438 26.1389 23.0001 26.1389C24.8564 26.1389 26.3612 27.6437 26.3612 29.5C26.3612 30.1305 26.1876 30.7205 25.8855 31.2248L24.1536 29.6182C23.8649 29.3504 23.4138 29.3674 23.146 29.656L23.1183 29.6859C22.8505 29.9746 22.8675 30.4257 23.1562 30.6935L24.8763 32.2891ZM26.4701 33.7675C25.5236 34.538 24.3158 35 23.0001 35C19.9626 35 17.5001 32.5376 17.5001 29.5C17.5001 26.4624 19.9626 24 23.0001 24C26.0377 24 28.5001 26.4624 28.5001 29.5C28.5001 30.6932 28.1202 31.7976 27.4747 32.6989L28.1212 33.2985C28.4098 33.5663 28.4268 34.0174 28.159 34.3061L28.1313 34.336C27.8635 34.6246 27.4124 34.6416 27.1237 34.3738L26.4701 33.7675Z" fill="white"/>
<path fill-rule="evenodd" clip-rule="evenodd" d="M25.2388 54.2905V53.723C25.2388 52.327 24.1071 51.1952 22.711 51.1952H22.4427C21.0467 51.1952 19.915 52.327 19.915 53.723V54.2905H25.2388ZM19.9769 59.4286C19.9769 60.044 19.478 60.5428 18.8626 60.5428C18.2472 60.5428 17.7483 60.044 17.7483 59.4286V53.723C17.7483 51.1303 19.8501 49.0286 22.4427 49.0286H22.711C25.3037 49.0286 27.4055 51.1303 27.4055 53.723V59.4286C27.4055 60.044 26.9066 60.5428 26.2912 60.5428C25.6758 60.5428 25.1769 60.044 25.1769 59.4286V56.4571H19.9769V59.4286Z" fill="white"/>
<path d="M58.6538 62.7948L50.4469 66.8633L49.3277 66.1236L48.2086 65.3839L50.8199 57.2468L65.3685 39.8631L69.0989 35.7946C70.3424 35.0549 73.277 34.0932 75.0676 36.1645C77.3058 38.7535 76.9328 40.9727 74.6945 43.1919L72.4563 45.9272L58.6538 62.7948Z" fill="white"/>
<path d="M67.9798 57.9865L76.9328 47.2604C77.3058 46.644 77.5296 45.1152 75.4406 43.9317L74.6945 43.1919M74.6945 43.1919L72.4563 45.9272M74.6945 43.1919C76.9328 40.9727 77.3058 38.7535 75.0676 36.1645C73.277 34.0932 70.3424 35.0549 69.0989 35.7946L65.3685 39.8631M49.3277 66.1236L50.4469 66.8633L58.6538 62.7948L72.4563 45.9272M49.3277 66.1236L47.4625 68.3428M49.3277 66.1236L48.2086 65.3839L50.8199 57.2468L65.3685 39.8631M65.3685 39.8631L72.4563 45.9272" stroke="#01B58A" stroke-width="2" stroke-linecap="round"/>
<path d="M50.4469 66.8633L58.6538 62.7948L50.8199 57.2468L48.2086 65.3839L49.3277 66.1236L50.4469 66.8633Z" fill="#01B58A"/>
</svg>
