<svg width="77" height="78" viewBox="0 0 77 78" fill="none" xmlns="http://www.w3.org/2000/svg">
<rect x="6.61267" y="11.65" width="50.2429" height="65.1" rx="3.75" fill="white" stroke="black" stroke-width="2.5"/>
<path fill-rule="evenodd" clip-rule="evenodd" d="M35.077 7.05714C35.077 8.90335 33.5803 10.4 31.7341 10.4C29.8879 10.4 28.3913 8.90335 28.3913 7.05714C28.3913 5.21093 29.8879 3.71429 31.7341 3.71429C33.5803 3.71429 35.077 5.21093 35.077 7.05714ZM24.7608 5.96597C24.6611 5.95067 24.5597 5.94286 24.4577 5.94286H20.7341C19.6296 5.94286 18.7341 6.83829 18.7341 7.94286V12.8571C18.7341 13.9617 19.6296 14.8571 20.7341 14.8571H42.7341C43.8387 14.8571 44.7341 13.9617 44.7341 12.8571V7.94286C44.7341 6.83829 43.8387 5.94286 42.7341 5.94286H39.0106C38.9085 5.94286 38.8072 5.95067 38.7074 5.96597C38.1829 2.58654 35.2606 0 31.7341 0C28.2077 0 25.2854 2.58654 24.7608 5.96597Z" fill="black"/>
<rect x="12.0483" y="20.0571" width="20.0571" height="20.0571" rx="3" fill="black"/>
<rect x="12.0483" y="44.5714" width="20.0571" height="20.0571" rx="3" fill="black"/>
<rect x="38.7913" y="24.5143" width="11.1429" height="1.48571" rx="0.742857" fill="black"/>
<rect x="36.5626" y="29.7142" width="16.3429" height="1.48571" rx="0.742857" fill="black"/>
<rect x="36.5626" y="34.1714" width="16.3429" height="1.48571" rx="0.742857" fill="black"/>
<rect x="38.7913" y="49.7715" width="11.8857" height="1.48571" rx="0.742857" fill="black"/>
<rect x="36.5626" y="54.2285" width="8.91428" height="1.48571" rx="0.742857" fill="black"/>
<rect x="36.5626" y="58.6857" width="8.91428" height="1.48571" rx="0.742857" fill="black"/>
<rect x="18.7341" y="69.0857" width="23.0286" height="1.48571" rx="0.742857" fill="black"/>
<rect x="0.905518" y="54.2285" width="1.48571" height="14.1143" rx="0.742857" fill="black"/>
<rect x="0.905518" y="47.5428" width="1.48571" height="3.71429" rx="0.742857" fill="black"/>
<rect x="61.0769" y="14.1143" width="1.48571" height="2.97143" rx="0.742857" fill="black"/>
<rect x="61.0769" y="20.0571" width="1.48571" height="11.8857" rx="0.742857" fill="black"/>
<path fill-rule="evenodd" clip-rule="evenodd" d="M25.5919 34.4086C24.6331 35.1892 23.4097 35.6571 22.0769 35.6571C18.9999 35.6571 16.5055 33.1627 16.5055 30.0857C16.5055 27.0087 18.9999 24.5143 22.0769 24.5143C25.1539 24.5143 27.6483 27.0087 27.6483 30.0857C27.6483 31.2944 27.2635 32.4131 26.6096 33.3261L27.2788 33.9468C27.5633 34.2108 27.58 34.6554 27.3161 34.9399L27.2615 34.9988C26.9975 35.2833 26.5529 35.3 26.2684 35.0361L25.5919 34.4086ZM24.0216 32.9519C23.4672 33.3288 22.7978 33.549 22.0769 33.549C20.1642 33.549 18.6136 31.9984 18.6136 30.0857C18.6136 28.173 20.1642 26.6224 22.0769 26.6224C23.9897 26.6224 25.5402 28.173 25.5402 30.0857C25.5402 30.7399 25.3589 31.3517 25.0437 31.8736L23.2311 30.1922C22.9465 29.9282 22.5019 29.9449 22.238 30.2295L22.1834 30.2884C21.9194 30.5729 21.9362 31.0175 22.2207 31.2814L24.0216 32.9519Z" fill="white"/>
<path d="M19.477 54.9571H18.7484V53.5961C18.7484 51.902 20.1218 50.5286 21.816 50.5286H22.338C24.0322 50.5286 25.4056 51.902 25.4056 53.5961V54.9571H24.677H19.477Z" stroke="white" stroke-width="3"/>
<rect x="47.4626" y="56.2142" width="27.2286" height="11.6286" rx="2.5" fill="#01B58A" stroke="black"/>
<path d="M48.5397 63.6046L49.5445 60.3159H50.4718L51.4766 63.6046H50.8372L49.9419 60.7042H50.0607L49.1791 63.6046H48.5397ZM49.1426 62.9195V62.3394H50.8783V62.9195H49.1426Z" fill="black"/>
<path d="M51.886 63.6046V60.3159H53.2745C53.3065 60.3159 53.3491 60.3175 53.4024 60.3205C53.4572 60.322 53.5059 60.3266 53.5485 60.3342C53.745 60.3647 53.9056 60.4294 54.0304 60.5283C54.1568 60.6273 54.2497 60.7522 54.309 60.9029C54.3684 61.0521 54.3981 61.2188 54.3981 61.403C54.3981 61.5873 54.3677 61.7547 54.3068 61.9055C54.2474 62.0547 54.1545 62.1788 54.0281 62.2777C53.9033 62.3767 53.7434 62.4414 53.5485 62.4718C53.5059 62.4779 53.4572 62.4825 53.4024 62.4855C53.3476 62.4886 53.3049 62.4901 53.2745 62.4901H52.5071V63.6046H51.886ZM52.5071 61.91H53.2471C53.2791 61.91 53.3141 61.9085 53.3521 61.9055C53.3902 61.9024 53.4252 61.8963 53.4572 61.8872C53.5409 61.8644 53.6056 61.8263 53.6513 61.773C53.697 61.7182 53.7282 61.6581 53.745 61.5926C53.7632 61.5256 53.7724 61.4624 53.7724 61.403C53.7724 61.3437 53.7632 61.2812 53.745 61.2158C53.7282 61.1488 53.697 61.0886 53.6513 61.0353C53.6056 60.9805 53.5409 60.9417 53.4572 60.9189C53.4252 60.9097 53.3902 60.9036 53.3521 60.9006C53.3141 60.8976 53.2791 60.896 53.2471 60.896H52.5071V61.91Z" fill="black"/>
<path d="M54.8567 63.6046V60.3159H56.2452C56.2772 60.3159 56.3198 60.3175 56.3731 60.3205C56.4279 60.322 56.4766 60.3266 56.5192 60.3342C56.7157 60.3647 56.8763 60.4294 57.0011 60.5283C57.1275 60.6273 57.2204 60.7522 57.2797 60.9029C57.3391 61.0521 57.3688 61.2188 57.3688 61.403C57.3688 61.5873 57.3384 61.7547 57.2775 61.9055C57.2181 62.0547 57.1252 62.1788 56.9988 62.2777C56.874 62.3767 56.7141 62.4414 56.5192 62.4718C56.4766 62.4779 56.4279 62.4825 56.3731 62.4855C56.3183 62.4886 56.2756 62.4901 56.2452 62.4901H55.4778V63.6046H54.8567ZM55.4778 61.91H56.2178C56.2498 61.91 56.2848 61.9085 56.3228 61.9055C56.3609 61.9024 56.3959 61.8963 56.4279 61.8872C56.5116 61.8644 56.5763 61.8263 56.622 61.773C56.6677 61.7182 56.6989 61.6581 56.7157 61.5926C56.7339 61.5256 56.7431 61.4624 56.7431 61.403C56.7431 61.3437 56.7339 61.2812 56.7157 61.2158C56.6989 61.1488 56.6677 61.0886 56.622 61.0353C56.5763 60.9805 56.5116 60.9417 56.4279 60.9189C56.3959 60.9097 56.3609 60.9036 56.3228 60.9006C56.2848 60.8976 56.2498 60.896 56.2178 60.896H55.4778V61.91Z" fill="black"/>
<path d="M57.8274 63.6046V60.3159H59.2159C59.2479 60.3159 59.2905 60.3175 59.3438 60.3205C59.3986 60.322 59.4473 60.3266 59.49 60.3342C59.6864 60.3647 59.847 60.4294 59.9718 60.5283C60.0982 60.6273 60.1911 60.7522 60.2505 60.9029C60.3098 61.0521 60.3395 61.2188 60.3395 61.403C60.3395 61.6786 60.271 61.9146 60.134 62.111C59.997 62.3059 59.7823 62.4262 59.49 62.4718L59.2159 62.4901H58.4485V63.6046H57.8274ZM59.6818 63.6046L59.0332 62.2663L59.6727 62.143L60.3852 63.6046H59.6818ZM58.4485 61.91H59.1885C59.2205 61.91 59.2555 61.9085 59.2935 61.9055C59.3316 61.9024 59.3666 61.8963 59.3986 61.8872C59.4823 61.8644 59.547 61.8263 59.5927 61.773C59.6384 61.7182 59.6696 61.6581 59.6864 61.5926C59.7046 61.5256 59.7138 61.4624 59.7138 61.403C59.7138 61.3437 59.7046 61.2812 59.6864 61.2158C59.6696 61.1488 59.6384 61.0886 59.5927 61.0353C59.547 60.9805 59.4823 60.9417 59.3986 60.9189C59.3666 60.9097 59.3316 60.9036 59.2935 60.9006C59.2555 60.8976 59.2205 60.896 59.1885 60.896H58.4485V61.91Z" fill="black"/>
<path d="M62.2986 63.6731C61.9698 63.6731 61.6858 63.6016 61.4468 63.4584C61.2093 63.3153 61.0258 63.1151 60.8964 62.8578C60.7685 62.6005 60.7046 62.3013 60.7046 61.9603C60.7046 61.6192 60.7685 61.3201 60.8964 61.0627C61.0258 60.8054 61.2093 60.6052 61.4468 60.4621C61.6858 60.319 61.9698 60.2474 62.2986 60.2474C62.6275 60.2474 62.9107 60.319 63.1482 60.4621C63.3873 60.6052 63.5707 60.8054 63.6986 61.0627C63.828 61.3201 63.8927 61.6192 63.8927 61.9603C63.8927 62.3013 63.828 62.6005 63.6986 62.8578C63.5707 63.1151 63.3873 63.3153 63.1482 63.4584C62.9107 63.6016 62.6275 63.6731 62.2986 63.6731ZM62.2986 63.0885C62.5072 63.0915 62.6808 63.0466 62.8194 62.9537C62.9579 62.8608 63.0614 62.7291 63.1299 62.5586C63.2 62.3881 63.235 62.1887 63.235 61.9603C63.235 61.7319 63.2 61.534 63.1299 61.3665C63.0614 61.199 62.9579 61.0688 62.8194 60.976C62.6808 60.8831 62.5072 60.8351 62.2986 60.8321C62.0901 60.829 61.9165 60.874 61.7779 60.9668C61.6394 61.0597 61.5351 61.1914 61.4651 61.3619C61.3966 61.5324 61.3623 61.7319 61.3623 61.9603C61.3623 62.1887 61.3966 62.3866 61.4651 62.5541C61.5351 62.7215 61.6394 62.8517 61.7779 62.9446C61.9165 63.0375 62.0901 63.0854 62.2986 63.0885Z" fill="black"/>
<path d="M64.9183 63.6046L63.9135 60.3159H64.5529L65.3751 63.02L66.2109 60.3159H66.8504L65.8455 63.6046H64.9183Z" fill="black"/>
<path d="M67.1944 63.6046V60.3159H69.3412V60.896H67.8156V61.5994H69.0671V62.1795H67.8156V63.0245H69.3412V63.6046H67.1944Z" fill="black"/>
<path d="M69.8886 63.6046V60.3159H70.9528C70.9787 60.3159 71.032 60.3167 71.1127 60.3182C71.1934 60.3198 71.271 60.3251 71.3456 60.3342C71.6106 60.3662 71.8351 60.4583 72.0194 60.6106C72.2036 60.7628 72.3437 60.9562 72.4396 61.1906C72.5355 61.4251 72.5835 61.6817 72.5835 61.9603C72.5835 62.2389 72.5355 62.4954 72.4396 62.7299C72.3437 62.9644 72.2036 63.1577 72.0194 63.31C71.8351 63.4622 71.6106 63.5544 71.3456 63.5863C71.271 63.5955 71.1934 63.6008 71.1127 63.6023C71.032 63.6038 70.9787 63.6046 70.9528 63.6046H69.8886ZM70.5189 63.02H70.9528C70.9939 63.02 71.0495 63.0192 71.1195 63.0177C71.1896 63.0146 71.2528 63.0078 71.3091 62.9971C71.4522 62.9682 71.5687 62.9012 71.6585 62.7961C71.7499 62.6911 71.8169 62.5647 71.8595 62.417C71.9036 62.2693 71.9257 62.1171 71.9257 61.9603C71.9257 61.7958 71.9029 61.6398 71.8572 61.4921C71.8131 61.3444 71.7453 61.2196 71.654 61.1176C71.5626 61.0155 71.4477 60.9508 71.3091 60.9234C71.2528 60.9113 71.1896 60.9044 71.1195 60.9029C71.0495 60.9014 70.9939 60.9006 70.9528 60.9006H70.5189V63.02Z" fill="black"/>
<path d="M69.0264 51.4996L69.0264 51.4995C69.1655 51.0877 69.4319 50.6814 69.6561 50.3396C69.7086 50.2596 69.7587 50.1832 69.8043 50.111C70.0675 49.6949 70.2259 49.3674 70.2338 49.0515V49.0264C70.2338 48.7029 70.0741 48.3693 69.8039 47.9423C69.7584 47.8703 69.7084 47.7941 69.656 47.7143C69.4317 47.3723 69.1651 46.9658 69.026 46.5535L69.026 46.5535C68.881 46.1234 68.8451 45.6321 68.8151 45.2214C68.8086 45.1323 68.8023 45.0469 68.7953 44.9669C68.7515 44.4668 68.6796 44.1165 68.4912 43.8675L68.4912 43.8674C68.2971 43.6108 67.9625 43.4322 67.4787 43.2371C67.4 43.2054 67.3161 43.1729 67.2287 43.1391C66.8329 42.9858 66.3663 42.8051 65.9944 42.5448L65.9944 42.5448C65.6266 42.2873 65.3057 41.9166 65.0343 41.6031C64.9727 41.5319 64.9137 41.4637 64.8572 41.4004C64.5193 41.0219 64.2375 40.7679 63.9128 40.6665L69.0264 51.4996ZM69.0264 51.4996C68.8811 51.9299 68.8452 52.4215 68.8151 52.8323C68.8086 52.9212 68.8024 53.0064 68.7954 53.0863C68.7516 53.5864 68.6798 53.9367 68.4915 54.1857C68.2974 54.4423 67.9628 54.621 67.479 54.8161C67.4003 54.8478 67.3164 54.8803 67.229 54.9141C66.8332 55.0674 66.3666 55.2481 65.9947 55.5084L65.9947 55.5084M69.0264 51.4996L65.9947 55.5084M65.9947 55.5084C65.6269 55.7659 65.306 56.1366 65.0345 56.4501C64.9729 56.5212 64.9139 56.5895 64.8574 56.6527C64.5194 57.0313 64.2376 57.2853 63.913 57.3867C63.5865 57.4888 63.2083 57.442 62.7064 57.3262C62.6255 57.3075 62.5402 57.2867 62.4514 57.2649C62.0381 57.1637 61.5495 57.0441 61.0772 57.0441C60.6038 57.0441 60.1091 57.1624 59.6896 57.2627C59.6021 57.2836 59.5179 57.3037 59.4379 57.3218C58.927 57.4375 58.5507 57.4833 58.2415 57.3867C57.9167 57.2853 57.6349 57.0313 57.297 56.6527C57.2405 56.5895 57.1815 56.5212 57.1199 56.4501C56.8485 56.1366 56.5275 55.7659 56.1598 55.5084L56.1598 55.5084M65.9947 55.5084L56.1598 55.5084M56.1598 55.5084C55.7879 55.2481 55.3213 55.0674 54.9255 54.9141C54.8381 54.8803 54.7542 54.8478 54.6755 54.8161C54.1917 54.621 53.8571 54.4423 53.663 54.1857L53.663 54.1857M56.1598 55.5084L53.663 54.1857M53.663 54.1857C53.4746 53.9367 53.4027 53.5864 53.3589 53.0863C53.3519 53.0063 53.3456 52.9209 53.3391 52.8318C53.3091 52.4211 53.2732 51.9298 53.1282 51.4997L53.128 51.4992M53.663 54.1857L53.128 51.4992M53.128 51.4992C52.9887 51.0877 52.7223 50.6817 52.4981 50.3399C52.4456 50.2598 52.3953 50.1833 52.3496 50.111C52.0795 49.6841 51.9198 49.3503 51.9198 49.0267C51.9198 48.7032 52.0795 48.3694 52.3496 47.9425C52.3952 47.8703 52.4453 47.7939 52.4977 47.7139C52.7219 47.3721 52.9883 46.9658 53.1275 46.554L53.1275 46.5539M53.128 51.4992L53.1275 46.5539M53.1275 46.5539C53.2728 46.1236 53.3087 45.632 53.3388 45.2212M53.1275 46.5539L53.3388 45.2212M56.1592 42.545L56.1592 42.5451C55.7873 42.8054 55.3207 42.9861 54.9249 43.1394C54.8375 43.1732 54.7535 43.2057 54.6748 43.2374C54.1911 43.4324 53.8566 43.6111 53.6625 43.8677L56.1592 42.545ZM56.1592 42.545C56.5271 42.2874 56.8481 41.9167 57.1195 41.6032M56.1592 42.545L57.1195 41.6032M53.3388 45.2212C53.3453 45.1322 53.3515 45.0471 53.3585 44.9672M53.3388 45.2212L53.3585 44.9672M53.3585 44.9672C53.4023 44.4671 53.4741 44.1167 53.6624 43.8677L53.3585 44.9672ZM57.1195 41.6032C57.1811 41.532 57.2402 41.4638 57.2967 41.4005M57.1195 41.6032L57.2967 41.4005M57.2967 41.4005C57.6346 41.0219 57.9164 40.7679 58.2411 40.6665L57.2967 41.4005ZM58.2412 40.6665C58.5506 40.5699 58.9269 40.6157 59.4377 40.7313C59.5177 40.7495 59.6019 40.7696 59.6894 40.7905C60.1088 40.8908 60.6035 41.0091 61.0769 41.0091C61.5504 41.0091 62.0451 40.8908 62.4646 40.7905C62.5521 40.7696 62.6363 40.7495 62.7163 40.7313C63.2272 40.6157 63.6035 40.5699 63.9127 40.6665H58.2412Z" fill="#01B58A" stroke="black"/>
<path d="M67.0197 49.0286C67.0197 52.3107 64.359 54.9714 61.0769 54.9714C57.7947 54.9714 55.134 52.3107 55.134 49.0286C55.134 45.7464 57.7947 43.0857 61.0769 43.0857C64.359 43.0857 67.0197 45.7464 67.0197 49.0286Z" fill="white"/>
<path fill-rule="evenodd" clip-rule="evenodd" d="M65.1668 46.7597L60.773 51.4734C60.5391 51.7244 60.1498 51.7489 59.8863 51.5292L57.3366 49.4042L58.1642 48.4111L60.2443 50.1447L64.2212 45.8782L65.1668 46.7597Z" fill="#01B58A"/>
</svg>
