<svg width="20" height="18" viewBox="0 0 20 18" fill="none" xmlns="http://www.w3.org/2000/svg">
<path d="M1.4373 17.875C1.67525 17.8819 1.9084 17.8072 2.09793 17.6631C2.28745 17.5191 2.42193 17.3145 2.47896 17.0833C2.94798 15.225 3.98082 13.5574 5.43563 12.3097C6.89044 11.0619 8.69586 10.2951 10.604 10.1146V11.2813C10.6041 11.6461 10.712 12.0029 10.9139 12.3067C11.1159 12.6106 11.403 12.8482 11.7394 12.9896C12.1041 13.1573 12.5095 13.216 12.9068 13.1587C13.3041 13.1014 13.6764 12.9306 13.979 12.6667L19.2498 8.07293C19.4519 7.90082 19.6142 7.68687 19.7256 7.44587C19.8369 7.20487 19.8945 6.94257 19.8945 6.6771C19.8945 6.41163 19.8369 6.14933 19.7256 5.90833C19.6142 5.66733 19.4519 5.45338 19.2498 5.28127L13.979 0.677099C13.6725 0.408674 13.294 0.236006 12.8904 0.180463C12.4868 0.12492 12.0757 0.18894 11.7081 0.364599C11.3718 0.50604 11.0846 0.743576 10.8827 1.04746C10.6807 1.35134 10.5729 1.70806 10.5727 2.07293V3.29168C7.74332 3.51044 5.09868 4.78176 3.16066 6.85477C1.22264 8.92778 0.132 11.6519 0.103962 14.4896C0.105389 15.3641 0.213833 16.2352 0.426878 17.0833C0.48391 17.3145 0.618385 17.5191 0.807915 17.6631C0.997444 17.8072 1.23059 17.8819 1.46854 17.875H1.4373Z" fill="black"/>
</svg>
