<svg width="19" height="19" viewBox="0 0 19 19" fill="none" xmlns="http://www.w3.org/2000/svg">
<circle opacity="0.1" cx="9.5" cy="9.5" r="9.5" fill="#BE6AF6"/>
<path d="M7.52321 9.39494L6.41514 9.39494L4.91997 9.39493L3.87437 9.39494C3.7159 9.39494 3.57304 9.28909 3.51241 9.12676C3.45178 8.96443 3.48532 8.77758 3.59739 8.65336L5.6988 6.32343L7.80026 8.65342C7.9123 8.77765 7.94581 8.96449 7.88517 9.1268C7.82452 9.28912 7.68167 9.39495 7.52321 9.39494Z" fill="#BE6AF6"/>
<mask id="path-3-inside-1_2493_30342" fill="white">
<path d="M4.91644 8.6882C4.91644 9.38974 5.0646 10.0815 5.34906 10.7082C5.63352 11.3348 6.04637 11.8789 6.55455 12.2969C7.06274 12.7148 7.65213 12.995 8.27553 13.115C8.714 13.1994 9.16072 13.203 9.59787 13.1268C9.91005 13.0724 10.0792 12.7491 9.99563 12.4435C9.90499 12.112 9.55272 11.932 9.21045 11.9631C8.96131 11.9857 8.70976 11.9733 8.46181 11.9256C8.00592 11.8378 7.57489 11.6329 7.20326 11.3272C6.83162 11.0216 6.5297 10.6237 6.32167 10.1654C6.11364 9.70715 6.00529 9.20124 6.00529 8.6882L4.91644 8.6882Z"/>
</mask>
<path d="M4.91644 8.6882L4.91644 6.6882L2.91644 6.6882L2.91644 8.6882L4.91644 8.6882ZM6.00529 8.6882L8.00529 8.6882L8.00529 6.6882L6.00529 6.6882L6.00529 8.6882ZM9.21045 11.9631L9.39111 13.9549L9.21045 11.9631ZM2.91644 8.6882C2.91644 9.66921 3.12325 10.6434 3.52791 11.5349L7.17021 9.88148C7.00595 9.51964 6.91644 9.11028 6.91644 8.6882L2.91644 8.6882ZM3.52791 11.5349C3.93272 12.4266 4.52904 13.2205 5.28414 13.8415L7.82497 10.7522C7.5637 10.5373 7.33432 10.243 7.17021 9.88148L3.52791 11.5349ZM5.28414 13.8415C6.04036 14.4635 6.93408 14.8935 7.89742 15.079L8.65363 11.1511C8.37018 11.0965 8.08511 10.9661 7.82497 10.7522L5.28414 13.8415ZM7.89742 15.079C8.57452 15.2093 9.26568 15.2148 9.94114 15.0971L9.25459 11.1565C9.05576 11.1911 8.85347 11.1896 8.65363 11.1511L7.89742 15.079ZM9.02978 9.97124C8.96714 9.97692 8.90369 9.97391 8.83992 9.96163L8.08371 13.8895C8.51583 13.9727 8.95548 13.9944 9.39111 13.9549L9.02978 9.97124ZM8.83992 9.96163C8.72396 9.9393 8.59727 9.8842 8.47367 9.78254L5.93284 12.8719C6.55251 13.3816 7.28787 13.7363 8.08371 13.8895L8.83992 9.96163ZM8.47367 9.78254C8.34895 9.67997 8.23049 9.53187 8.14282 9.33873L4.50052 10.9921C4.8289 11.7155 5.31429 12.3632 5.93284 12.8719L8.47367 9.78254ZM8.14282 9.33873C8.055 9.14526 8.00529 8.92178 8.00529 8.6882L4.00529 8.6882C4.00529 9.48071 4.17229 10.269 4.50052 10.9921L8.14282 9.33873ZM6.00529 6.6882L4.91644 6.6882L4.91644 10.6882L6.00529 10.6882L6.00529 6.6882ZM11.9248 11.916C11.5081 10.3921 10.0444 9.87921 9.02978 9.97124L9.39111 13.9549C9.16887 13.975 8.92564 13.9319 8.69327 13.797C8.44751 13.6543 8.17865 13.3813 8.06645 12.971L11.9248 11.916ZM9.94114 15.0971C11.6159 14.8054 12.2629 13.1524 11.9248 11.916L8.06645 12.971C7.89552 12.3458 8.2042 11.3395 9.25459 11.1565L9.94114 15.0971Z" fill="#BE6AF6" mask="url(#path-3-inside-1_2493_30342)"/>
<path d="M10.842 8.97164L11.9501 8.97163L13.4453 8.97164L14.4909 8.97164C14.6493 8.97164 14.7922 9.07748 14.8528 9.23982C14.9135 9.40215 14.8799 9.589 14.7678 9.71322L12.6664 12.0431L10.565 9.71316C10.4529 9.58892 10.4194 9.40209 10.4801 9.23977C10.5407 9.07746 10.6836 8.97163 10.842 8.97164Z" fill="#BE6AF6"/>
<mask id="path-6-inside-2_2493_30342" fill="white">
<path d="M13.1324 9.36185C13.1324 8.66031 12.9842 7.96852 12.6998 7.34187C12.4153 6.71523 12.0025 6.17114 11.4943 5.75319C10.9861 5.33524 10.3967 5.05504 9.7733 4.93502C9.33483 4.8506 8.88811 4.84708 8.45096 4.92324C8.13878 4.97763 7.96962 5.30092 8.0532 5.60659C8.14384 5.9381 8.49611 6.11803 8.83838 6.08698C9.08752 6.06439 9.33907 6.07675 9.58702 6.12449C10.0429 6.21226 10.4739 6.41717 10.8456 6.72282C11.2172 7.02847 11.5191 7.42636 11.7272 7.88463C11.9352 8.3429 12.0435 8.84881 12.0435 9.36185L13.1324 9.36185Z"/>
</mask>
<path d="M13.1324 9.36185L13.1324 11.3618L15.1324 11.3618L15.1324 9.36185L13.1324 9.36185ZM12.0435 9.36185L10.0435 9.36185L10.0435 11.3618L12.0435 11.3618L12.0435 9.36185ZM8.83838 6.08698L8.65772 4.09516L8.83838 6.08698ZM15.1324 9.36185C15.1324 8.38084 14.9256 7.40662 14.5209 6.51518L10.8786 8.16857C11.0429 8.53041 11.1324 8.93977 11.1324 9.36185L15.1324 9.36185ZM14.5209 6.51518C14.1161 5.62341 13.5198 4.82953 12.7647 4.20851L10.2239 7.29788C10.4851 7.51275 10.7145 7.80705 10.8786 8.16857L14.5209 6.51518ZM12.7647 4.20851C12.0085 3.58656 11.1147 3.15655 10.1514 2.97108L9.39519 6.89895C9.67865 6.95352 9.96371 7.08392 10.2239 7.29788L12.7647 4.20851ZM10.1514 2.97108C9.47431 2.84072 8.78315 2.83524 8.10769 2.95292L8.79423 6.89356C8.99307 6.85892 9.19535 6.86048 9.39519 6.89895L10.1514 2.97108ZM9.01905 8.07881C9.08168 8.07313 9.14514 8.07614 9.20891 8.08842L9.96512 4.16055C9.533 4.07736 9.09335 4.05565 8.65772 4.09516L9.01905 8.07881ZM9.20891 8.08842C9.32486 8.11074 9.45156 8.16585 9.57516 8.26751L12.116 5.17814C11.4963 4.66849 10.761 4.31377 9.96512 4.16055L9.20891 8.08842ZM9.57516 8.26751C9.69988 8.37008 9.81833 8.51818 9.90601 8.71132L13.5483 7.05794C13.2199 6.33454 12.7345 5.68686 12.116 5.17814L9.57516 8.26751ZM9.90601 8.71132C9.99383 8.90479 10.0435 9.12827 10.0435 9.36185L14.0435 9.36185C14.0435 8.56934 13.8765 7.78101 13.5483 7.05794L9.90601 8.71132ZM12.0435 11.3618L13.1324 11.3618L13.1324 7.36185L12.0435 7.36185L12.0435 11.3618ZM6.12402 6.13409C6.54069 7.65794 8.00442 8.17084 9.01905 8.07881L8.65772 4.09516C8.87996 4.075 9.12319 4.11819 9.35556 4.25308C9.60132 4.39576 9.87018 4.66876 9.98238 5.07908L6.12402 6.13409ZM8.10769 2.95292C6.43292 3.2447 5.78592 4.89762 6.12402 6.13409L9.98238 5.07908C10.1533 5.70421 9.84463 6.71056 8.79423 6.89356L8.10769 2.95292Z" fill="#BE6AF6" mask="url(#path-6-inside-2_2493_30342)"/>
</svg>
