<svg width="19" height="20" viewBox="0 0 19 20" fill="none" xmlns="http://www.w3.org/2000/svg">
<g id="Frame 28319">
<circle id="Ellipse 1035" opacity="0.1" cx="9.5" cy="10" r="9.5" fill="#BE6AF6"/>
<path id="icon" d="M7.52419 9.89482L6.41612 9.89482L4.92095 9.89481L3.87535 9.89481C3.71688 9.89482 3.57402 9.78897 3.51338 9.62664C3.45275 9.4643 3.48629 9.27746 3.59837 9.15324L5.69977 6.82331L7.80123 9.1533C7.91327 9.27753 7.94679 9.46437 7.88614 9.62668C7.8255 9.789 7.68264 9.89482 7.52419 9.89482Z" fill="#BE6AF6"/>
<g id="Ellipse 1079">
<mask id="path-3-inside-1_205_1283" fill="white">
<path d="M4.91668 9.18808C4.91668 9.88962 5.06484 10.5814 5.3493 11.2081C5.63376 11.8347 6.04662 12.3788 6.5548 12.7967C7.06298 13.2147 7.65237 13.4949 8.27577 13.6149C8.71424 13.6993 9.16097 13.7028 9.59811 13.6267C9.9103 13.5723 10.0795 13.249 9.99588 12.9433C9.90523 12.6118 9.55297 12.4319 9.21069 12.4629C8.96156 12.4855 8.71 12.4732 8.46206 12.4254C8.00616 12.3377 7.57514 12.1328 7.2035 11.8271C6.83186 11.5215 6.52994 11.1236 6.32192 10.6653C6.11389 10.207 6.00554 9.70112 6.00554 9.18808L4.91668 9.18808Z"/>
</mask>
<path d="M4.91668 9.18808L4.91668 7.18808L2.91668 7.18808L2.91668 9.18808L4.91668 9.18808ZM6.00554 9.18808L8.00554 9.18808L8.00554 7.18808L6.00554 7.18808L6.00554 9.18808ZM9.21069 12.4629L9.39136 14.4548L9.21069 12.4629ZM2.91668 9.18808C2.91668 10.1691 3.12349 11.1433 3.52816 12.0347L7.17045 10.3814C7.0062 10.0195 6.91668 9.61015 6.91668 9.18808L2.91668 9.18808ZM3.52816 12.0347C3.93297 12.9265 4.52929 13.7204 5.28438 14.3414L7.82521 11.2521C7.56395 11.0372 7.33456 10.7429 7.17045 10.3814L3.52816 12.0347ZM5.28438 14.3414C6.0406 14.9634 6.93432 15.3934 7.89767 15.5788L8.65388 11.651C8.37042 11.5964 8.08536 11.466 7.82521 11.2521L5.28438 14.3414ZM7.89767 15.5788C8.57477 15.7092 9.26593 15.7147 9.94138 15.597L9.25484 11.6564C9.05601 11.691 8.85372 11.6895 8.65388 11.651L7.89767 15.5788ZM9.03002 10.4711C8.96739 10.4768 8.90393 10.4738 8.84016 10.4615L8.08395 14.3894C8.51607 14.4726 8.95572 14.4943 9.39136 14.4548L9.03002 10.4711ZM8.84016 10.4615C8.72421 10.4392 8.59751 10.3841 8.47391 10.2824L5.93308 13.3718C6.55276 13.8814 7.28811 14.2362 8.08395 14.3894L8.84016 10.4615ZM8.47391 10.2824C8.34919 10.1798 8.23074 10.0317 8.14306 9.8386L4.50077 11.492C4.82915 12.2154 5.31453 12.8631 5.93308 13.3718L8.47391 10.2824ZM8.14306 9.8386C8.05524 9.64514 8.00554 9.42165 8.00554 9.18808L4.00554 9.18808C4.00554 9.98058 4.17254 10.7689 4.50077 11.492L8.14306 9.8386ZM6.00554 7.18808L4.91668 7.18808L4.91668 11.1881L6.00554 11.1881L6.00554 7.18808ZM11.9251 12.4158C11.5084 10.892 10.0447 10.3791 9.03002 10.4711L9.39136 14.4548C9.16911 14.4749 8.92588 14.4317 8.69351 14.2968C8.44775 14.1542 8.17889 13.8812 8.0667 13.4708L11.9251 12.4158ZM9.94138 15.597C11.6162 15.3052 12.2631 13.6523 11.9251 12.4158L8.0667 13.4708C7.89576 12.8457 8.20444 11.8394 9.25484 11.6564L9.94138 15.597Z" fill="#BE6AF6" mask="url(#path-3-inside-1_205_1283)"/>
</g>
<path id="icon_2" d="M10.8425 9.47139L11.9506 9.47139L13.4458 9.4714L14.4913 9.4714C14.6498 9.47139 14.7927 9.57724 14.8533 9.73957C14.9139 9.90191 14.8804 10.0888 14.7683 10.213L12.6669 12.5429L10.5655 10.2129C10.4534 10.0887 10.4199 9.90184 10.4806 9.73953C10.5412 9.57722 10.6841 9.47139 10.8425 9.47139Z" fill="#BE6AF6"/>
<g id="Ellipse 1078">
<mask id="path-6-inside-2_205_1283" fill="white">
<path d="M13.1329 9.86172C13.1329 9.16019 12.9847 8.46839 12.7003 7.84175C12.4158 7.21511 12.0029 6.67102 11.4948 6.25307C10.9866 5.83512 10.3972 5.55491 9.77379 5.43489C9.33532 5.35048 8.88859 5.34696 8.45145 5.42312C8.13926 5.47751 7.9701 5.80079 8.05368 6.10646C8.14433 6.43798 8.49659 6.61791 8.83887 6.58686C9.088 6.56426 9.33956 6.57663 9.5875 6.62436C10.0434 6.71214 10.4744 6.91705 10.8461 7.2227C11.2177 7.52835 11.5196 7.92624 11.7276 8.38451C11.9357 8.84278 12.044 9.34869 12.044 9.86172L13.1329 9.86172Z"/>
</mask>
<path d="M13.1329 9.86172L13.1329 11.8617L15.1329 11.8617L15.1329 9.86172L13.1329 9.86172ZM12.044 9.86172L10.044 9.86172L10.044 11.8617L12.044 11.8617L12.044 9.86172ZM8.83887 6.58686L8.65821 4.59504L8.83887 6.58686ZM15.1329 9.86172C15.1329 8.88072 14.9261 7.9065 14.5214 7.01506L10.8791 8.66844C11.0434 9.03029 11.1329 9.43965 11.1329 9.86172L15.1329 9.86172ZM14.5214 7.01506C14.1166 6.12329 13.5203 5.32941 12.7652 4.70839L10.2243 7.79775C10.4856 8.01263 10.715 8.30692 10.8791 8.66844L14.5214 7.01506ZM12.7652 4.70839C12.009 4.08644 11.1152 3.65643 10.1519 3.47096L9.39568 7.39883C9.67914 7.4534 9.9642 7.5838 10.2243 7.79775L12.7652 4.70839ZM10.1519 3.47096C9.47479 3.3406 8.78363 3.33512 8.10818 3.45279L8.79472 7.39344C8.99356 7.3588 9.19584 7.36035 9.39568 7.39883L10.1519 3.47096ZM9.01954 8.57869C9.08217 8.573 9.14563 8.57602 9.2094 8.5883L9.96561 4.66043C9.53349 4.57724 9.09384 4.55553 8.65821 4.59504L9.01954 8.57869ZM9.2094 8.5883C9.32535 8.61062 9.45205 8.66573 9.57565 8.76738L12.1165 5.67802C11.4968 5.16837 10.7614 4.81365 9.96561 4.66043L9.2094 8.5883ZM9.57565 8.76738C9.70037 8.86996 9.81882 9.01806 9.9065 9.2112L13.5488 7.55781C13.2204 6.83442 12.735 6.18674 12.1165 5.67802L9.57565 8.76738ZM9.9065 9.2112C9.99432 9.40467 10.044 9.62815 10.044 9.86172L14.044 9.86172C14.044 9.06922 13.877 8.28088 13.5488 7.55781L9.9065 9.2112ZM12.044 11.8617L13.1329 11.8617L13.1329 7.86172L12.044 7.86172L12.044 11.8617ZM6.1245 6.63397C6.54118 8.15782 8.00491 8.67072 9.01954 8.57869L8.65821 4.59504C8.88045 4.57488 9.12368 4.61807 9.35605 4.75296C9.60181 4.89564 9.87067 5.16864 9.98287 5.57896L6.1245 6.63397ZM8.10818 3.45279C6.43341 3.74458 5.78641 5.3975 6.1245 6.63397L9.98287 5.57896C10.1538 6.20409 9.84512 7.21044 8.79472 7.39344L8.10818 3.45279Z" fill="#BE6AF6" mask="url(#path-6-inside-2_205_1283)"/>
</g>
</g>
</svg>
