<svg width="33" height="33" viewBox="0 0 33 33" fill="none" xmlns="http://www.w3.org/2000/svg">
<circle opacity="0.1" cx="16.6547" cy="16.3452" r="16.3452" fill="#BE6AF6"/>
<path fill-rule="evenodd" clip-rule="evenodd" d="M20.8548 15.4612C20.0692 15.2834 19.248 15.3079 18.4756 15.5322C17.7032 15.7565 17.0074 16.1725 16.4596 16.7376C15.9118 17.3026 15.5318 17.9964 15.3586 18.7475C15.1854 19.4987 15.2251 20.2802 15.4739 21.0119H12.9798C12.5621 21.0119 12.1615 20.8538 11.8661 20.5725C11.5707 20.2912 11.4048 19.9097 11.4048 19.5119V10.8452C11.4048 10.4474 11.5707 10.0659 11.8661 9.78455C12.1615 9.50325 12.5621 9.34521 12.9798 9.34521H19.2798C19.4866 9.34521 19.6914 9.38401 19.8825 9.4594C20.0736 9.53478 20.2472 9.64527 20.3935 9.78455C20.5397 9.92384 20.6557 10.0892 20.7349 10.2712C20.814 10.4532 20.8548 10.6482 20.8548 10.8452V15.4612ZM10.7048 12.5118L10.7069 11.0964C10.3992 11.1996 10.1328 11.3911 9.94432 11.6446C9.75586 11.8982 9.6547 12.2011 9.65479 12.5118V19.5144C9.65479 20.3543 10.0051 21.1597 10.6287 21.7536C11.2522 22.3475 12.0979 22.6811 12.9798 22.6811H16.5246C16.224 22.3837 15.9694 22.047 15.7686 21.6811H12.9798C12.3764 21.6811 11.7978 21.4528 11.3711 21.0465C10.9445 20.6402 10.7048 20.0891 10.7048 19.5144V12.5118ZM22.5272 17.0859C21.8052 16.3983 20.8259 16.012 19.8048 16.012C18.7838 16.012 17.8045 16.3983 17.0825 17.0859C16.3605 17.7735 15.9548 18.7062 15.9548 19.6786C15.9548 20.6511 16.3605 21.5837 17.0825 22.2714C17.8045 22.959 18.7838 23.3453 19.8048 23.3453C20.8259 23.3453 21.8052 22.959 22.5272 22.2714C23.2492 21.5837 23.6548 20.6511 23.6548 19.6786C23.6548 18.7062 23.2492 17.7735 22.5272 17.0859ZM20.1555 20.012V21.6806H20.1548C20.1548 21.769 20.118 21.8538 20.0523 21.9163C19.9867 21.9788 19.8977 22.014 19.8048 22.014C19.712 22.014 19.623 21.9788 19.5573 21.9163C19.4917 21.8538 19.4548 21.769 19.4548 21.6806V20.012H17.702C17.6092 20.012 17.5202 19.9768 17.4545 19.9143C17.3889 19.8518 17.352 19.767 17.352 19.6786C17.352 19.5902 17.3889 19.5054 17.4545 19.4429C17.5202 19.3804 17.6092 19.3453 17.702 19.3453H19.4548V17.6786C19.4548 17.5902 19.4917 17.5054 19.5573 17.4429C19.623 17.3804 19.712 17.3453 19.8048 17.3453C19.8977 17.3453 19.9867 17.3804 20.0523 17.4429C20.118 17.5054 20.1548 17.5902 20.1548 17.6786V19.3453H21.9027C21.9956 19.3453 22.0846 19.3804 22.1502 19.4429C22.2159 19.5054 22.2527 19.5902 22.2527 19.6786C22.2527 19.767 22.2159 19.8518 22.1502 19.9143C22.0846 19.9768 21.9956 20.012 21.9027 20.012H20.1555Z" fill="#BE6AF6"/>
</svg>
