<svg width="16" height="16" viewBox="0 0 16 16" fill="none" xmlns="http://www.w3.org/2000/svg">
<path fill-rule="evenodd" clip-rule="evenodd" d="M11.4707 3.05469C12.0707 3.05469 12.4707 2.55469 12.4707 2.05469V1.05469C12.4707 0.454687 12.0707 0.0546875 11.4707 0.0546875C10.8707 0.0546875 10.4707 0.454687 10.4707 1.05469V2.05469C10.4707 2.55469 10.8707 3.05469 11.4707 3.05469ZM14.4707 1.05469H13.4707V2.05469C13.4707 3.15469 12.5707 4.05469 11.4707 4.05469C10.3707 4.05469 9.4707 3.15469 9.4707 2.05469V1.05469H6.4707V2.05469C6.4707 3.15469 5.5707 4.05469 4.4707 4.05469C3.3707 4.05469 2.4707 3.15469 2.4707 2.05469V1.05469H1.4707C0.870703 1.05469 0.470703 1.55469 0.470703 2.05469V14.0547C0.470703 14.6547 0.870703 15.0547 1.4707 15.0547H14.4707C15.0707 15.0547 15.4707 14.6547 15.4707 14.0547V2.05469C15.4707 1.45469 14.9707 1.05469 14.4707 1.05469ZM5.4707 13.0547H2.4707V10.0547H5.4707V13.0547ZM5.4707 9.05469H2.4707V6.05469H5.4707V9.05469ZM9.4707 13.0547H6.4707V10.0547H9.4707V13.0547ZM9.4707 9.05469H6.4707V6.05469H9.4707V9.05469ZM13.4707 13.0547H10.4707V10.0547H13.4707V13.0547ZM13.4707 9.05469H10.4707V6.05469H13.4707V9.05469ZM4.4707 3.05469C5.0707 3.05469 5.4707 2.55469 5.4707 2.05469V1.05469C5.4707 0.454687 5.0707 0.0546875 4.4707 0.0546875C3.8707 0.0546875 3.4707 0.454687 3.4707 1.05469V2.05469C3.4707 2.55469 3.8707 3.05469 4.4707 3.05469Z" fill="#385DDF" fill-opacity="0.4"/>
</svg>
