<svg width="16" height="17" viewBox="0 0 16 17" fill="none" xmlns="http://www.w3.org/2000/svg">
<path d="M13.7503 5.91553C13.9271 5.91553 14.0967 5.98577 14.2217 6.11079C14.3468 6.23581 14.417 6.40538 14.417 6.58219V10.4155C14.417 10.5923 14.3468 10.7619 14.2217 10.8869C14.0967 11.012 13.9271 11.0822 13.7503 11.0822H10.2503C10.0735 11.0822 9.90395 11.012 9.77892 10.8869C9.6539 10.7619 9.58366 10.5923 9.58366 10.4155C9.58366 10.2387 9.6539 10.0691 9.77892 9.94412C9.90395 9.8191 10.0735 9.74886 10.2503 9.74886H12.5083C11.8517 8.96286 11.0363 8.34019 10.0537 8.03553C8.72244 7.61899 7.29057 7.65651 5.98299 8.14219C4.66232 8.63419 3.44299 9.63019 2.83499 10.7382C2.75003 10.8933 2.60696 11.0082 2.43724 11.0578C2.26752 11.1074 2.08506 11.0875 1.92999 11.0025C1.77493 10.9176 1.65997 10.7745 1.61039 10.6048C1.56082 10.4351 1.5807 10.2526 1.66566 10.0975C2.44899 8.66886 3.94233 7.47953 5.51766 6.89286C7.10117 6.30452 8.8352 6.25856 10.4477 6.76219C11.4983 7.08753 12.3717 7.68219 13.0837 8.40153V6.58219C13.0837 6.40538 13.1539 6.23581 13.2789 6.11079C13.4039 5.98577 13.5735 5.91553 13.7503 5.91553Z" fill="#385DDF"/>
</svg>
