<svg width="20" height="18" viewBox="0 0 20 18" fill="none" xmlns="http://www.w3.org/2000/svg">
<path d="M18.5627 17.875C18.3248 17.8819 18.0916 17.8072 17.9021 17.6631C17.7125 17.5191 17.5781 17.3145 17.521 17.0833C17.052 15.225 16.0192 13.5574 14.5644 12.3097C13.1096 11.0619 11.3041 10.2951 9.39604 10.1146V11.2813C9.39587 11.6461 9.28805 12.0029 9.08608 12.3067C8.88411 12.6106 8.59697 12.8482 8.26062 12.9896C7.89589 13.1573 7.49048 13.216 7.09317 13.1587C6.69586 13.1014 6.32355 12.9306 6.02104 12.6667L0.750206 8.07293C0.548088 7.90082 0.385758 7.68687 0.27444 7.44587C0.163121 7.20487 0.105469 6.94257 0.105469 6.6771C0.105469 6.41163 0.163121 6.14933 0.27444 5.90833C0.385758 5.66733 0.548088 5.45338 0.750206 5.28127L6.02104 0.677099C6.32753 0.408674 6.706 0.236006 7.10961 0.180463C7.51323 0.12492 7.92427 0.18894 8.29187 0.364599C8.62822 0.50604 8.91536 0.743576 9.11733 1.04746C9.3193 1.35134 9.42712 1.70806 9.42729 2.07293V3.29168C12.2567 3.51044 14.9013 4.78176 16.8393 6.85477C18.7774 8.92778 19.868 11.6519 19.896 14.4896C19.8946 15.3641 19.7862 16.2352 19.5731 17.0833C19.5161 17.3145 19.3816 17.5191 19.1921 17.6631C19.0026 17.8072 18.7694 17.8819 18.5315 17.875H18.5627Z" fill="black"/>
</svg>
