<svg width="32" height="32" viewBox="0 0 32 32" fill="none" xmlns="http://www.w3.org/2000/svg">
<path fill-rule="evenodd" clip-rule="evenodd" d="M31.3454 23.3327L20.2332 3.80274C19.3686 2.27641 17.7499 1.33301 15.9956 1.33301C14.2414 1.33301 12.6227 2.27641 11.758 3.80274L0.645845 23.3327C-0.219449 24.8469 -0.214984 26.7068 0.657567 28.2169C1.53012 29.7269 3.13932 30.6596 4.88331 30.666H27.1079C28.8519 30.6596 30.4611 29.7269 31.3337 28.2169C32.2062 26.7068 32.2107 24.8469 31.3454 23.3327ZM14.6628 9.33235C14.6627 8.97889 14.8031 8.63989 15.053 8.38995C15.303 8.14002 15.642 7.99962 15.9954 7.99967H15.9968C16.3502 7.99962 16.6892 8.14002 16.9392 8.38995C17.1891 8.63989 17.3295 8.97889 17.3295 9.33235V18.667C17.3295 19.0205 17.1891 19.3595 16.9392 19.6094C16.6892 19.8594 16.3502 19.9998 15.9968 19.9997H15.9954C15.642 19.9998 15.303 19.8594 15.053 19.6094C14.8031 19.3595 14.6627 19.0205 14.6628 18.667V9.33235ZM13.9961 24.6663C13.9961 25.7709 14.8915 26.6663 15.9961 26.6663C17.1006 26.6662 17.9959 25.7708 17.9961 24.6663C17.9961 23.5618 17.1007 22.6663 15.9961 22.6663C14.8915 22.6663 13.9961 23.5618 13.9961 24.6663Z" fill="#F6BC0C"/>
</svg>
