<svg width="16" height="17" viewBox="0 0 16 17" fill="none" xmlns="http://www.w3.org/2000/svg">
<g clip-path="url(#clip0_24624_27874)">
<mask id="mask0_24624_27874" style="mask-type:luminance" maskUnits="userSpaceOnUse" x="0" y="0" width="16" height="17">
<path d="M0 0.5H16V16.5H0V0.5Z" fill="white"/>
<path fill-rule="evenodd" clip-rule="evenodd" d="M8.00023 4.80767C7.02096 4.80767 6.08181 5.19668 5.38937 5.88913C4.69693 6.58157 4.30792 7.52072 4.30792 8.49998C4.30792 9.47924 4.69693 10.4184 5.38937 11.1108C6.08181 11.8033 7.02096 12.1923 8.00023 12.1923C8.97949 12.1923 9.91864 11.8033 10.6111 11.1108C11.3035 10.4184 11.6925 9.47924 11.6925 8.49998C11.6925 7.52072 11.3035 6.58157 10.6111 5.88913C9.91864 5.19668 8.97949 4.80767 8.00023 4.80767ZM3.07715 8.49998C3.07715 7.1943 3.59583 5.9421 4.51908 5.01884C5.44234 4.09558 6.69454 3.5769 8.00023 3.5769C9.30591 3.5769 10.5581 4.09558 11.4814 5.01884C12.4046 5.9421 12.9233 7.1943 12.9233 8.49998C12.9233 9.80566 12.4046 11.0579 11.4814 11.9811C10.5581 12.9044 9.30591 13.4231 8.00023 13.4231C6.69454 13.4231 5.44234 12.9044 4.51908 11.9811C3.59583 11.0579 3.07715 9.80566 3.07715 8.49998Z" fill="black"/>
<path fill-rule="evenodd" clip-rule="evenodd" d="M11.4819 5.0188C11.5973 5.1342 11.6621 5.2907 11.6621 5.45388C11.6621 5.61705 11.5973 5.77355 11.4819 5.88895L5.38958 11.9813C5.27352 12.0934 5.11807 12.1554 4.95672 12.154C4.79536 12.1526 4.64102 12.0879 4.52692 11.9738C4.41282 11.8597 4.34811 11.7053 4.3467 11.544C4.3453 11.3826 4.40733 11.2272 4.51943 11.1111L10.6117 5.0188C10.7271 4.90343 10.8836 4.83862 11.0468 4.83862C11.21 4.83862 11.3665 4.90343 11.4819 5.0188Z" fill="black"/>
</mask>
<g mask="url(#mask0_24624_27874)">
<path d="M8 16.5C12.4183 16.5 16 12.9183 16 8.5C16 4.08172 12.4183 0.5 8 0.5C3.58172 0.5 0 4.08172 0 8.5C0 12.9183 3.58172 16.5 8 16.5Z" fill="#F95843"/>
</g>
</g>
<defs>
<clipPath id="clip0_24624_27874">
<rect width="16" height="16" fill="white" transform="translate(0 0.5)"/>
</clipPath>
</defs>
</svg>
