<svg width="27" height="27" viewBox="0 0 27 27" fill="none" xmlns="http://www.w3.org/2000/svg">
<rect width="27" height="27" rx="6" fill="#9A9A9A"/>
<path d="M8.10766 19.8937C8.45911 20.2457 8.87665 20.5247 9.33628 20.7148C9.79591 20.9049 10.2886 21.0023 10.786 21.0014C11.2835 21.0023 11.7762 20.9049 12.236 20.7148C12.6957 20.5247 13.1134 20.2457 13.465 19.8937L15.6077 17.7503L14.5364 16.679L12.3937 18.8224C11.9667 19.2475 11.3888 19.4861 10.7863 19.4861C10.1839 19.4861 9.60594 19.2475 9.17898 18.8224C8.75356 18.3956 8.51467 17.8176 8.51467 17.215C8.51467 16.6125 8.75356 16.0344 9.17898 15.6077L11.3224 13.465L10.2511 12.3937L8.10766 14.5364C7.39834 15.2474 7 16.2107 7 17.215C7 18.2194 7.39834 19.1827 8.10766 19.8937ZM19.8937 13.465C20.6027 12.7538 21.0008 11.7906 21.0008 10.7863C21.0008 9.78213 20.6027 8.81888 19.8937 8.10766C19.1827 7.39834 18.2194 7 17.215 7C16.2107 7 15.2474 7.39834 14.5364 8.10766L12.3937 10.2511L13.465 11.3224L15.6077 9.17898C16.0346 8.75393 16.6126 8.5153 17.215 8.5153C17.8175 8.5153 18.3954 8.75393 18.8224 9.17898C19.2478 9.60574 19.4867 10.1838 19.4867 10.7863C19.4867 11.3889 19.2478 11.9669 18.8224 12.3937L16.679 14.5364L17.7503 15.6077L19.8937 13.465Z" fill="white"/>
<path d="M11.3206 17.7487L10.2485 16.6774L16.6788 10.248L17.7501 11.32L11.3206 17.7487Z" fill="white"/>
</svg>
