<svg width="73" height="17" viewBox="0 0 73 17" fill="none" xmlns="http://www.w3.org/2000/svg">
<path d="M6 3.5L1 8.5L6 13.5" stroke="black" stroke-width="2" stroke-linecap="round" stroke-linejoin="round"/>
<path d="M22.6995 13.195C23.6138 13.195 24.3808 13.0022 25.0005 12.6165C25.6245 12.2308 26.0947 11.7022 26.411 11.0305C26.7317 10.3545 26.892 9.58967 26.892 8.736C26.892 8.697 26.8898 8.619 26.8855 8.502C26.8812 8.38067 26.8747 8.2745 26.866 8.1835H23.655V9.139H25.644C25.5747 10.0707 25.3017 10.7965 24.825 11.3165C24.3527 11.8365 23.6637 12.0943 22.758 12.09C22.0603 12.0857 21.4775 11.9253 21.0095 11.609C20.5458 11.2927 20.197 10.8528 19.963 10.2895C19.729 9.72183 19.6142 9.06533 19.6185 8.32C19.6228 7.57033 19.7398 6.91383 19.9695 6.3505C20.2035 5.78283 20.5523 5.34083 21.016 5.0245C21.4797 4.70817 22.0603 4.55217 22.758 4.5565C23.4253 4.56083 23.98 4.732 24.422 5.07C24.8683 5.40367 25.1912 5.85433 25.3905 6.422L26.5605 6.1815C26.3178 5.34083 25.8758 4.67567 25.2345 4.186C24.5932 3.69633 23.7482 3.4515 22.6995 3.4515C21.8285 3.4515 21.0702 3.65083 20.4245 4.0495C19.7788 4.44383 19.2783 5.005 18.923 5.733C18.5677 6.461 18.39 7.32333 18.39 8.32C18.39 9.32533 18.5698 10.192 18.9295 10.92C19.2892 11.648 19.7918 12.2092 20.4375 12.6035C21.0875 12.9978 21.8415 13.195 22.6995 13.195ZM32.0383 13.195C32.9743 13.195 33.7673 12.9892 34.4173 12.5775C35.0673 12.1658 35.5613 11.5938 35.8993 10.8615C36.2373 10.1292 36.4063 9.282 36.4063 8.32C36.4063 7.358 36.2373 6.51083 35.8993 5.7785C35.5613 5.04617 35.0673 4.47417 34.4173 4.0625C33.7673 3.65083 32.9743 3.445 32.0383 3.445C31.1066 3.445 30.3136 3.65083 29.6593 4.0625C29.0093 4.47417 28.5153 5.04617 28.1773 5.7785C27.8393 6.51083 27.6703 7.358 27.6703 8.32C27.6703 9.282 27.8393 10.1292 28.1773 10.8615C28.5153 11.5938 29.0093 12.1658 29.6593 12.5775C30.3136 12.9892 31.1066 13.195 32.0383 13.195ZM32.0383 12.09C31.3406 12.0857 30.7578 11.9253 30.2898 11.609C29.8261 11.2927 29.4773 10.8528 29.2433 10.2895C29.0093 9.72183 28.8944 9.06533 28.8988 8.32C28.9031 7.57033 29.0201 6.91167 29.2498 6.344C29.4838 5.77633 29.8326 5.33433 30.2963 5.018C30.7599 4.70167 31.3406 4.54567 32.0383 4.55C32.7359 4.55433 33.3166 4.71467 33.7803 5.031C34.2483 5.34733 34.5971 5.78717 34.8268 6.3505C35.0608 6.91383 35.1778 7.57033 35.1778 8.32C35.1778 9.06533 35.0608 9.724 34.8268 10.296C34.5971 10.8637 34.2483 11.3057 33.7803 11.622C33.3166 11.9383 32.7359 12.0943 32.0383 12.09ZM40.3143 13H44.2858C45.1438 13 45.822 12.7595 46.3203 12.2785C46.8186 11.7932 47.0678 11.141 47.0678 10.322C47.0678 9.802 46.9378 9.34483 46.6778 8.9505C46.4178 8.55183 46.0495 8.25067 45.5728 8.047C45.8978 7.85633 46.1535 7.592 46.3398 7.254C46.5261 6.916 46.6193 6.5325 46.6193 6.1035C46.6193 5.67017 46.5131 5.26717 46.3008 4.8945C46.0928 4.5175 45.7895 4.21417 45.3908 3.9845C44.9965 3.75483 44.5198 3.64 43.9608 3.64H40.3143V13ZM41.4843 7.5465V4.732H43.9478C44.3855 4.732 44.7408 4.85983 45.0138 5.1155C45.2911 5.37117 45.4298 5.7005 45.4298 6.1035C45.4298 6.54117 45.2846 6.89217 44.9943 7.1565C44.7083 7.4165 44.3595 7.5465 43.9478 7.5465H41.4843ZM41.4843 11.895V8.6385H44.1948C44.6931 8.6385 45.0983 8.801 45.4103 9.126C45.7223 9.44667 45.8783 9.84317 45.8783 10.3155C45.8783 10.8095 45.705 11.1973 45.3583 11.479C45.0116 11.7563 44.5805 11.895 44.0648 11.895H41.4843ZM47.7131 13H48.9156L49.6501 10.8095H53.6476L54.3886 13H55.5911L52.4581 3.64H50.8461L47.7131 13ZM50.0141 9.724L51.6391 4.8555L53.2836 9.724H50.0141ZM60.3488 13.195C61.4322 13.195 62.3227 12.9198 63.0203 12.3695C63.7223 11.8148 64.2055 11.0738 64.4698 10.1465L63.2933 9.8345C63.1027 10.5278 62.7603 11.0782 62.2663 11.4855C61.7767 11.8885 61.1375 12.09 60.3488 12.09C59.6512 12.09 59.0683 11.9318 58.6003 11.6155C58.1323 11.2992 57.7813 10.8572 57.5473 10.2895C57.3133 9.72183 57.1985 9.06533 57.2028 8.32C57.2072 7.57033 57.3263 6.91383 57.5603 6.3505C57.7943 5.78283 58.1432 5.34083 58.6068 5.0245C59.0705 4.70817 59.6512 4.55 60.3488 4.55C61.1375 4.55 61.7767 4.7515 62.2663 5.1545C62.7603 5.5575 63.1027 6.10783 63.2933 6.8055L64.4698 6.4935C64.2055 5.56183 63.7223 4.82083 63.0203 4.2705C62.3227 3.72017 61.4322 3.445 60.3488 3.445C59.4172 3.445 58.6242 3.65083 57.9698 4.0625C57.3198 4.47417 56.8258 5.04617 56.4878 5.7785C56.1498 6.51083 55.9808 7.358 55.9808 8.32C55.9808 9.282 56.1498 10.1292 56.4878 10.8615C56.8258 11.5938 57.3198 12.1658 57.9698 12.5775C58.6242 12.9892 59.4172 13.195 60.3488 13.195ZM65.8954 13H67.0524V8.424L71.4399 13H72.9349L68.3524 8.1835L72.6034 3.64H71.1474L67.0524 8.034V3.64H65.8954V13Z" fill="#9A9A9A"/>
</svg>
