<svg width="26" height="31" viewBox="0 0 26 31" fill="none" xmlns="http://www.w3.org/2000/svg">
<path d="M23.5924 0.891602H2.4067C1.10666 0.891643 0.0527734 2.01432 0.0527344 3.39923V28.4755C0.0527734 29.8604 1.10666 30.9831 2.4067 30.9831H23.5924C24.8924 30.9831 25.9463 29.8604 25.9463 28.4755V3.39923C25.9463 2.01432 24.8924 0.891643 23.5924 0.891602Z" fill="#01B58A"/>
<path d="M23.5924 0.891602H2.4067C1.10666 0.891643 0.0527734 2.01432 0.0527344 3.39923V28.4755C0.0527734 29.8604 1.10666 30.9831 2.4067 30.9831H23.5924C24.8924 30.9831 25.9463 29.8604 25.9463 28.4755V3.39923C25.9463 2.01432 24.8924 0.891643 23.5924 0.891602Z" stroke="#DEDEDE"/>
<path d="M13.9248 26.2766H6.28809C5.44456 26.2766 4.76074 25.7496 4.76074 25.0996C4.76074 24.4496 5.44456 23.9226 6.28809 23.9226H13.9248C14.7683 23.9226 15.4521 24.4496 15.4521 25.0996C15.4521 25.7496 14.7683 26.2766 13.9248 26.2766Z" fill="#FCFCFD"/>
<path d="M13.9248 26.2766H6.28809C5.44456 26.2766 4.76074 25.7496 4.76074 25.0996C4.76074 24.4496 5.44456 23.9226 6.28809 23.9226H13.9248C14.7683 23.9226 15.4521 24.4496 15.4521 25.0996C15.4521 25.7496 14.7683 26.2766 13.9248 26.2766Z" stroke="#DEDEDE"/>
<path d="M20.0615 21.538H5.93772C5.28769 21.538 4.76074 21.0111 4.76074 20.3611C4.76074 19.711 5.28769 19.1841 5.93772 19.1841H20.0615C20.7115 19.1841 21.2385 19.711 21.2385 20.3611C21.2385 21.0111 20.7115 21.538 20.0615 21.538Z" fill="#FCFCFD"/>
<path d="M20.0615 21.538H5.93772C5.28769 21.538 4.76074 21.0111 4.76074 20.3611C4.76074 19.711 5.28769 19.1841 5.93772 19.1841H20.0615C20.7115 19.1841 21.2385 19.711 21.2385 20.3611C21.2385 21.0111 20.7115 21.538 20.0615 21.538Z" stroke="#DEDEDE"/>
<path d="M10.2181 9.86593H11.9653V12.9585C11.9653 13.5279 12.4282 13.9894 12.9992 13.9894C13.5702 13.9894 14.033 13.5279 14.033 12.9585V9.86593H15.7803C16.0937 9.86566 16.3761 9.67729 16.496 9.38857C16.6159 9.09984 16.5497 8.76754 16.3282 8.54643L12.9992 5.22705L9.67015 8.54643C9.44868 8.76754 9.38247 9.09984 9.50237 9.38857C9.62227 9.67729 9.90469 9.86566 10.2181 9.86593Z" fill="#FCFCFD"/>
</svg>
