<svg width="20" height="20" viewBox="0 0 20 20" fill="none" xmlns="http://www.w3.org/2000/svg">
<path fill-rule="evenodd" clip-rule="evenodd" d="M10.8876 9.11261C10.6626 8.88761 10.3501 8.75011 10.0001 8.75011C9.65006 8.75011 9.33756 8.88761 9.11256 9.11261L5.36256 12.8626C5.13756 13.0876 5.00006 13.4001 5.00006 13.7501C5.00006 14.4376 5.56256 15.0001 6.25006 15.0001C6.60006 15.0001 6.91256 14.8626 7.13756 14.6376L8.75006 13.0126V18.7501C8.75006 19.4376 9.31256 20.0001 10.0001 20.0001C10.6876 20.0001 11.2501 19.4376 11.2501 18.7501V13.0126L12.8626 14.6251C13.0876 14.8626 13.4001 15.0001 13.7501 15.0001C14.4376 15.0001 15.0001 14.4376 15.0001 13.7501C15.0001 13.4001 14.8626 13.0876 14.6376 12.8626L10.8876 9.11261ZM15 5C14.9625 5 14.9125 5 14.875 5.0125C14.3 2.15 11.775 0 8.75 0C5.3 0 2.5 2.8 2.5 6.25C2.5 6.3875 2.5125 6.525 2.525 6.6625C1.0375 7.3625 0 8.875 0 10.625C0 12.4125 1.075 13.95 2.6125 14.625C2.55 14.3375 2.5 14.05 2.5 13.75C2.5 12.7125 2.925 11.775 3.6 11.1L7.35 7.35C8.025 6.675 8.9625 6.25 10 6.25C11.0375 6.25 11.975 6.675 12.65 7.35L16.4 11.1C17.075 11.775 17.5 12.7125 17.5 13.75C17.5 13.95 17.475 14.15 17.4375 14.3375C18.9625 13.475 20 11.875 20 10C20 7.2375 17.7625 5 15 5Z" fill="black"/>
</svg>
