<svg width="24" height="24" viewBox="0 0 24 24" fill="none" xmlns="http://www.w3.org/2000/svg">
<path d="M6 17.9999H18C18.55 17.9999 19 18.4499 19 18.9999C19 19.5499 18.55 19.9999 18 19.9999H6C5.45 19.9999 5 19.5499 5 18.9999C5 18.4499 5.45 17.9999 6 17.9999Z" fill="#9A9A9A"/>
<path d="M6.68626 5.30761C6.10048 4.72183 6.10048 3.77208 6.68626 3.18629C7.27205 2.60051 8.2218 2.60051 8.80758 3.18629L18 12.3787C18.5858 12.9645 18.5858 13.9142 18 14.5C17.4142 15.0858 16.4644 15.0858 15.8786 14.5L6.68626 5.30761Z" fill="#9A9A9A"/>
<path d="M18 5.30761C18.5858 4.72183 18.5858 3.77208 18 3.18629C17.4142 2.60051 16.4645 2.60051 15.8787 3.18629L6.68629 12.3787C6.1005 12.9645 6.1005 13.9142 6.68629 14.5C7.27208 15.0858 8.22183 15.0858 8.80761 14.5L18 5.30761Z" fill="#9A9A9A"/>
</svg>
