<svg width="24" height="24" viewBox="0 0 24 24" fill="none" xmlns="http://www.w3.org/2000/svg">
<path fill-rule="evenodd" clip-rule="evenodd" d="M13.615 12.4999L18.55 7.56494C18.835 7.29494 19 6.91994 19 6.49994C19 5.67494 18.325 4.99994 17.5 4.99994C17.08 4.99994 16.705 5.16494 16.435 5.43494L11.5 10.3849L6.565 5.43494C6.295 5.16494 5.92 4.99994 5.5 4.99994C4.675 4.99994 4 5.67494 4 6.49994C4 6.91994 4.165 7.29494 4.435 7.56494L9.385 12.4999L4.45 17.4349C4.165 17.7049 4 18.0799 4 18.4999C4 19.3249 4.675 19.9999 5.5 19.9999C5.92 19.9999 6.295 19.8349 6.565 19.5649L11.5 14.6149L16.435 19.5499C16.705 19.8349 17.08 19.9999 17.5 19.9999C18.325 19.9999 19 19.3249 19 18.4999C19 18.0799 18.835 17.7049 18.565 17.4349L13.615 12.4999Z" fill="#8F95B2"/>
</svg>
