<svg xmlns="http://www.w3.org/2000/svg" width="44" height="44" viewBox="0 0 44 44" fill="none">
<rect width="44" height="44" rx="22" fill="#868b8b"/>
<rect width="24.2" height="24.2" transform="translate(9.90039 9.90137)" fill="#868b8b"/>
<path fill-rule="evenodd" clip-rule="evenodd" d="M29.5628 20.4893H23.5128V14.4393C23.5128 13.6074 22.8322 12.9268 22.0003 12.9268C21.1684 12.9268 20.4878 13.6074 20.4878 14.4393V20.4893H14.4378C13.6059 20.4893 12.9253 21.1699 12.9253 22.0018C12.9253 22.8336 13.6059 23.5143 14.4378 23.5143H20.4878V29.5643C20.4878 30.3961 21.1684 31.0768 22.0003 31.0768C22.8322 31.0768 23.5128 30.3961 23.5128 29.5643V23.5143H29.5628C30.3947 23.5143 31.0753 22.8336 31.0753 22.0018C31.0753 21.1699 30.3947 20.4893 29.5628 20.4893Z" fill="#ffffff"/>
</svg>