<svg width="16" height="17" viewBox="0 0 16 17" fill="none" xmlns="http://www.w3.org/2000/svg">
<path fill-rule="evenodd" clip-rule="evenodd" d="M3.74962 2.07174C3.94488 1.87648 4.26147 1.87648 4.45673 2.07174L7.63871 5.25372C7.83397 5.44898 7.83397 5.76556 7.63871 5.96083C7.44345 6.15609 7.12686 6.15609 6.9316 5.96083L4.60318 3.6324L4.60318 14.5742C4.60318 14.8504 4.37932 15.0742 4.10318 15.0742C3.82703 15.0742 3.60318 14.8504 3.60318 14.5742L3.60318 3.6324L1.27475 5.96083C1.07949 6.15609 0.762904 6.15609 0.567642 5.96083C0.372379 5.76556 0.372379 5.44898 0.567642 5.25372L3.74962 2.07174Z" fill="#6E55D5"/>
<path fill-rule="evenodd" clip-rule="evenodd" d="M14.6387 11.7458L11.4567 14.9278C11.2615 15.123 10.9449 15.123 10.7496 14.9278L7.56764 11.7458C7.37238 11.5505 7.37238 11.2339 7.56764 11.0387C7.7629 10.8434 8.07949 10.8434 8.27475 11.0387L10.6032 13.3671L10.6032 2.42529C10.6032 2.14915 10.827 1.92529 11.1032 1.92529C11.3793 1.92529 11.6032 2.14915 11.6032 2.42529L11.6032 13.3671L13.9316 11.0387C14.1269 10.8434 14.4434 10.8434 14.6387 11.0387C14.834 11.2339 14.834 11.5505 14.6387 11.7458Z" fill="#6E55D5"/>
</svg>
