<svg width="17" height="16" viewBox="0 0 17 16" fill="none" xmlns="http://www.w3.org/2000/svg">
<g clip-path="url(#clip0_19672_11137)">
<path d="M9.41602 0.666504L9.41668 2.70784C10.5915 2.85636 11.6835 3.39146 12.5208 4.22885C13.3581 5.06624 13.893 6.15834 14.0413 7.33317H16.0827V8.6665L14.0413 8.66717C13.8929 9.84188 13.3579 10.9338 12.5206 11.7711C11.6833 12.6083 10.5914 13.1433 9.41668 13.2918L9.41602 15.3332H8.08268V13.2918C6.90785 13.1435 5.81575 12.6085 4.97836 11.7713C4.14097 10.934 3.60588 9.84198 3.45735 8.66717L1.41602 8.6665V7.33317H3.45735C3.60574 6.15824 4.14077 5.06606 4.97817 4.22866C5.81557 3.39126 6.90775 2.85623 8.08268 2.70784V0.666504H9.41602ZM8.74935 3.99984C7.68848 3.99984 6.67107 4.42126 5.92092 5.17141C5.17078 5.92156 4.74935 6.93897 4.74935 7.99984C4.74935 9.0607 5.17078 10.0781 5.92092 10.8283C6.67107 11.5784 7.68848 11.9998 8.74935 11.9998C9.81021 11.9998 10.8276 11.5784 11.5778 10.8283C12.3279 10.0781 12.7493 9.0607 12.7493 7.99984C12.7493 6.93897 12.3279 5.92156 11.5778 5.17141C10.8276 4.42126 9.81021 3.99984 8.74935 3.99984ZM8.74935 6.6665C9.10297 6.6665 9.44211 6.80698 9.69216 7.05703C9.94221 7.30708 10.0827 7.64621 10.0827 7.99984C10.0827 8.35346 9.94221 8.6926 9.69216 8.94265C9.44211 9.19269 9.10297 9.33317 8.74935 9.33317C8.39573 9.33317 8.05659 9.19269 7.80654 8.94265C7.55649 8.6926 7.41602 8.35346 7.41602 7.99984C7.41602 7.64621 7.55649 7.30708 7.80654 7.05703C8.05659 6.80698 8.39573 6.6665 8.74935 6.6665Z" fill="#385DDF"/>
</g>
<defs>
<clipPath id="clip0_19672_11137">
<rect width="16" height="16" fill="white" transform="translate(0.75)"/>
</clipPath>
</defs>
</svg>
