<svg width="26" height="26" viewBox="0 0 26 26" fill="none" xmlns="http://www.w3.org/2000/svg">
<path d="M21.4855 4.5151C18.0535 1.08309 12.892 0.0564163 8.40786 1.9138C3.92373 3.77119 1 8.14686 1 13.0005C1 17.854 3.92373 22.2297 8.40786 24.0871C12.892 25.9445 18.0535 24.9178 21.4855 21.4858C26.1717 16.7994 26.1717 9.20145 21.4855 4.5151Z" fill="#01B58A"/>
<path d="M21.4855 4.5151L21.9569 4.04368L21.9569 4.04368L21.4855 4.5151ZM21.4855 21.4858L21.9569 21.9572L21.9569 21.9572L21.4855 21.4858ZM21.9569 4.04368C18.3342 0.421 12.886 -0.662718 8.15273 1.29786L8.66299 2.52975C12.898 0.77555 17.7727 1.74519 21.014 4.98652L21.9569 4.04368ZM8.15273 1.29786C3.41947 3.25844 0.333308 7.87721 0.333308 13.0005H1.66669C1.66669 8.41651 4.42799 4.28394 8.66299 2.52975L8.15273 1.29786ZM0.333308 13.0005C0.333308 18.1237 3.41947 22.7425 8.15273 24.703L8.66299 23.4712C4.42799 21.717 1.66669 17.5844 1.66669 13.0005H0.333308ZM8.15273 24.703C12.886 26.6636 18.3342 25.5799 21.9569 21.9572L21.014 21.0144C17.7727 24.2557 12.898 25.2254 8.66299 23.4712L8.15273 24.703ZM21.9569 21.9572C26.9035 17.0105 26.9035 8.99039 21.9569 4.04368L21.014 4.98652C25.4399 9.41251 25.4399 16.5884 21.014 21.0144L21.9569 21.9572Z" fill="white"/>
<path d="M7.17641 11.9306L10.8527 16.099L18.7041 9.00004" stroke="white" stroke-width="2.5" stroke-linecap="round" stroke-linejoin="round"/>
</svg>
