<svg width="16" height="20" viewBox="0 0 16 20" fill="none" xmlns="http://www.w3.org/2000/svg">
<mask id="mask0_20458_11484" style="mask-type:alpha" maskUnits="userSpaceOnUse" x="1" y="3" width="14" height="14">
<path fill-rule="evenodd" clip-rule="evenodd" d="M7.99967 3.33334C4.31967 3.33334 1.33301 6.32001 1.33301 10C1.33301 13.68 4.31967 16.6667 7.99967 16.6667C11.6797 16.6667 14.6663 13.68 14.6663 10C14.6663 6.32001 11.6797 3.33334 7.99967 3.33334ZM7.99967 10.6667C7.63301 10.6667 7.33301 10.3667 7.33301 10V7.33334C7.33301 6.96668 7.63301 6.66668 7.99967 6.66668C8.36634 6.66668 8.66634 6.96668 8.66634 7.33334V10C8.66634 10.3667 8.36634 10.6667 7.99967 10.6667ZM7.33301 12V13.3333H8.66634V12H7.33301Z" fill="black"/>
</mask>
<g mask="url(#mask0_20458_11484)">
<rect y="2" width="16" height="16" fill="#F95843"/>
</g>
</svg>
