<?xml version="1.0" encoding="UTF-8"?>
<svg version="1.1" viewBox="0 0 2048 2048" width="1280" height="1280" xmlns="http://www.w3.org/2000/svg">
<path transform="translate(508)" d="m0 0h689l7 8 556 556v1252l-2 21-5 25-7 23-11 26-10 18-10 15-10 13-12 14-13 13-11 9-10 8-17 11-18 10-20 9-24 8-26 6-16 3h-1027l-40-8-27-9-18-8-19-10-15-10-13-10-10-9-12-11-12-13-13-17-11-17-13-25-8-21-6-21-4-20-2-16-1-20v-1560l2-28 5-27 6-21 8-20 12-24 14-21 10-13 12-13 4-5h2v-2l8-7 13-11 19-13 17-10 23-11 27-9 27-6z" fill="#F45940"/>
<path transform="translate(1196)" d="m0 0 564 564-1 2-72-1h-92l-147 1h-112l-50-1-20-4-17-7-12-8-10-8-8-8-10-14-7-14-4-13-2-12-1-12-1-38v-147l1-270z" fill="#FE9787"/>
<path transform="translate(737,943)" d="m0 0h121l17 2 17 4 19 8 15 10 13 12 10 13 8 15 7 21 3 14 2 20v27l-3 23-6 21-8 18-7 11-9 11-8 7-13 9-15 7-15 5-16 3-9 1-41 1h-23v141l-1 1-55 1-2-1-1-3-1-262v-75z" fill="#FEFEFD"/>
<path transform="translate(1377,937)" d="m0 0h33l18 3 16 5 16 8 13 9 12 12 7 10 8 15 6 17 5 25 2 17-1 1h-56l-3-13-4-16-5-12-7-10-7-6-13-6-14-3h-18l-16 4-10 5-9 8-7 11-4 11-3 19v187l2 15 5 16 7 11 7 7 10 6 11 4 6 1h22l14-3 11-5 8-6 8-9 5-10 3-9 2-13 1-57-1-6-63-1v-51h120l1 1v105l-2 21-3 15-5 16-8 16-7 11-9 10-11 10-14 8-14 6-19 5-17 2h-25l-19-3-17-5-17-8-12-9-10-9-8-10-8-14-5-11-5-17-3-17-1-11-1-23v-154l2-25 3-17 5-16 5-12 8-13 9-11 7-7 13-9 16-8 17-5z" fill="#FEFEFD"/>
<path transform="translate(1061,942)" d="m0 0 157 1v54h-140l1 118h44l84 1v53h-129l1 88 1 36 143 1 1 1v52l-1 1-126 1h-76l-2-4v-401l1-1z" fill="#FEFEFD"/>
<path transform="translate(611,942)" d="m0 0h36l11 1v336l-1 24-3 21-5 18-7 17-10 16-11 12-14 10-15 8-19 6-25 4-15 1-1-1v-49l1-7 22-3 13-4 10-6 8-8 8-15 3-13 1-8 1-358 1-1z" fill="#FEFEFD"/>
<path transform="translate(805,997)" d="m0 0h46l17 3 12 5 9 6 8 9 8 16 4 15 2 19-1 21-4 19-5 12-8 11-8 7-14 7-16 3-19 1h-37l-3-1v-152z" fill="#F45A42"/>
</svg>
