<svg width="20" height="25" viewBox="0 0 20 25" fill="none" xmlns="http://www.w3.org/2000/svg">
<path fill-rule="evenodd" clip-rule="evenodd" d="M13.9995 0.763916V6.76392H19.9995L13.9995 0.763916ZM19 22.7639H1C0.447715 22.7639 0 23.2116 0 23.7639C0 24.3162 0.447715 24.7639 1 24.7639H19C19.5523 24.7639 20 24.3162 20 23.7639C20 23.2116 19.5523 22.7639 19 22.7639ZM2 0.763916H12V8.76392H20V12.7639H0V2.76392C0 1.65935 0.89543 0.763916 2 0.763916ZM19 14.7639H1C0.447715 14.7639 0 15.2116 0 15.7639C0 16.3162 0.447715 16.7639 1 16.7639H19C19.5523 16.7639 20 16.3162 20 15.7639C20 15.2116 19.5523 14.7639 19 14.7639ZM1 18.7639H19C19.5523 18.7639 20 19.2116 20 19.7639C20 20.3162 19.5523 20.7639 19 20.7639H1C0.447715 20.7639 0 20.3162 0 19.7639C0 19.2116 0.447715 18.7639 1 18.7639Z" fill="#385DDF"/>
</svg>
