<?xml version="1.0" encoding="UTF-8"?>
<svg version="1.1" viewBox="0 0 2048 2048" width="1280" height="1280" xmlns="http://www.w3.org/2000/svg">
<path transform="translate(508)" d="m0 0h689l7 8 556 556v1252l-2 21-5 25-7 23-11 26-10 18-10 15-10 13-12 14-13 13-11 9-10 8-17 11-18 10-20 9-24 8-26 6-16 3h-1027l-40-8-27-9-18-8-19-10-15-10-13-10-10-9-12-11-12-13-13-17-11-17-13-25-8-21-6-21-4-20-2-16-1-20v-1560l2-28 5-27 6-21 8-20 12-24 14-21 10-13 12-13 4-5h2v-2l8-7 13-11 19-13 17-10 23-11 27-9 27-6z" fill="#F45840"/>
<path transform="translate(1195)" d="m0 0h2l7 8 556 556-1 3h-235l-224-1-18-1-17-4-15-6-11-7-9-7-7-6-9-11-8-13-6-13-4-17-2-29v-435z" fill="#FE9787"/>
<path transform="translate(922,973)" d="m0 0h107l22 2 20 5 15 6 15 9 11 9 7 7 10 14 9 19 5 17 3 20 1 18v159l-2 21-4 18-6 17-10 18-11 13-11 10-13 8-18 8-20 5-19 2h-112l-1-11v-197l1-196z" fill="#FDFEFD"/>
<path transform="translate(641,973)" d="m0 0h112l22 2 17 4 16 6 14 8 10 8 13 13 9 14 8 17 5 17 4 27v31l-3 22-5 19-7 17-9 14-9 11-11 10-15 9-17 7-21 5-22 2h-54v142l-3 1h-55l-1-6v-399z" fill="#FDFEFD"/>
<path transform="translate(1218,973)" d="m0 0h190l1 39v15l-5 1h-71l-57 1v120h88l33 1 1 1v50l-1 1-121 1v128l-1 47h-57l-1-1-1-247v-76l1-80z" fill="#FDFEFD"/>
<path transform="translate(980,1028)" d="m0 0h53l15 3 12 5 9 7 8 9 7 15 3 12 1 7v174l-2 17-4 12-6 11-7 8-10 7-11 5-13 3-20 1h-34l-1-1z" fill="#F45840"/>
<path transform="translate(698,1028)" d="m0 0h60l16 4 14 7 9 9 8 14 4 12 3 21v18l-2 18-4 14-6 12-11 12-12 7-15 4-18 1h-45l-1-1-1-57v-93z" fill="#F45A43"/>
<path transform="translate(980,1028)" d="m0 0h53l15 3 12 5 1 2-6-2-13-4-5-1-55-1v292l50-1 16-2-3 2-10 2-20 1h-34l-1-1z" fill="#FE9787"/>
</svg>
