<svg width="16" height="18" viewBox="0 0 16 18" fill="none" xmlns="http://www.w3.org/2000/svg">
<path fill-rule="evenodd" clip-rule="evenodd" d="M9.6 0H1.6C0.716363 4.25231e-05 4.41786e-05 0.689518 0 1.54004V16.9405C4.41786e-05 17.791 0.716363 18.4805 1.6 18.4805H14.4C15.2836 18.4805 16 17.791 16 16.9405V6.16017H9.6V0ZM11.2 0V4.62013H16L11.2 0ZM4 10.5878H3V12.5128H4C4.11037 12.5126 4.19979 12.4266 4.2 12.3203V10.7803C4.19979 10.6741 4.11037 10.588 4 10.5878ZM8.7998 14.0529H7.7998V10.5878H8.7998C8.91017 10.588 8.99959 10.6741 8.9998 10.7803V13.8604C8.99959 13.9666 8.91017 14.0527 8.7998 14.0529ZM3.9998 13.6679C4.77261 13.667 5.39887 13.0642 5.3998 12.3203V10.7803C5.39887 10.0365 4.77261 9.43367 3.9998 9.43276H1.7998V14.6304C1.7998 14.9494 2.06843 15.2079 2.3998 15.2079C2.73118 15.2079 2.9998 14.9494 2.9998 14.6304V13.6679H3.9998ZM11.4004 9.43258H13.6004C13.9318 9.43258 14.2004 9.69114 14.2004 10.0101C14.2004 10.329 13.9318 10.5876 13.6004 10.5876H12.6004V11.7816C12.6642 11.7575 12.7319 11.7443 12.8004 11.7426H13.6004C13.9318 11.7426 14.2004 12.0012 14.2004 12.3202C14.2004 12.6391 13.9318 12.8977 13.6004 12.8977H12.8004C12.7319 12.896 12.6642 12.8828 12.6004 12.8588V14.6302C12.6004 14.9492 12.3318 15.2077 12.0004 15.2077C11.669 15.2077 11.4004 14.9492 11.4004 14.6302V9.43258ZM10.1996 13.8602V10.7801C10.1987 10.0363 9.57242 9.43348 8.79961 9.43258H6.59961V15.2077H8.79961C9.57242 15.2068 10.1987 14.604 10.1996 13.8602Z" fill="#D85564"/>
</svg>
