<?xml version="1.0" encoding="UTF-8"?>
<svg version="1.1" viewBox="0 0 2048 2048" width="1280" height="1280" xmlns="http://www.w3.org/2000/svg">
<path transform="translate(425)" d="m0 0h786l10 9 11 9 13 11 11 9 14 12 11 9 13 11 11 9 13 11 11 9 13 11 11 9 14 12 11 9 14 12 10 8 14 12 11 9 14 12 10 8 14 12 11 9 13 11 11 9 14 12 11 9 13 11 11 9 13 11 11 9 14 12 11 9 13 11 11 9 14 12 11 9 13 11 11 9 14 12 11 9 13 11 11 9 14 12 11 9 13 11 11 9 13 11 11 9 13 11 11 9 14 12 11 9 13 11 11 9 14 12 11 9 14 12 10 8 2 3 1 299 1 356 1 276 1 381-1 24-2 14-5 17-7 17-8 13-9 12-11 12-11 9-16 10-15 7-18 6-12 3h-1380l-28-8-16-7-16-10-14-12-9-9-10-13-9-16-6-14-5-19-2-13-1-16v-212h-118l-20-1-13-4-11-7-10-10-6-10-4-14-1-14v-598l2-15 8-16 7-8 8-7 10-5 11-3 136-1 1-846 1-20 3-18 7-21 9-17 9-13 9-10 10-10 15-11 19-10 21-7z" fill="#4EB5F8"/>
<path transform="translate(311,986)" d="m0 0h162l1066 1 12 3 12 6 10 9 8 11 4 9 1 25 1 598-2 13-5 10-8 10-10 9-12 6-9 2-11 1h-1338l-20-1-13-4-11-7-10-10-6-10-4-14-1-14v-598l2-15 8-16 7-8 8-7 10-5 11-3z" fill="#0176CC"/>
<path transform="translate(1209)" d="m0 0 4 2 14 12 11 9 13 11 11 9 14 12 11 9 13 11 11 9 26 22 10 8 14 12 11 9 14 12 14 11 10 9 11 9 14 12 14 11 10 9 11 9 13 11 11 9 14 12 11 9 13 11 11 9 13 11 11 9 14 12 11 9 13 11 11 9 14 12 11 9 13 11 11 9 14 12 11 9 13 11 11 9 14 12 11 9 13 11 11 9 13 11 11 9 13 11 11 9 14 12 11 9 13 11 11 9 14 12 11 9 13 11 16 13v3l-11 1h-632l-54-1-7-1-1-1-1-16-1-36v-119l1-212v-205z" fill="#0176CC"/>
<path transform="translate(740,1196)" d="m0 0h14l20 1 7 8 21 31 13 19 17 25 11 16 32 47 11 16h1v-156l1-6 37-1h14l34 1 1 1v296l-3 2h-82l-5-4-16-24-7-10-19-28-16-23-34-51-8-11-7-10-2-1v160l-4 2h-82l-1-1v-297l1-1z" fill="#FDFDFD"/>
<path transform="translate(1166,1192)" d="m0 0h45l27 3 19 4 17 7 16 10 12 12 11 16 11 23 1 8-8 3-71 13-9 1-8-14-9-10-14-7-12-3h-19l-15 4-12 6-10 9-5 6-8 16-4 16-2 15v35l4 22 6 16 7 11 9 9 14 8 15 4h26l16-4 20-8 13-7v-27l-61-1-1-1v-61l79-1h43l19 1 1 1v125l-7 6-18 11-20 11-25 10-19 5-22 4-9 1-29 1-30-2-22-4-17-5-18-8-11-7-13-11-9-9-11-15-9-17-7-19-5-18-3-21v-36l4-27 7-23 8-17 8-12 10-13 13-13 14-10 14-8 16-6 16-4z" fill="#FDFDFD"/>
<path transform="translate(414,1196)" d="m0 0 142 1 19 3 18 6 14 8 10 9 9 12 7 14 5 19 1 7v27l-4 19-5 13-6 11-7 9-9 9-11 7-13 6-13 4-16 3-9 1-31 1h-37v108l-3 3h-90l-1-1v-296l1-2z" fill="#FDFDFD"/>
<path transform="translate(479,1257)" d="m0 0h36l13 3 8 4 7 7 5 10 1 5v10l-4 11-7 8-8 5-13 4-16 1h-15l-8-1-1-1v-64z" fill="#0478CD"/>
<path transform="translate(775,1334)" d="m0 0 3 1-1 2v59l-1 99-5 1 3-2z" fill="#4EB5F8"/>
<path transform="translate(887,1197)" d="m0 0h1v162h-3v-3l1-158z" fill="#4EB5F8"/>
</svg>
