<?xml version="1.0" encoding="UTF-8"?>
<svg version="1.1" viewBox="0 0 2048 2048" width="1280" height="1280" xmlns="http://www.w3.org/2000/svg">
<path transform="translate(508)" d="m0 0h689l7 8 556 556v1252l-2 21-5 25-7 23-11 26-10 18-10 15-10 13-12 14-13 13-11 9-10 8-17 11-18 10-20 9-24 8-26 6-16 3h-1027l-40-8-27-9-18-8-19-10-15-10-13-10-10-9-12-11-12-13-13-17-11-17-13-25-8-21-6-21-4-20-2-16-1-20v-1560l2-28 5-27 6-21 8-20 12-24 14-21 10-13 12-13 4-5h2v-2l8-7 13-11 19-13 17-10 23-11 27-9 27-6z" fill="#F55940"/>
<path transform="translate(1196)" d="m0 0 564 564-1 2-72-1h-93l-164 1h-87l-57-1-15-3-15-5-15-8-13-10-9-9-10-14-8-17-4-15-2-19-1-41v-136l1-276z" fill="#FE9787"/>
<path transform="translate(608,974)" d="m0 0h122l21 3 20 6 19 10 11 9 12 12 7 10 8 16 4 10 5 21 2 14v39l-4 24-5 17-8 17-8 12-9 10-10 9-13 8-13 6-17 5-17 3-16 1h-53v142l-2 1h-55l-1-1-1-51v-302z" fill="#FEFEFE"/>
<path transform="translate(943,973)" d="m0 0 5 1 11 23 13 29 16 35 12 27 15 33 26 58 14 33 18 44 4 11 3 1-4-42-2-29-2-46v-177l2-1h55l1 1v403l-6 2h-44l-7-1-6-9-15-33-13-29-16-35-30-66-16-36-10-26-22-55-3-7h-1v10l3 36 2 41 1 24v185l-11 1h-44l-2-1-1-4v-127l1-273z" fill="#FEFEFE"/>
<path transform="translate(1307,967)" d="m0 0h23l15 2 17 4 17 7 11 7 10 8 10 10 11 17 6 14 5 17 4 22 1 14-1 1h-54l-2-1-6-27-6-15-7-9-7-6-11-5-12-3h-24l-12 3-14 7-8 8-8 16-3 11-2 18v174l1 16 4 17 7 14 7 8 10 7 11 4 12 2h15l17-3 10-4 8-6 8-8 8-16 3-14 1-15v-52l-62-1-2-4v-46l1-1h120l1 3v104l-2 19-4 20-7 19-9 16-9 11-10 10-14 9-15 7-16 5-19 3h-31l-17-3-17-5-17-8-10-7-10-9-8-9-10-16-8-19-4-17-2-14-1-13v-183l3-24 5-19 5-13 9-15 8-10 9-9 13-9 14-7 20-6z" fill="#FEFEFE"/>
<path transform="translate(666,1028)" d="m0 0h60l14 3 12 5 9 7 7 9 7 14 4 16 1 9v26l-2 16-4 13-5 10-7 9h-2v2l-12 8-17 5-16 1h-48l-1-1z" fill="#F55A41"/>
<path transform="translate(889,974)" d="m0 0h1v404h57l-1-185-2-49-3-44-1-8v-10h3l1 5-2-1 4 54 2 35 1 51v120l-1 33-2 1h-55l-2-1-1-3v-241z" fill="#FE9787"/>
<path transform="translate(1317,1160)" d="m0 0h1l1 46 1 3 62 1 1 1v52l-2 21h-1l1-23v-49l-63-1-1-1z" fill="#FE9787"/>
</svg>
