<svg width="14" height="16" viewBox="0 0 14 16" fill="none" xmlns="http://www.w3.org/2000/svg">
<path d="M0.701361 15.0745H12.7007C13.0793 15.0745 13.4021 14.8052 13.4021 14.4725C13.4021 14.1452 13.0793 13.8706 12.7007 13.8706H0.701361C0.335164 13.8706 0 14.1452 0 14.4725C0 14.8052 0.335164 15.0745 0.701361 15.0745Z" fill="#385DDF"/>
<path d="M8.50451 4.00831L4.66911 4.00831C4.07553 4.00831 3.77621 4.31515 3.77621 4.93412L3.77621 6.02394L1.9752 6.02394C1.52875 6.02394 1.17869 6.30433 1.17869 6.73285C1.17869 6.98679 1.30045 7.2037 1.53889 7.41531L5.87655 11.3619C6.13529 11.5947 6.33822 11.7217 6.58681 11.7217C6.8354 11.7217 7.0434 11.5947 7.30214 11.3619L11.6398 7.41531C11.8833 7.19311 12 6.98679 12 6.73285C12 6.30433 11.6499 6.02394 11.2035 6.02394L9.40248 6.02394L9.40248 4.93412C9.40248 4.31515 9.10316 4.00831 8.50451 4.00831ZM8.54509 0.484912L4.62852 0.484913C4.09583 0.484913 3.77621 0.812917 3.77621 1.36841L3.77621 2.26248C3.77621 2.81268 4.09583 3.14068 4.62852 3.14068L8.54509 3.14068C9.08286 3.14068 9.40248 2.81268 9.40248 2.26248L9.40248 1.36841C9.40248 0.812916 9.08286 0.484912 8.54509 0.484912Z" fill="#385DDF"/>
</svg>
