<svg width="20" height="20" viewBox="0 0 20 20" fill="none" xmlns="http://www.w3.org/2000/svg">
<path fill-rule="evenodd" clip-rule="evenodd" d="M10.8875 9.1125C10.6625 8.8875 10.35 8.75 10 8.75C9.65 8.75 9.3375 8.8875 9.1125 9.1125L5.3625 12.8625C5.1375 13.0875 5 13.4 5 13.75C5 14.4375 5.5625 15 6.25 15C6.6 15 6.9125 14.8625 7.1375 14.6375L8.75 13.0125V18.75C8.75 19.4375 9.3125 20 10 20C10.6875 20 11.25 19.4375 11.25 18.75V13.0125L12.8625 14.625C13.0875 14.8625 13.4 15 13.75 15C14.4375 15 15 14.4375 15 13.75C15 13.4 14.8625 13.0875 14.6375 12.8625L10.8875 9.1125ZM15 5C14.9625 5 14.9125 5 14.875 5.0125C14.3 2.15 11.775 0 8.75 0C5.3 0 2.5 2.8 2.5 6.25C2.5 6.3875 2.5125 6.525 2.525 6.6625C1.0375 7.3625 0 8.875 0 10.625C0 12.4125 1.075 13.95 2.6125 14.625C2.55 14.3375 2.5 14.05 2.5 13.75C2.5 12.7125 2.925 11.775 3.6 11.1L7.35 7.35C8.025 6.675 8.9625 6.25 10 6.25C11.0375 6.25 11.975 6.675 12.65 7.35L16.4 11.1C17.075 11.775 17.5 12.7125 17.5 13.75C17.5 13.95 17.475 14.15 17.4375 14.3375C18.9625 13.475 20 11.875 20 10C20 7.2375 17.7625 5 15 5Z" fill="#9A9A9A"/>
</svg>
