<svg width="21" height="21" viewBox="0 0 21 21" fill="none" xmlns="http://www.w3.org/2000/svg">
<path fill-rule="evenodd" clip-rule="evenodd" d="M10.9305 9.6125C10.7055 9.3875 10.393 9.25 10.043 9.25C9.69297 9.25 9.38047 9.3875 9.15547 9.6125L5.40547 13.3625C5.18047 13.5875 5.04297 13.9 5.04297 14.25C5.04297 14.9375 5.60547 15.5 6.29297 15.5C6.64297 15.5 6.95547 15.3625 7.18047 15.1375L8.79297 13.5125V19.25C8.79297 19.9375 9.35547 20.5 10.043 20.5C10.7305 20.5 11.293 19.9375 11.293 19.25V13.5125L12.9055 15.125C13.1305 15.3625 13.443 15.5 13.793 15.5C14.4805 15.5 15.043 14.9375 15.043 14.25C15.043 13.9 14.9055 13.5875 14.6805 13.3625L10.9305 9.6125ZM15.043 5.5C15.0055 5.5 14.9555 5.5 14.918 5.5125C14.343 2.65 11.818 0.5 8.79297 0.5C5.34297 0.5 2.54297 3.3 2.54297 6.75C2.54297 6.8875 2.55547 7.025 2.56797 7.1625C1.08047 7.8625 0.0429688 9.375 0.0429688 11.125C0.0429688 12.9125 1.11797 14.45 2.65547 15.125C2.59297 14.8375 2.54297 14.55 2.54297 14.25C2.54297 13.2125 2.96797 12.275 3.64297 11.6L7.39297 7.85C8.06797 7.175 9.00547 6.75 10.043 6.75C11.0805 6.75 12.018 7.175 12.693 7.85L16.443 11.6C17.118 12.275 17.543 13.2125 17.543 14.25C17.543 14.45 17.518 14.65 17.4805 14.8375C19.0055 13.975 20.043 12.375 20.043 10.5C20.043 7.7375 17.8055 5.5 15.043 5.5Z" fill="white"/>
</svg>
