<?xml version="1.0" encoding="UTF-8"?>
<svg version="1.1" viewBox="0 0 2048 2048" width="1280" height="1280" xmlns="http://www.w3.org/2000/svg">
<path transform="translate(508)" d="m0 0h689l7 8 556 556v1252l-2 21-5 25-7 23-11 26-10 18-10 15-10 13-12 14-13 13-11 9-10 8-17 11-18 10-20 9-24 8-26 6-16 3h-1027l-40-8-27-9-18-8-19-10-15-10-13-10-10-9-12-11-12-13-13-17-11-17-13-25-8-21-6-21-4-20-2-16-1-20v-1560l2-28 5-27 6-21 8-20 12-24 14-21 10-13 12-13 4-5h2v-2l8-7 13-11 19-13 17-10 23-11 27-9 27-6z" fill="#F55940"/>
<path transform="translate(1196)" d="m0 0 564 564-1 2-42-1h-186l-119 1h-61l-64-1-16-3-15-5-15-8-14-11-8-8-9-13-8-15-4-13-2-12-1-13-1-49v-99l1-303z" fill="#FE9787"/>
<path transform="translate(1271,965)" d="m0 0 22 1 17 3 18 6 13 7 11 8 8 7 10 13 7 12 6 15 4 16 3 24-1 1h-57l-2-6-4-17-5-11-6-9-9-7-9-4-8-2h-24l-16 5-11 8-6 8-4 9-2 10v12l3 13 7 13 11 12 13 11 20 13 29 17 22 14 16 12 11 9 10 10 11 15 8 16 5 15 3 14 1 9v11l-2 17-5 19-6 14-8 13-11 12-8 8-14 9-15 7-21 6-14 2h-31l-18-3-21-7-17-9-11-9-9-9-7-10-7-12-6-16-4-16-2-14v-12h58l2 7 3 17 5 12 7 9 8 7 12 6 16 3h13l18-3 14-7 10-10 8-16 2-10v-17l-4-13-6-11-9-11-13-11-17-12-23-14-19-12-12-8-11-8-11-9-12-11-9-10-7-10-9-17-6-21-1-6v-26l3-16 4-12 7-14 8-11 9-10 12-9 14-8 13-5 17-4z" fill="#FDFEFD"/>
<path transform="translate(717,973)" d="m0 0 5 1 5 10 11 26 13 30 18 42 11 26 2 1 7-17 17-40 13-31 9-21 11-25 1-1 62-1 1 2-14 30-12 26-15 32-15 33-13 27-13 28-7 15 1 7 30 65 13 29 7 15 15 32 15 33 7 16 6 12v4h-54l-8-1-5-8-16-38-20-47-11-26-10-24-2-5-5 8-13 31-27 63-13 30-7 16-2 1h-44l-18-1 1-4 26-56 13-29 7-15 15-32 15-33 9-19 8-18v-7l-16-34-13-28-16-34-13-28-16-34-14-31v-2z" fill="#FDFEFD"/>
<path transform="translate(983,973)" d="m0 0h13l18 1 1 1 1 348 132 1 1 1 1 52-1 1h-192l-1-24v-369l1-11z" fill="#FDFEFD"/>
</svg>
