<svg xmlns="http://www.w3.org/2000/svg" width="25" height="25" fill="none" viewBox="0 0 25 25">
  <path fill="#1B1C1E" d="M9.393 21h9.61a.684.684 0 00.695-.694c0-.333-.229-.576-.51-.71-.908-.406-1.085-1.662-.162-2.54.377-.333.665-.702.665-1.448V7.43c0-1.595-.82-2.43-2.409-2.43H9.409C7.828 5 7 5.827 7 7.43v11.162C7 20.172 7.827 21 9.393 21zm-.096-4.868c-.243 0-.45-.2-.45-.45v-8.99c0-.252.207-.451.45-.451.244 0 .45.2.45.45v8.99c0 .252-.206.451-.45.451zm2.977-2.083c-.37 0-.59-.214-.59-.554 0-.11.021-.23.08-.406l1.67-4.565c.163-.466.465-.695.916-.695.465 0 .776.23.938.695l1.67 4.565c.059.177.08.295.08.406 0 .332-.228.554-.59.554-.303 0-.503-.148-.613-.524l-.392-1.168H13.28l-.399 1.168c-.104.376-.31.524-.606.524zm1.27-2.608h1.633l-.783-2.378h-.066l-.783 2.378zm-3.951 8.17c-.79 0-1.204-.45-1.204-1.145 0-.672.473-1.137 1.256-1.137h7.372c.08 0 .162-.008.236-.022-.37.783-.325 1.632.074 2.304H9.593z"/>
</svg>
