<svg xmlns="http://www.w3.org/2000/svg" width="25" height="25" fill="none" viewBox="0 0 25 25">
  <path fill="#1B1C1E" d="M5.161 12.005h5.291c1.108 0 1.652-.545 1.652-1.688V6.68C12.104 5.545 11.56 5 10.453 5h-5.29C4.053 5 3.5 5.545 3.5 6.679v3.638c0 1.143.554 1.688 1.661 1.688zm9.95 0h5.3c1.107 0 1.651-.545 1.651-1.688V6.68C22.063 5.545 21.518 5 20.41 5h-5.3c-1.098 0-1.652.545-1.652 1.679v3.638c0 1.143.554 1.688 1.652 1.688zm-9.95 8.367h5.291c1.108 0 1.652-.545 1.652-1.687v-3.64c0-1.142-.544-1.687-1.652-1.687h-5.29c-1.108 0-1.662.545-1.662 1.688v3.639c0 1.142.554 1.687 1.661 1.687zm9.95 0h5.3c1.107 0 1.651-.545 1.651-1.687v-3.64c0-1.142-.544-1.687-1.652-1.687h-5.3c-1.098 0-1.652.545-1.652 1.688v3.639c0 1.142.554 1.687 1.652 1.687z"/>
</svg>
