<svg xmlns="http://www.w3.org/2000/svg" width="25" height="25" fill="none" viewBox="0 0 25 25">
  <path fill="#1B1C1E" fill-rule="evenodd" d="M19.938 9.313H16.75v-4.25c0-.585-.478-1.063-1.063-1.063H5.062c-.585 0-1.063.478-1.063 1.062v14.876C4 20.522 4.477 21 5.062 21h3.187v-4.25h4.25V21h7.438c.585 0 1.063-.479 1.063-1.063v-9.563c0-.584-.478-1.063-1.063-1.063zM9.312 14.625H6.124v-3.187h3.188v3.187zm0-5.313H6.124V6.126h3.188v3.188zm5.313 5.313h-3.188v-3.187h3.188v3.187zm0-5.313h-3.188V6.126h3.188v3.188zm4.25 9.563H16.75V16.75h2.125v2.125zm0-4.25H16.75v-3.187h2.125v3.187z" clip-rule="evenodd"/>
</svg>
