<svg xmlns="http://www.w3.org/2000/svg" width="25" height="25" fill="none" viewBox="0 0 25 25">
  <path fill="#000" d="M7.373 6.466a7.602 7.602 0 012.724-1.658c.288.38.654.686 1.07.896a2.945 2.945 0 002.666 0c.416-.21.782-.517 1.07-.896a7.602 7.602 0 012.724 1.658 3.386 3.386 0 00.201 2.796c.23.42.549.781.93 1.056.381.274.816.454 1.273.526a8.55 8.55 0 010 3.311c-.893.144-1.716.696-2.203 1.583a3.386 3.386 0 00-.201 2.797 7.602 7.602 0 01-2.724 1.657 3.105 3.105 0 00-1.07-.897 2.944 2.944 0 00-2.666 0c-.416.211-.782.518-1.07.897a7.601 7.601 0 01-2.724-1.657 3.388 3.388 0 00-.201-2.797 3.176 3.176 0 00-.93-1.055 2.985 2.985 0 00-1.272-.526 8.548 8.548 0 010-3.312 2.985 2.985 0 001.272-.527c.382-.274.7-.635.93-1.056a3.387 3.387 0 00.202-2.796zm6.28 8.137c.265-.159.497-.37.684-.623a2.48 2.48 0 00.403-.852 2.55 2.55 0 00-.229-1.85 2.394 2.394 0 00-.596-.716 2.264 2.264 0 00-.812-.418 2.195 2.195 0 00-1.757.252 2.418 2.418 0 00-1.063 1.475 2.54 2.54 0 00.232 1.835c.305.555.806.961 1.394 1.13a2.207 2.207 0 001.745-.233z"/>
</svg>
