<svg width="23" height="18" viewBox="0 0 23 18" fill="none" xmlns="http://www.w3.org/2000/svg">
<path fill-rule="evenodd" clip-rule="evenodd" d="M17.5402 14.2173C17.897 14.2173 18.1859 14.503 18.1859 14.8551C18.1859 15.2073 17.897 15.4933 17.5402 15.4933C17.182 15.4933 16.8931 15.2073 16.8931 14.8551C16.8931 14.503 17.182 14.2173 17.5402 14.2173ZM17.7326 8.81272C19.1456 8.8367 20.3387 10.3831 19.3758 11.7406C19.1438 12.0431 18.8535 12.1329 18.6039 12.2704C18.1524 12.518 18.0215 12.455 18.0215 13.0181C18.0215 13.6834 17.0344 13.6788 17.0026 13.0181L16.985 12.6159C16.9668 12.2343 17.2377 11.9165 17.4709 11.7527C17.8141 11.5104 18.0125 11.5225 18.3075 11.151C18.9997 10.2768 17.7358 9.38848 16.7608 10.0616C16.5109 10.2349 16.3615 10.4724 16.3615 10.9254C16.3783 11.5904 15.3732 11.5904 15.3897 10.9254C15.3897 10.2031 15.7237 9.6193 16.187 9.28101C16.6507 8.94012 17.2091 8.81272 17.7326 8.81272ZM17.6529 6.96788C17.1294 6.95748 16.6207 7.02219 16.1391 7.1545C14.2116 7.68259 12.7146 9.28332 12.4829 11.2122C12.2498 13.1414 12.7464 14.533 13.6778 15.5623L13.2294 16.8337C13.0743 17.2717 13.351 17.6114 13.7829 17.4355L15.3553 16.7901C15.8459 17.0157 16.38 17.1706 16.9471 17.2402C19.7834 17.5817 22.3294 15.6493 22.6798 12.7399C23.0302 9.83135 21.0155 7.34892 18.181 7.00717C18.0036 6.98464 17.8274 6.9725 17.6529 6.96788Z" fill="#1C1C1C"/>
<path d="M5.5068 11.4776H6.91022C7.05062 11.4776 7.16329 11.5905 7.16329 11.7303V14.4011C7.16329 14.5404 7.05033 14.6533 6.91022 14.6533H5.5068C5.36669 14.6533 5.25402 14.5404 5.25402 14.4011V11.7303C5.25431 11.5905 5.36669 11.4776 5.5068 11.4776ZM5.5068 6.47631H6.91022C7.05062 6.47631 7.16329 6.59071 7.16329 6.72909V9.40131C7.16329 9.54113 7.05033 9.65409 6.91022 9.65409H5.5068C5.36669 9.65409 5.25402 9.54113 5.25402 9.40131V6.72909C5.25431 6.58927 5.36669 6.47631 5.5068 6.47631ZM5.5068 1.47478H6.91022C7.05062 1.47478 7.16329 1.58773 7.16329 1.72756V4.39978C7.16329 4.5396 7.05033 4.65256 6.91022 4.65256H5.5068C5.36669 4.65256 5.25402 4.5396 5.25402 4.39978V1.72756C5.25431 1.58773 5.36669 1.47478 5.5068 1.47478ZM2.38304 0C1.0608 0 0 1.06282 0 2.38391V4.12013C0 4.87558 0.0450667 4.84091 0.632089 4.99749C1.9032 5.33751 2.82418 6.591 2.82418 8.0652C2.82418 9.53969 1.9032 10.7929 0.632089 11.1315C0.0450667 11.288 0 11.2551 0 12.0088V13.745C0 15.0661 1.0608 16.1284 2.38304 16.1284H12.1723C12.3757 16.1284 12.3789 15.9253 12.2899 15.7962C11.431 14.5369 10.8995 12.9778 11.1344 11.0309C11.4365 8.51991 13.3444 6.50347 15.7762 5.837C16.5886 5.61427 17.4599 5.54493 18.3447 5.65009C19.9336 5.84278 21.3347 6.58464 22.3458 7.68329C22.5547 7.9118 22.9892 7.80809 22.9892 7.57496V2.38391C22.9892 1.06282 21.9244 0 20.6062 0H2.38304Z" fill="#1C1C1C"/>
</svg>
