<svg width="18" height="21" viewBox="0 0 18 21" fill="none" xmlns="http://www.w3.org/2000/svg">
<path fill-rule="evenodd" clip-rule="evenodd" d="M10.6856 0H2.33879C1.41685 4.60936e-05 0.66948 0.747415 0.669434 1.66935V18.3629C0.66948 19.2848 1.41685 20.0322 2.33879 20.0323H15.6936C16.6156 20.0322 17.3629 19.2848 17.363 18.3629V6.67742H10.6856V0ZM12.3549 5.00806V0L17.363 5.00806H12.3549ZM4.84281 11.4768H3.79946V15.2329H4.84281C4.95796 15.2326 5.05126 15.1393 5.05148 15.0242V11.6855C5.05126 11.5703 4.95796 11.477 4.84281 11.4768ZM9.01619 11.4768C8.90104 11.477 8.80774 11.5703 8.80752 11.6855V15.0242C8.80774 15.1393 8.90104 15.2326 9.01619 15.2329H9.85087C9.96602 15.2326 10.0593 15.1393 10.0595 15.0242V11.6855C10.0593 11.5703 9.96602 11.477 9.85087 11.4768H9.01619ZM4.84281 16.4849C5.64911 16.4839 6.30251 15.8305 6.30349 15.0242V11.6855C6.30251 10.8792 5.64911 10.2258 4.84281 10.2248H2.54744V16.4849H4.84281ZM12.5636 11.6855C12.5646 10.8792 13.2179 10.2258 14.0243 10.2248H14.8589C15.2047 10.2248 15.4849 10.5051 15.4849 10.8508C15.4849 11.1965 15.2047 11.4768 14.8589 11.4768H14.0243C13.9091 11.477 13.8158 11.5703 13.8156 11.6855V15.0242C13.8158 15.1393 13.9091 15.2326 14.0243 15.2329H14.8589C15.2047 15.2329 15.4849 15.5131 15.4849 15.8589C15.4849 16.2046 15.2047 16.4849 14.8589 16.4849H14.0243C13.2179 16.4839 12.5646 15.8305 12.5636 15.0242V11.6855ZM11.3116 15.0242V11.6855C11.3106 10.8792 10.6572 10.2258 9.85087 10.2248H9.01619C8.20989 10.2258 7.55649 10.8792 7.55551 11.6855V15.0242C7.55649 15.8305 8.20989 16.4839 9.01619 16.4849H9.85087C10.6572 16.4839 11.3106 15.8305 11.3116 15.0242Z" fill="#D85564"/>
</svg>
