<svg width="16" height="20" viewBox="0 0 16 20" fill="none" xmlns="http://www.w3.org/2000/svg">
<path d="M3.31445 19.1816H12.6836C14.5732 19.1816 15.5488 18.1885 15.5488 16.29V8.42383H8.95703C7.8584 8.42383 7.33105 7.89648 7.33105 6.79785V0.135742H3.31445C1.43359 0.135742 0.449219 1.12891 0.449219 3.03613V16.29C0.449219 18.1885 1.43359 19.1816 3.31445 19.1816ZM9.12402 7.14062H15.4609C15.4082 6.73633 15.1182 6.3584 14.6611 5.89258L9.85352 1.02344C9.41406 0.575195 9.01855 0.276367 8.61426 0.223633V6.63086C8.62305 6.97363 8.79004 7.14062 9.12402 7.14062ZM4.58887 12.3174C4.21094 12.3174 3.93848 12.0449 3.93848 11.6934C3.93848 11.3418 4.21094 11.0693 4.58887 11.0693H11.4355C11.7959 11.0693 12.0771 11.3418 12.0771 11.6934C12.0771 12.0449 11.7959 12.3174 11.4355 12.3174H4.58887ZM4.58887 15.6133C4.21094 15.6133 3.93848 15.3408 3.93848 14.9893C3.93848 14.6377 4.21094 14.3652 4.58887 14.3652H11.4355C11.7959 14.3652 12.0771 14.6377 12.0771 14.9893C12.0771 15.3408 11.7959 15.6133 11.4355 15.6133H4.58887Z" fill="#DB5757"/>
</svg>
