<svg width="21" height="24" viewBox="0 0 21 24" fill="none" xmlns="http://www.w3.org/2000/svg">
<path fill-rule="evenodd" clip-rule="evenodd" d="M2.99316 0H12.9932V8H20.9932V22C20.9931 23.1045 20.0977 23.9999 18.9932 24H2.99316C1.88862 23.9999 0.993219 23.1045 0.993164 22V2C0.993219 0.895453 1.88862 5.52232e-05 2.99316 0ZM14.9932 6V0L20.9932 6H14.9932ZM14.2432 14C14.2443 13.034 15.0272 12.2512 15.9932 12.25H16.9932C17.4074 12.25 17.7432 12.5858 17.7432 13C17.7432 13.4142 17.4074 13.75 16.9932 13.75H15.9932C15.8552 13.7503 15.7434 13.862 15.7432 14V18C15.7434 18.138 15.8552 18.2497 15.9932 18.25H16.9932C17.1311 18.2497 17.2429 18.138 17.2432 18V17C17.2432 16.5858 17.579 16.25 17.9932 16.25C18.4074 16.25 18.7432 16.5858 18.7432 17V18C18.742 18.966 17.9592 19.7488 16.9932 19.75H15.9932C15.0272 19.7488 14.2443 18.966 14.2432 18V14ZM4.99316 19.75C5.95918 19.7488 6.74199 18.966 6.74316 18V13C6.74316 12.5858 6.40738 12.25 5.99316 12.25C5.57895 12.25 5.24316 12.5858 5.24316 13V18C5.2429 18.138 5.13113 18.2497 4.99316 18.25H3.99316C3.57895 18.25 3.24316 18.5858 3.24316 19C3.24316 19.4142 3.57895 19.75 3.99316 19.75H4.99316ZM12.7432 16C12.742 16.966 11.9592 17.7488 10.9932 17.75H9.74316V19C9.74316 19.4142 9.40738 19.75 8.99316 19.75C8.57895 19.75 8.24316 19.4142 8.24316 19V12.25H10.9932C11.9592 12.2512 12.742 13.034 12.7432 14V16ZM9.74316 13.75H10.9932C11.1311 13.7503 11.2429 13.862 11.2432 14V16C11.2429 16.138 11.1311 16.2497 10.9932 16.25H9.74316V13.75Z" fill="#D85564"/>
</svg>
