<svg width="16" height="19" viewBox="0 0 16 19" fill="none" xmlns="http://www.w3.org/2000/svg">
<path fill-rule="evenodd" clip-rule="evenodd" d="M1.58333 0H9.5V6.33333H15.8333V17.4167C15.8333 18.2911 15.1244 19 14.25 19H1.58333C0.708901 19 4.37184e-05 18.2911 0 17.4167V1.58333C4.37184e-05 0.708901 0.708901 4.37184e-05 1.58333 0ZM11.0833 4.75V0L15.8333 4.75H11.0833ZM10.4896 11.0833C10.4905 10.3186 11.1102 9.69885 11.875 9.69792H12.6667C12.9946 9.69792 13.2604 9.96375 13.2604 10.2917C13.2604 10.6196 12.9946 10.8854 12.6667 10.8854H11.875C11.7658 10.8856 11.6773 10.9741 11.6771 11.0833V14.25C11.6773 14.3592 11.7658 14.4477 11.875 14.4479H12.6667C12.7759 14.4477 12.8644 14.3592 12.8646 14.25V13.4583C12.8646 13.1304 13.1304 12.8646 13.4583 12.8646C13.7863 12.8646 14.0521 13.1304 14.0521 13.4583V14.25C14.0512 15.0148 13.4314 15.6345 12.6667 15.6354H11.875C11.1102 15.6345 10.4905 15.0148 10.4896 14.25V11.0833ZM3.16667 15.6354C3.93143 15.6345 4.55115 15.0148 4.55208 14.25V10.2917C4.55208 9.96375 4.28625 9.69792 3.95833 9.69792C3.63041 9.69792 3.36458 9.96375 3.36458 10.2917V14.25C3.36437 14.3592 3.27589 14.4477 3.16667 14.4479H2.375C2.04708 14.4479 1.78125 14.7137 1.78125 15.0417C1.78125 15.3696 2.04708 15.6354 2.375 15.6354H3.16667ZM9.30208 12.6667C9.30115 13.4314 8.68143 14.0512 7.91667 14.0521H6.92708V15.0417C6.92708 15.3696 6.66125 15.6354 6.33333 15.6354C6.00541 15.6354 5.73958 15.3696 5.73958 15.0417V9.69792H7.91667C8.68143 9.69885 9.30115 10.3186 9.30208 11.0833V12.6667ZM6.92708 10.8854H7.91667C8.02589 10.8856 8.11437 10.9741 8.11458 11.0833V12.6667C8.11437 12.7759 8.02589 12.8644 7.91667 12.8646H6.92708V10.8854Z" fill="#D85564"/>
</svg>
