<svg width="14" height="16" viewBox="0 0 14 16" fill="none" xmlns="http://www.w3.org/2000/svg">
<path fill-rule="evenodd" clip-rule="evenodd" d="M8.33398 0H1.66732C0.930953 3.68155e-05 0.334021 0.596969 0.333984 1.33333V14.6667C0.334021 15.403 0.930953 16 1.66732 16H12.334C13.0703 16 13.6673 15.403 13.6673 14.6667V5.33333H8.33398V0ZM9.66732 0V4H13.6673L9.66732 0ZM3.66732 9.16667H2.83398V10.8333H3.66732C3.75929 10.8332 3.83381 10.7586 3.83398 10.6667V9.33333C3.83381 9.24136 3.75929 9.16684 3.66732 9.16667ZM7.66732 12.1667H6.83398V9.16667H7.66732C7.75929 9.16684 7.83381 9.24136 7.83398 9.33333V12C7.83381 12.092 7.75929 12.1665 7.66732 12.1667ZM3.66732 11.8333C4.31133 11.8326 4.8332 11.3107 4.83398 10.6667V9.33333C4.8332 8.68932 4.31133 8.16745 3.66732 8.16667H1.83398V12.6667C1.83398 12.9428 2.05784 13.1667 2.33398 13.1667C2.61013 13.1667 2.83398 12.9428 2.83398 12.6667V11.8333H3.66732ZM9.83398 8.16667H11.6673C11.9435 8.16667 12.1673 8.39052 12.1673 8.66667C12.1673 8.94281 11.9435 9.16667 11.6673 9.16667H10.834V10.2004C10.8872 10.1795 10.9436 10.1681 11.0007 10.1667H11.6673C11.9435 10.1667 12.1673 10.3905 12.1673 10.6667C12.1673 10.9428 11.9435 11.1667 11.6673 11.1667H11.0007C10.9436 11.1652 10.8872 11.1538 10.834 11.133V12.6667C10.834 12.9428 10.6101 13.1667 10.334 13.1667C10.0578 13.1667 9.83398 12.9428 9.83398 12.6667V8.16667ZM8.83398 12V9.33333C8.8332 8.68932 8.31133 8.16745 7.66732 8.16667H5.83398V13.1667H7.66732C8.31133 13.1659 8.8332 12.644 8.83398 12Z"/>
</svg>
