<svg width="18" height="20" viewBox="0 0 18 20" fill="none" xmlns="http://www.w3.org/2000/svg">
<path fill-rule="evenodd" clip-rule="evenodd" d="M10.6667 0H2.33341C1.41296 4.60193e-05 0.666794 0.746211 0.666748 1.66667V18.3333C0.666794 19.2538 1.41296 20 2.33341 20H15.6667C16.5872 20 17.3334 19.2538 17.3334 18.3333V6.66667H10.6667V0ZM12.3341 0V5H17.3341L12.3341 0ZM4.83407 11.4583H3.7924V13.5417H4.83407C4.94903 13.5414 5.04218 13.4483 5.0424 13.3333V11.6667C5.04218 11.5517 4.94903 11.4586 4.83407 11.4583ZM9.83407 15.2083H8.7924V11.4583H9.83407C9.94903 11.4586 10.0422 11.5517 10.0424 11.6667V15C10.0422 15.115 9.94903 15.2081 9.83407 15.2083ZM4.83407 14.7917C5.63908 14.7907 6.29142 14.1383 6.2924 13.3333V11.6667C6.29142 10.8617 5.63908 10.2093 4.83407 10.2083H2.5424V15.8333C2.5424 16.1785 2.82222 16.4583 3.1674 16.4583C3.51258 16.4583 3.7924 16.1785 3.7924 15.8333V14.7917H4.83407ZM12.5424 10.2083H14.8341C15.1792 10.2083 15.4591 10.4882 15.4591 10.8333C15.4591 11.1785 15.1792 11.4583 14.8341 11.4583H13.7924V12.7504C13.8589 12.7244 13.9294 12.7102 14.0007 12.7083H14.8341C15.1792 12.7083 15.4591 12.9882 15.4591 13.3333C15.4591 13.6785 15.1792 13.9583 14.8341 13.9583H14.0007C13.9294 13.9565 13.8589 13.9423 13.7924 13.9162V15.8333C13.7924 16.1785 13.5126 16.4583 13.1674 16.4583C12.8222 16.4583 12.5424 16.1785 12.5424 15.8333V10.2083ZM11.2924 15V11.6667C11.2914 10.8617 10.6391 10.2093 9.83407 10.2083H7.5424V16.4583H9.83407C10.6391 16.4574 11.2914 15.805 11.2924 15Z" fill="#D85564"/>
</svg>
