<svg width="21" height="24" viewBox="0 0 21 24" fill="none" xmlns="http://www.w3.org/2000/svg">
<path fill-rule="evenodd" clip-rule="evenodd" d="M12.9932 0H2.99316C1.88862 5.52232e-05 0.993219 0.895453 0.993164 2V22C0.993219 23.1045 1.88862 23.9999 2.99316 24H18.9932C20.0977 23.9999 20.9931 23.1045 20.9932 22V8H12.9932V0ZM14.9932 0V6H20.9932L14.9932 0ZM6.74316 13.75H7.49316C7.90738 13.75 8.24316 13.4142 8.24316 13C8.24316 12.5858 7.90738 12.25 7.49316 12.25H4.49316C4.07895 12.25 3.74316 12.5858 3.74316 13C3.74316 13.4142 4.07895 13.75 4.49316 13.75H5.24316V19C5.24316 19.4142 5.57895 19.75 5.99316 19.75C6.40738 19.75 6.74316 19.4142 6.74316 19V13.75ZM14.4932 12.25H17.4932C17.9074 12.25 18.2432 12.5858 18.2432 13C18.2432 13.4142 17.9074 13.75 17.4932 13.75H16.7432V19C16.7432 19.4142 16.4074 19.75 15.9932 19.75C15.579 19.75 15.2432 19.4142 15.2432 19V13.75H14.4932C14.079 13.75 13.7432 13.4142 13.7432 13C13.7432 12.5858 14.079 12.25 14.4932 12.25ZM11.8315 16L13.1641 13.335C13.349 12.9645 13.1986 12.5142 12.8281 12.3292C12.4576 12.1442 12.0073 12.2946 11.8223 12.6651L10.9932 14.3233L10.1641 12.6651C10.0444 12.4254 9.80595 12.2677 9.53852 12.2515C9.27109 12.2353 9.01533 12.363 8.86758 12.5865C8.71984 12.81 8.70256 13.0953 8.82226 13.335L10.1548 16L8.82226 18.665C8.70256 18.9047 8.71984 19.1901 8.86758 19.4136C9.01533 19.6371 9.27109 19.7648 9.53852 19.7486C9.80595 19.7323 10.0444 19.5747 10.1641 19.335L10.9932 17.6768L11.8223 19.3349C11.9419 19.5746 12.1804 19.7323 12.4478 19.7485C12.7152 19.7647 12.971 19.637 13.1187 19.4135C13.2665 19.19 13.2838 18.9047 13.1641 18.665L11.8315 16Z" fill="#D85564"/>
</svg>
