<svg width="21" height="24" viewBox="0 0 21 24" fill="none" xmlns="http://www.w3.org/2000/svg">
<path fill-rule="evenodd" clip-rule="evenodd" d="M12.9932 0H2.99316C1.88862 5.52232e-05 0.993219 0.895453 0.993164 2V22C0.993219 23.1045 1.88862 23.9999 2.99316 24H18.9932C20.0977 23.9999 20.9931 23.1045 20.9932 22V8H12.9932V0ZM14.9932 6V0L20.9932 6H14.9932ZM16.2432 14V16C16.2429 16.138 16.1311 16.2497 15.9932 16.25H14.7432V13.75H15.9932C16.1311 13.7503 16.2429 13.862 16.2432 14ZM15.9932 12.25H13.2432V19C13.2432 19.4142 13.579 19.75 13.9932 19.75C14.4074 19.75 14.7432 19.4142 14.7432 19V17.75H15.9932C16.9592 17.7488 17.742 16.966 17.7432 16V14C17.742 13.034 16.9592 12.2512 15.9932 12.25ZM7.99316 19.75H4.99316C4.73326 19.7499 4.49192 19.6153 4.35527 19.3942C4.21862 19.1731 4.20613 18.8971 4.32226 18.6646L6.77926 13.75H4.99316C4.57895 13.75 4.24316 13.4142 4.24316 13C4.24316 12.5858 4.57895 12.25 4.99316 12.25H7.99316C8.25307 12.2501 8.49441 12.3847 8.63106 12.6058C8.76771 12.8269 8.7802 13.1029 8.66406 13.3355L6.20706 18.25H7.99316C8.40738 18.25 8.74316 18.5858 8.74316 19C8.74316 19.4142 8.40738 19.75 7.99316 19.75ZM10.9932 19.75C11.4074 19.75 11.7432 19.4142 11.7432 19V13C11.7432 12.5858 11.4074 12.25 10.9932 12.25C10.579 12.25 10.2432 12.5858 10.2432 13V19C10.2432 19.4142 10.579 19.75 10.9932 19.75Z" fill="#D85564"/>
</svg>
